<svg version="1.1" xmlns="http://www.w3.org/2000/svg" xmlns:xlink="http://www.w3.org/1999/xlink" stroke-linecap="round" stroke-linejoin="round" stroke-width="0" fill-rule="evenodd" clip-rule="evenodd" id="c46HL0UR7HpWEY1aK2zJ_top" viewBox="94000 -97000 48000 9000" width="48mm" height="9mm" class="w-100 h-100"><defs><style>.c46HL0UR7HpWEY1aK2zJ_fr4 {color: #666666;}
.c46HL0UR7HpWEY1aK2zJ_cu {color: #cccccc;}
.c46HL0UR7HpWEY1aK2zJ_cf {color: #cc9933;}
.c46HL0UR7HpWEY1aK2zJ_sm {color: #004200; opacity: 0.75;}
.c46HL0UR7HpWEY1aK2zJ_ss {color: #ffffff;}
.c46HL0UR7HpWEY1aK2zJ_sp {color: #999999;}
.c46HL0UR7HpWEY1aK2zJ_out {color: #000000;}</style><rect x="-450" y="-400" width="900" height="800" id="CRONc45EX2TmndVOKkcJ_pad-10"/><g id="CRONc45EX2TmndVOKkcJ_pad-11"><polygon points="-135,635 -135,-635 135,-635 135,635"/><circle cx="-135" cy="635" r="90"/><circle cx="-135" cy="-635" r="90"/><circle cx="135" cy="-635" r="90"/><circle cx="135" cy="635" r="90"/><polygon points="-45,635 -45,-635 -225,-635 -225,635"/><polygon points="-135,-725 135,-725 135,-545 -135,-545"/><polygon points="225,-635 225,635 45,635 45,-635"/><polygon points="135,545 -135,545 -135,725 135,725"/></g><g id="CRONc45EX2TmndVOKkcJ_pad-12"><polygon points="1143,-1143 1143,1143 -1143,1143 -1143,-1143"/><circle cx="1143" cy="-1143" r="127"/><circle cx="1143" cy="1143" r="127"/><circle cx="-1143" cy="1143" r="127"/><circle cx="-1143" cy="-1143" r="127"/><polygon points="1270,-1143 1270,1143 1016,1143 1016,-1143"/><polygon points="1143,1016 -1143,1016 -1143,1270 1143,1270"/><polygon points="-1016,1143 -1016,-1143 -1270,-1143 -1270,1143"/><polygon points="-1143,-1270 1143,-1270 1143,-1016 -1143,-1016"/></g><circle cx="0" cy="0" r="500" id="b54QVE3IDdm18iKJr0Gn_pad-14"/><rect x="-450" y="-400" width="900" height="800" id="b54QVE3IDdm18iKJr0Gn_pad-15"/><g id="b54QVE3IDdm18iKJr0Gn_pad-16"><polygon points="-135,635 -135,-635 135,-635 135,635"/><circle cx="-135" cy="635" r="90"/><circle cx="-135" cy="-635" r="90"/><circle cx="135" cy="-635" r="90"/><circle cx="135" cy="635" r="90"/><polygon points="-45,635 -45,-635 -225,-635 -225,635"/><polygon points="-135,-725 135,-725 135,-545 -135,-545"/><polygon points="225,-635 225,635 45,635 45,-635"/><polygon points="135,545 -135,545 -135,725 135,725"/></g><g id="b54QVE3IDdm18iKJr0Gn_pad-17"><polygon points="1143,-1143 1143,1143 -1143,1143 -1143,-1143"/><circle cx="1143" cy="-1143" r="127"/><circle cx="1143" cy="1143" r="127"/><circle cx="-1143" cy="1143" r="127"/><circle cx="-1143" cy="-1143" r="127"/><polygon points="1270,-1143 1270,1143 1016,1143 1016,-1143"/><polygon points="1143,1016 -1143,1016 -1143,1270 1143,1270"/><polygon points="-1016,1143 -1016,-1143 -1270,-1143 -1270,1143"/><polygon points="-1143,-1270 1143,-1270 1143,-1016 -1143,-1016"/></g><circle cx="0" cy="0" r="1200" id="b54QVE3IDdm18iKJr0Gn_pad-18"/><mask id="b54QVE3IDdm18iKJr0Gn_clear-1" fill="#000" stroke="#000"><g><rect x="94639.598" y="-96460.427" width="47008.021" height="8251.856" fill="#fff"/><use xlink:href="#b54QVE3IDdm18iKJr0Gn_pad-14" x="122500" y="-89500"/><use xlink:href="#b54QVE3IDdm18iKJr0Gn_pad-14" x="124500" y="-89500"/><use xlink:href="#b54QVE3IDdm18iKJr0Gn_pad-14" x="126500" y="-89500"/><use xlink:href="#b54QVE3IDdm18iKJr0Gn_pad-14" x="128500" y="-89500"/><use xlink:href="#b54QVE3IDdm18iKJr0Gn_pad-15" x="137500" y="-91100"/><use xlink:href="#b54QVE3IDdm18iKJr0Gn_pad-15" x="137500" y="-92900"/><use xlink:href="#b54QVE3IDdm18iKJr0Gn_pad-16" x="135450" y="-89050"/><use xlink:href="#b54QVE3IDdm18iKJr0Gn_pad-16" x="134800" y="-89050"/><use xlink:href="#b54QVE3IDdm18iKJr0Gn_pad-16" x="134150" y="-89050"/><use xlink:href="#b54QVE3IDdm18iKJr0Gn_pad-16" x="133500" y="-89050"/><use xlink:href="#b54QVE3IDdm18iKJr0Gn_pad-16" x="132850" y="-89050"/><use xlink:href="#b54QVE3IDdm18iKJr0Gn_pad-16" x="132200" y="-89050"/><use xlink:href="#b54QVE3IDdm18iKJr0Gn_pad-16" x="131550" y="-89050"/><use xlink:href="#b54QVE3IDdm18iKJr0Gn_pad-16" x="131550" y="-94950"/><use xlink:href="#b54QVE3IDdm18iKJr0Gn_pad-16" x="132200" y="-94950"/><use xlink:href="#b54QVE3IDdm18iKJr0Gn_pad-16" x="132850" y="-94950"/><use xlink:href="#b54QVE3IDdm18iKJr0Gn_pad-16" x="133500" y="-94950"/><use xlink:href="#b54QVE3IDdm18iKJr0Gn_pad-16" x="134150" y="-94950"/><use xlink:href="#b54QVE3IDdm18iKJr0Gn_pad-16" x="134800" y="-94950"/><use xlink:href="#b54QVE3IDdm18iKJr0Gn_pad-16" x="135450" y="-94950"/><use xlink:href="#b54QVE3IDdm18iKJr0Gn_pad-17" x="140500" y="-92000"/><use xlink:href="#b54QVE3IDdm18iKJr0Gn_pad-14" x="120500" y="-89500"/><use xlink:href="#b54QVE3IDdm18iKJr0Gn_pad-18" x="96000" y="-94000"/><use xlink:href="#b54QVE3IDdm18iKJr0Gn_pad-18" x="100000" y="-94000"/><use xlink:href="#b54QVE3IDdm18iKJr0Gn_pad-18" x="104000" y="-94000"/><use xlink:href="#b54QVE3IDdm18iKJr0Gn_pad-18" x="108000" y="-90550"/><use xlink:href="#b54QVE3IDdm18iKJr0Gn_pad-18" x="108000" y="-94000"/><use xlink:href="#b54QVE3IDdm18iKJr0Gn_pad-18" x="112000" y="-94000"/><use xlink:href="#b54QVE3IDdm18iKJr0Gn_pad-18" x="116000" y="-94000"/><use xlink:href="#b54QVE3IDdm18iKJr0Gn_pad-18" x="120000" y="-94000"/></g></mask><circle cx="0" cy="0" r="500" id="hbRkJn9VH7cE-c6Cgizv_pad-10"/><rect x="-450" y="-400" width="900" height="800" id="hbRkJn9VH7cE-c6Cgizv_pad-11"/><g id="hbRkJn9VH7cE-c6Cgizv_pad-12"><polygon points="-135,635 -135,-635 135,-635 135,635"/><circle cx="-135" cy="635" r="90"/><circle cx="-135" cy="-635" r="90"/><circle cx="135" cy="-635" r="90"/><circle cx="135" cy="635" r="90"/><polygon points="-45,635 -45,-635 -225,-635 -225,635"/><polygon points="-135,-725 135,-725 135,-545 -135,-545"/><polygon points="225,-635 225,635 45,635 45,-635"/><polygon points="135,545 -135,545 -135,725 135,725"/></g><g id="hbRkJn9VH7cE-c6Cgizv_pad-13"><polygon points="1143,-1143 1143,1143 -1143,1143 -1143,-1143"/><circle cx="1143" cy="-1143" r="127"/><circle cx="1143" cy="1143" r="127"/><circle cx="-1143" cy="1143" r="127"/><circle cx="-1143" cy="-1143" r="127"/><polygon points="1270,-1143 1270,1143 1016,1143 1016,-1143"/><polygon points="1143,1016 -1143,1016 -1143,1270 1143,1270"/><polygon points="-1016,1143 -1016,-1143 -1270,-1143 -1270,1143"/><polygon points="-1143,-1270 1143,-1270 1143,-1016 -1143,-1016"/></g><circle cx="0" cy="0" r="1200" id="hbRkJn9VH7cE-c6Cgizv_pad-14"/><circle cx="0" cy="0" r="500" id="hkbXOa7cSdfc95AgZ1ec_pad-15"/><rect x="-450" y="-400" width="900" height="800" id="hkbXOa7cSdfc95AgZ1ec_pad-16"/><g id="hkbXOa7cSdfc95AgZ1ec_pad-17"><polygon points="-135,635 -135,-635 135,-635 135,635"/><circle cx="-135" cy="635" r="90"/><circle cx="-135" cy="-635" r="90"/><circle cx="135" cy="-635" r="90"/><circle cx="135" cy="635" r="90"/><polygon points="-45,635 -45,-635 -225,-635 -225,635"/><polygon points="-135,-725 135,-725 135,-545 -135,-545"/><polygon points="225,-635 225,635 45,635 45,-635"/><polygon points="135,545 -135,545 -135,725 135,725"/></g><g id="hkbXOa7cSdfc95AgZ1ec_pad-18"><polygon points="1143,-1143 1143,1143 -1143,1143 -1143,-1143"/><circle cx="1143" cy="-1143" r="127"/><circle cx="1143" cy="1143" r="127"/><circle cx="-1143" cy="1143" r="127"/><circle cx="-1143" cy="-1143" r="127"/><polygon points="1270,-1143 1270,1143 1016,1143 1016,-1143"/><polygon points="1143,1016 -1143,1016 -1143,1270 1143,1270"/><polygon points="-1016,1143 -1016,-1143 -1270,-1143 -1270,1143"/><polygon points="-1143,-1270 1143,-1270 1143,-1016 -1143,-1016"/></g><circle cx="0" cy="0" r="1200" id="hkbXOa7cSdfc95AgZ1ec_pad-19"/><circle cx="0" cy="0" r="300" id="hkbXOa7cSdfc95AgZ1ec_pad-20"/><circle cx="0" cy="0" r="5.9" id="pSIZdowf8_91ZTWmzXeB_pad-1"/><circle cx="0" cy="0" r="35.45" id="pSIZdowf8_91ZTWmzXeB_pad-2"/><g id="c46HL0UR7HpWEY1aK2zJ_top_solderpaste"><use xlink:href="#CRONc45EX2TmndVOKkcJ_pad-10" x="137500" y="-91100"/><use xlink:href="#CRONc45EX2TmndVOKkcJ_pad-10" x="137500" y="-92900"/><use xlink:href="#CRONc45EX2TmndVOKkcJ_pad-11" x="135450" y="-89050"/><use xlink:href="#CRONc45EX2TmndVOKkcJ_pad-11" x="134800" y="-89050"/><use xlink:href="#CRONc45EX2TmndVOKkcJ_pad-11" x="134150" y="-89050"/><use xlink:href="#CRONc45EX2TmndVOKkcJ_pad-11" x="133500" y="-89050"/><use xlink:href="#CRONc45EX2TmndVOKkcJ_pad-11" x="132850" y="-89050"/><use xlink:href="#CRONc45EX2TmndVOKkcJ_pad-11" x="132200" y="-89050"/><use xlink:href="#CRONc45EX2TmndVOKkcJ_pad-11" x="131550" y="-89050"/><use xlink:href="#CRONc45EX2TmndVOKkcJ_pad-11" x="131550" y="-94950"/><use xlink:href="#CRONc45EX2TmndVOKkcJ_pad-11" x="132200" y="-94950"/><use xlink:href="#CRONc45EX2TmndVOKkcJ_pad-11" x="132850" y="-94950"/><use xlink:href="#CRONc45EX2TmndVOKkcJ_pad-11" x="133500" y="-94950"/><use xlink:href="#CRONc45EX2TmndVOKkcJ_pad-11" x="134150" y="-94950"/><use xlink:href="#CRONc45EX2TmndVOKkcJ_pad-11" x="134800" y="-94950"/><use xlink:href="#CRONc45EX2TmndVOKkcJ_pad-11" x="135450" y="-94950"/><use xlink:href="#CRONc45EX2TmndVOKkcJ_pad-12" x="140500" y="-92000"/></g><g id="c46HL0UR7HpWEY1aK2zJ_top_silkscreen"><g mask="url(#b54QVE3IDdm18iKJr0Gn_clear-1)"><path d="M 120383 -88690 119783 -88690 M 129383 -89190 129383 -88690 M 122683 -88690 129383 -88690 M 119783 -89190 119783 -88690" fill="none" stroke-width="120"/><path d="M 94720.55 -89272.27 94720.55 -88622.27 94968.169 -88622.27 95030.074 -88653.222 95061.027 -88684.175 95091.979 -88746.079 95091.979 -88838.937 95061.027 -88900.841 95030.074 -88931.794 94968.169 -88962.746 94720.55 -88962.746 M 95339.598 -89241.318 95432.455 -89272.27 95587.217 -89272.27 95649.122 -89241.318 95680.074 -89210.365 95711.027 -89148.46 95711.027 -89086.556 95680.074 -89024.651 95649.122 -88993.698 95587.217 -88962.746 95463.408 -88931.794 95401.503 -88900.841 95370.55 -88869.889 95339.598 -88807.984 95339.598 -88746.079 95370.55 -88684.175 95401.503 -88653.222 95463.408 -88622.27 95618.169 -88622.27 95711.027 -88653.222 M 96330.075 -89272.27 95958.646 -89272.27 M 96144.36 -89272.27 96144.36 -88622.27 96082.456 -88715.127 96020.551 -88777.032 95958.646 -88807.984 M 97103.884 -89272.27 97103.884 -88622.27 M 97413.408 -89272.27 97413.408 -88622.27 97784.837 -89272.27 97784.837 -88622.27 M 98094.36 -89024.651 98589.599 -89024.651 M 99239.599 -88653.222 99177.694 -88622.27 99084.837 -88622.27 98991.98 -88653.222 98930.075 -88715.127 98899.122 -88777.032 98868.17 -88900.841 98868.17 -88993.698 98899.122 -89117.508 98930.075 -89179.413 98991.98 -89241.318 99084.837 -89272.27 99146.741 -89272.27 99239.599 -89241.318 99270.551 -89210.365 99270.551 -88993.698 99146.741 -88993.698 M 99518.17 -89086.556 99827.694 -89086.556 M 99456.265 -89272.27 99672.932 -88622.27 99889.599 -89272.27 M 100106.265 -89272.27 100106.265 -88622.27 100322.932 -89086.556 100539.599 -88622.27 100539.599 -89272.27 M 100849.122 -88931.794 101065.789 -88931.794 M 101158.646 -89272.27 100849.122 -89272.27 100849.122 -88622.27 101158.646 -88622.27 M 102303.884 -89272.27 102087.217 -88962.746 M 101932.455 -89272.27 101932.455 -88622.27 102180.074 -88622.27 102241.979 -88653.222 102272.932 -88684.175 102303.884 -88746.079 102303.884 -88838.937 102272.932 -88900.841 102241.979 -88931.794 102180.074 -88962.746 101932.455 -88962.746 M 102582.455 -88931.794 102799.122 -88931.794 M 102891.979 -89272.27 102582.455 -89272.27 102582.455 -88622.27 102891.979 -88622.27 M 103139.598 -89241.318 103232.455 -89272.27 103387.217 -89272.27 103449.122 -89241.318 103480.074 -89210.365 103511.027 -89148.46 103511.027 -89086.556 103480.074 -89024.651 103449.122 -88993.698 103387.217 -88962.746 103263.408 -88931.794 103201.503 -88900.841 103170.55 -88869.889 103139.598 -88807.984 103139.598 -88746.079 103170.55 -88684.175 103201.503 -88653.222 103263.408 -88622.27 103418.169 -88622.27 103511.027 -88653.222 M 103789.598 -88931.794 104006.265 -88931.794 M 104099.122 -89272.27 103789.598 -89272.27 103789.598 -88622.27 104099.122 -88622.27 M 104284.836 -88622.27 104656.265 -88622.27 M 104470.551 -89272.27 104470.551 -88622.27 M 94999.122 -89885.401 94999.122 -90411.591 94968.169 -90473.496 94937.217 -90504.448 94875.312 -90535.401 94782.455 -90535.401 94720.55 -90504.448 M 94999.122 -90287.782 94937.217 -90318.734 94813.408 -90318.734 94751.503 -90287.782 94720.55 -90256.829 94689.598 -90194.924 94689.598 -90009.21 94720.55 -89947.305 94751.503 -89916.353 94813.408 -89885.401 94937.217 -89885.401 94999.122 -89916.353 M 95308.645 -90318.734 95308.645 -89885.401 M 95308.645 -89668.734 95277.693 -89699.686 95308.645 -89730.639 95339.598 -89699.686 95308.645 -89668.734 95308.645 -89730.639 M 95525.312 -89885.401 95772.931 -89885.401 M 95618.169 -89668.734 95618.169 -90225.877 95649.122 -90287.782 95711.027 -90318.734 95772.931 -90318.734 M 95989.598 -90318.734 95989.598 -89668.734 M 96268.17 -90318.734 96268.17 -89978.258 96237.217 -89916.353 96175.313 -89885.401 96082.456 -89885.401 96020.551 -89916.353 95989.598 -89947.305 M 96856.265 -89885.401 96856.265 -90318.734 M 96577.693 -89885.401 96577.693 -90225.877 96608.646 -90287.782 96670.551 -90318.734 96763.408 -90318.734 96825.312 -90287.782 96856.265 -90256.829 M 97165.788 -90318.734 97165.788 -89668.734 M 97165.788 -89916.353 97227.693 -89885.401 97351.503 -89885.401 97413.407 -89916.353 97444.36 -89947.305 97475.312 -90009.21 97475.312 -90194.924 97444.36 -90256.829 97413.407 -90287.782 97351.503 -90318.734 97227.693 -90318.734 97165.788 -90287.782 M 97753.883 -90256.829 97784.836 -90287.782 97753.883 -90318.734 97722.931 -90287.782 97753.883 -90256.829 97753.883 -90318.734 M 98341.979 -90287.782 98280.074 -90318.734 98156.265 -90318.734 98094.36 -90287.782 98063.407 -90256.829 98032.455 -90194.924 98032.455 -90009.21 98063.407 -89947.305 98094.36 -89916.353 98156.265 -89885.401 98280.074 -89885.401 98341.979 -89916.353 M 98713.408 -90318.734 98651.503 -90287.782 98620.55 -90256.829 98589.598 -90194.924 98589.598 -90009.21 98620.55 -89947.305 98651.503 -89916.353 98713.408 -89885.401 98806.265 -89885.401 98868.169 -89916.353 98899.122 -89947.305 98930.074 -90009.21 98930.074 -90194.924 98899.122 -90256.829 98868.169 -90287.782 98806.265 -90318.734 98713.408 -90318.734 M 99208.645 -90318.734 99208.645 -89885.401 M 99208.645 -89947.305 99239.598 -89916.353 99301.503 -89885.401 99394.36 -89885.401 99456.264 -89916.353 99487.217 -89978.258 99487.217 -90318.734 M 99487.217 -89978.258 99518.169 -89916.353 99580.074 -89885.401 99672.931 -89885.401 99734.836 -89916.353 99765.788 -89978.258 99765.788 -90318.734 M 100539.598 -89637.782 99982.455 -90473.496 M 100756.264 -89885.401 100756.264 -90535.401 M 100756.264 -89916.353 100818.169 -89885.401 100941.979 -89885.401 101003.883 -89916.353 101034.836 -89947.305 101065.788 -90009.21 101065.788 -90194.924 101034.836 -90256.829 101003.883 -90287.782 100941.979 -90318.734 100818.169 -90318.734 100756.264 -90287.782 M 101282.455 -89885.401 101437.217 -90318.734 M 101591.978 -89885.401 101437.217 -90318.734 101375.312 -90473.496 101344.359 -90504.448 101282.455 -90535.401 M 101839.597 -90318.734 101839.597 -89885.401 M 101839.597 -90009.21 101870.55 -89947.305 101901.502 -89916.353 101963.407 -89885.401 102025.312 -89885.401 M 102334.836 -90318.734 102272.931 -90287.782 102241.978 -90256.829 102211.026 -90194.924 102211.026 -90009.21 102241.978 -89947.305 102272.931 -89916.353 102334.836 -89885.401 102427.693 -89885.401 102489.597 -89916.353 102520.55 -89947.305 102551.502 -90009.21 102551.502 -90194.924 102520.55 -90256.829 102489.597 -90287.782 102427.693 -90318.734 102334.836 -90318.734 M 103077.692 -90287.782 103015.788 -90318.734 102891.978 -90318.734 102830.073 -90287.782 102799.121 -90225.877 102799.121 -89978.258 102830.073 -89916.353 102891.978 -89885.401 103015.788 -89885.401 103077.692 -89916.353 103108.645 -89978.258 103108.645 -90040.162 102799.121 -90102.067 M 103356.264 -90287.782 103418.169 -90318.734 103541.978 -90318.734 103603.883 -90287.782 103634.835 -90225.877 103634.835 -90194.924 103603.883 -90133.02 103541.978 -90102.067 103449.121 -90102.067 103387.216 -90071.115 103356.264 -90009.21 103356.264 -89978.258 103387.216 -89916.353 103449.121 -89885.401 103541.978 -89885.401 103603.883 -89916.353 M 103913.406 -89885.401 103913.406 -90535.401 M 103913.406 -89916.353 103975.311 -89885.401 104099.121 -89885.401 104161.025 -89916.353 104191.978 -89947.305 104222.93 -90009.21 104222.93 -90194.924 104191.978 -90256.829 104161.025 -90287.782 104099.121 -90318.734 103975.311 -90318.734 103913.406 -90287.782" fill="none" stroke-width="100"/><path d="M 119494.048 -96304.474 119453.572 -96344.951 119332.143 -96385.427 119251.191 -96385.427 119129.762 -96344.951 119048.81 -96263.998 119008.333 -96183.046 118967.857 -96021.141 118967.857 -95899.712 119008.333 -95737.808 119048.81 -95656.855 119129.762 -95575.903 119251.191 -95535.427 119332.143 -95535.427 119453.572 -95575.903 119494.048 -95616.379 M 120263.095 -96385.427 119858.333 -96385.427 119858.333 -95535.427 M 120546.428 -96385.427 120546.428 -95535.427 M 121032.143 -96385.427 120667.857 -95899.712 M 121032.143 -95535.427 120546.428 -96021.141 M 115150 -96142.57 115554.762 -96142.57 M 115069.048 -96385.427 115352.381 -95535.427 115635.715 -96385.427 M 115797.619 -95535.427 116283.333 -95535.427 M 116040.476 -96385.427 116040.476 -95535.427 M 116445.238 -95535.427 116930.952 -95535.427 M 116688.095 -96385.427 116688.095 -95535.427 M 99352.381 -96304.474 99311.905 -96344.951 99190.476 -96385.427 99109.524 -96385.427 98988.095 -96344.951 98907.143 -96263.998 98866.666 -96183.046 98826.19 -96021.141 98826.19 -95899.712 98866.666 -95737.808 98907.143 -95656.855 98988.095 -95575.903 99109.524 -95535.427 99190.476 -95535.427 99311.905 -95575.903 99352.381 -95616.379 M 99716.666 -96385.427 99716.666 -95535.427 100000 -96142.57 100283.333 -95535.427 100283.333 -96385.427 M 100688.095 -96385.427 100688.095 -95535.427 100890.476 -95535.427 101011.905 -95575.903 101092.857 -95656.855 101133.334 -95737.808 101173.81 -95899.712 101173.81 -96021.141 101133.334 -96183.046 101092.857 -96263.998 101011.905 -96344.951 100890.476 -96385.427 100688.095 -96385.427 M 110866.667 -95535.427 111150 -96385.427 111433.334 -95535.427 M 112202.381 -96304.474 112161.905 -96344.951 112040.476 -96385.427 111959.524 -96385.427 111838.095 -96344.951 111757.143 -96263.998 111716.666 -96183.046 111676.19 -96021.141 111676.19 -95899.712 111716.666 -95737.808 111757.143 -95656.855 111838.095 -95575.903 111959.524 -95535.427 112040.476 -95535.427 112161.905 -95575.903 112202.381 -95616.379 M 113052.381 -96304.474 113011.905 -96344.951 112890.476 -96385.427 112809.524 -96385.427 112688.095 -96344.951 112607.143 -96263.998 112566.666 -96183.046 112526.19 -96021.141 112526.19 -95899.712 112566.666 -95737.808 112607.143 -95656.855 112688.095 -95575.903 112809.524 -95535.427 112890.476 -95535.427 113011.905 -95575.903 113052.381 -95616.379 M 107352.381 -95575.903 107271.428 -95535.427 107150 -95535.427 107028.571 -95575.903 106947.619 -95656.855 106907.142 -95737.808 106866.666 -95899.712 106866.666 -96021.141 106907.142 -96183.046 106947.619 -96263.998 107028.571 -96344.951 107150 -96385.427 107230.952 -96385.427 107352.381 -96344.951 107392.857 -96304.474 107392.857 -96021.141 107230.952 -96021.141 M 107757.142 -96385.427 107757.142 -95535.427 108242.857 -96385.427 108242.857 -95535.427 M 108647.618 -96385.427 108647.618 -95535.427 108849.999 -95535.427 108971.428 -95575.903 109052.38 -95656.855 109092.857 -95737.808 109133.333 -95899.712 109133.333 -96021.141 109092.857 -96183.046 109052.38 -96263.998 108971.428 -96344.951 108849.999 -96385.427 108647.618 -96385.427" fill="none" stroke-width="150"/><path d="M 137654.761 -92178.49 137630.952 -92202.3 137559.523 -92226.109 137511.904 -92226.109 137440.476 -92202.3 137392.857 -92154.68 137369.047 -92107.061 137345.238 -92011.823 137345.238 -91940.395 137369.047 -91845.157 137392.857 -91797.538 137440.476 -91749.919 137511.904 -91726.109 137559.523 -91726.109 137630.952 -91749.919 137654.761 -91773.728" fill="none" stroke-width="100"/><path d="M 94725 -96385.427 94725 -95535.427 94927.381 -95535.427 95048.81 -95575.903 95129.762 -95656.855 95170.239 -95737.808 95210.715 -95899.712 95210.715 -96021.141 95170.239 -96183.046 95129.762 -96263.998 95048.81 -96344.951 94927.381 -96385.427 94725 -96385.427 M 95534.524 -96142.57 95939.286 -96142.57 M 95453.572 -96385.427 95736.905 -95535.427 96020.239 -96385.427 M 96182.143 -95535.427 96667.857 -95535.427 M 96425 -96385.427 96425 -95535.427 M 96910.714 -96142.57 97315.476 -96142.57 M 96829.762 -96385.427 97113.095 -95535.427 97396.429 -96385.427" fill="none" stroke-width="150"/><path d="M 120614.286 -88871.071 120614.286 -88271.071 M 121242.857 -88813.928 121214.285 -88842.5 121128.571 -88871.071 121071.428 -88871.071 120985.714 -88842.5 120928.571 -88785.357 120900 -88728.214 120871.428 -88613.928 120871.428 -88528.214 120900 -88413.928 120928.571 -88356.785 120985.714 -88299.642 121071.428 -88271.071 121128.571 -88271.071 121214.285 -88299.642 121242.857 -88328.214 M 121471.428 -88842.5 121557.143 -88871.071 121700 -88871.071 121757.143 -88842.5 121785.714 -88813.928 121814.285 -88756.785 121814.285 -88699.642 121785.714 -88642.5 121757.143 -88613.928 121700 -88585.357 121585.714 -88556.785 121528.571 -88528.214 121500 -88499.642 121471.428 -88442.5 121471.428 -88385.357 121500 -88328.214 121528.571 -88299.642 121585.714 -88271.071 121728.571 -88271.071 121814.285 -88299.642 M 122071.429 -88871.071 122071.429 -88271.071 122300 -88271.071 122357.143 -88299.642 122385.714 -88328.214 122414.286 -88385.357 122414.286 -88471.071 122385.714 -88528.214 122357.143 -88556.785 122300 -88585.357 122071.429 -88585.357" fill="none" stroke-width="125"/><path d="M 131488.095 -91454.819 131488.095 -92264.342 131535.714 -92359.58 131583.333 -92407.2 131678.571 -92454.819 131869.047 -92454.819 131964.285 -92407.2 132011.904 -92359.58 132059.523 -92264.342 132059.523 -91454.819 M 133059.523 -92454.819 132488.095 -92454.819 M 132773.809 -92454.819 132773.809 -91454.819 132678.571 -91597.676 132583.333 -91692.914 132488.095 -91740.533 M 140034.524 -94385.427 139751.19 -93980.665 M 139548.809 -94385.427 139548.809 -93535.427 139872.619 -93535.427 139953.571 -93575.903 139994.048 -93616.379 140034.524 -93697.331 140034.524 -93818.76 139994.048 -93899.712 139953.571 -93940.189 139872.619 -93980.665 139548.809 -93980.665 M 140358.333 -94344.951 140479.762 -94385.427 140682.143 -94385.427 140763.095 -94344.951 140803.571 -94304.474 140844.048 -94223.522 140844.048 -94142.57 140803.571 -94061.617 140763.095 -94021.141 140682.143 -93980.665 140520.238 -93940.189 140439.286 -93899.712 140398.809 -93859.236 140358.333 -93778.284 140358.333 -93697.331 140398.809 -93616.379 140439.286 -93575.903 140520.238 -93535.427 140722.619 -93535.427 140844.048 -93575.903 M 141086.905 -93535.427 141572.619 -93535.427 M 141329.762 -94385.427 141329.762 -93535.427" fill="none" stroke-width="150"/><path d="M 136900 -90600 136900 -91500 M 136900 -92500 136900 -93400 M 138100 -90600 136900 -90600 M 138100 -90600 138100 -91500 M 138100 -92500 138100 -93400 136900 -93400" fill="none" stroke-width="120"/><path d="M 130875 -89675 130875 -94325 M 130875 -89675 131100 -89675 M 130875 -94325 131100 -94325 M 135950 -89675 136175 -89675 136175 -94325 135950 -94325 M 136150 -92300 A 300 300 0 0 0 136150 -91700 M 135950 -90000 A 100 100 0 0 0 135750 -90000 100 100 0 0 0 135950 -90000" fill="none" stroke-width="150"/></g></g><g id="c46HL0UR7HpWEY1aK2zJ_top_soldermask"><use xlink:href="#hbRkJn9VH7cE-c6Cgizv_pad-10" x="122500" y="-89500"/><use xlink:href="#hbRkJn9VH7cE-c6Cgizv_pad-10" x="124500" y="-89500"/><use xlink:href="#hbRkJn9VH7cE-c6Cgizv_pad-10" x="126500" y="-89500"/><use xlink:href="#hbRkJn9VH7cE-c6Cgizv_pad-10" x="128500" y="-89500"/><use xlink:href="#hbRkJn9VH7cE-c6Cgizv_pad-11" x="137500" y="-91100"/><use xlink:href="#hbRkJn9VH7cE-c6Cgizv_pad-11" x="137500" y="-92900"/><use xlink:href="#hbRkJn9VH7cE-c6Cgizv_pad-12" x="135450" y="-89050"/><use xlink:href="#hbRkJn9VH7cE-c6Cgizv_pad-12" x="134800" y="-89050"/><use xlink:href="#hbRkJn9VH7cE-c6Cgizv_pad-12" x="134150" y="-89050"/><use xlink:href="#hbRkJn9VH7cE-c6Cgizv_pad-12" x="133500" y="-89050"/><use xlink:href="#hbRkJn9VH7cE-c6Cgizv_pad-12" x="132850" y="-89050"/><use xlink:href="#hbRkJn9VH7cE-c6Cgizv_pad-12" x="132200" y="-89050"/><use xlink:href="#hbRkJn9VH7cE-c6Cgizv_pad-12" x="131550" y="-89050"/><use xlink:href="#hbRkJn9VH7cE-c6Cgizv_pad-12" x="131550" y="-94950"/><use xlink:href="#hbRkJn9VH7cE-c6Cgizv_pad-12" x="132200" y="-94950"/><use xlink:href="#hbRkJn9VH7cE-c6Cgizv_pad-12" x="132850" y="-94950"/><use xlink:href="#hbRkJn9VH7cE-c6Cgizv_pad-12" x="133500" y="-94950"/><use xlink:href="#hbRkJn9VH7cE-c6Cgizv_pad-12" x="134150" y="-94950"/><use xlink:href="#hbRkJn9VH7cE-c6Cgizv_pad-12" x="134800" y="-94950"/><use xlink:href="#hbRkJn9VH7cE-c6Cgizv_pad-12" x="135450" y="-94950"/><use xlink:href="#hbRkJn9VH7cE-c6Cgizv_pad-13" x="140500" y="-92000"/><use xlink:href="#hbRkJn9VH7cE-c6Cgizv_pad-10" x="120500" y="-89500"/><use xlink:href="#hbRkJn9VH7cE-c6Cgizv_pad-14" x="96000" y="-94000"/><use xlink:href="#hbRkJn9VH7cE-c6Cgizv_pad-14" x="100000" y="-94000"/><use xlink:href="#hbRkJn9VH7cE-c6Cgizv_pad-14" x="104000" y="-94000"/><use xlink:href="#hbRkJn9VH7cE-c6Cgizv_pad-14" x="108000" y="-90550"/><use xlink:href="#hbRkJn9VH7cE-c6Cgizv_pad-14" x="108000" y="-94000"/><use xlink:href="#hbRkJn9VH7cE-c6Cgizv_pad-14" x="112000" y="-94000"/><use xlink:href="#hbRkJn9VH7cE-c6Cgizv_pad-14" x="116000" y="-94000"/><use xlink:href="#hbRkJn9VH7cE-c6Cgizv_pad-14" x="120000" y="-94000"/></g><g id="c46HL0UR7HpWEY1aK2zJ_top_copper"><path d="M 96187.913 -91286.056 96165.056 -91308.914 96096.484 -91331.771 96050.77 -91331.771 95982.199 -91308.914 95936.484 -91263.199 95913.627 -91217.485 95890.77 -91126.056 95890.77 -91057.485 95913.627 -90966.056 95936.484 -90920.342 95982.199 -90874.628 96050.77 -90851.771 96096.484 -90851.771 96165.056 -90874.628 96187.913 -90897.485 M 96325.056 -90851.771 96599.342 -90851.771 M 96462.199 -91331.771 96462.199 -90851.771 M 97033.627 -91331.771 96873.627 -91103.199 M 96759.341 -91331.771 96759.341 -90851.771 96942.198 -90851.771 96987.913 -90874.628 97010.77 -90897.485 97033.627 -90943.199 97033.627 -91011.771 97010.77 -91057.485 96987.913 -91080.342 96942.198 -91103.199 96759.341 -91103.199 M 97467.913 -91331.771 97239.341 -91331.771 97239.341 -90851.771 M 97902.198 -91331.771 97742.198 -91103.199 M 97627.912 -91331.771 97627.912 -90851.771 97810.769 -90851.771 97856.484 -90874.628 97879.341 -90897.485 97902.198 -90943.199 97902.198 -91011.771 97879.341 -91057.485 97856.484 -91080.342 97810.769 -91103.199 97627.912 -91103.199 M 98107.912 -91331.771 98107.912 -90851.771 98290.769 -90851.771 98336.484 -90874.628 98359.341 -90897.485 98382.198 -90943.199 98382.198 -91011.771 98359.341 -91057.485 98336.484 -91080.342 98290.769 -91103.199 98107.912 -91103.199 M 98862.198 -91286.056 98839.341 -91308.914 98770.769 -91331.771 98725.055 -91331.771 98656.484 -91308.914 98610.769 -91263.199 98587.912 -91217.485 98565.055 -91126.056 98565.055 -91057.485 98587.912 -90966.056 98610.769 -90920.342 98656.484 -90874.628 98725.055 -90851.771 98770.769 -90851.771 98839.341 -90874.628 98862.198 -90897.485 M 99227.912 -91080.342 99296.484 -91103.199 99319.341 -91126.056 99342.198 -91171.771 99342.198 -91240.342 99319.341 -91286.056 99296.484 -91308.914 99250.769 -91331.771 99067.912 -91331.771 99067.912 -90851.771 99227.912 -90851.771 99273.627 -90874.628 99296.484 -90897.485 99319.341 -90943.199 99319.341 -90988.914 99296.484 -91034.628 99273.627 -91057.485 99227.912 -91080.342 99067.912 -91080.342 M 99890.769 -90828.914 99479.341 -91446.056 M 99982.198 -90851.771 100256.484 -90851.771 M 100119.341 -91331.771 100119.341 -90851.771 M 100393.626 -91308.914 100462.198 -91331.771 100576.483 -91331.771 100622.198 -91308.914 100645.055 -91286.056 100667.912 -91240.342 100667.912 -91194.628 100645.055 -91148.914 100622.198 -91126.056 100576.483 -91103.199 100485.055 -91080.342 100439.34 -91057.485 100416.483 -91034.628 100393.626 -90988.914 100393.626 -90943.199 100416.483 -90897.485 100439.34 -90874.628 100485.055 -90851.771 100599.34 -90851.771 100667.912 -90874.628 M 100850.769 -91308.914 100919.341 -91331.771 101033.626 -91331.771 101079.341 -91308.914 101102.198 -91286.056 101125.055 -91240.342 101125.055 -91194.628 101102.198 -91148.914 101079.341 -91126.056 101033.626 -91103.199 100942.198 -91080.342 100896.483 -91057.485 100873.626 -91034.628 100850.769 -90988.914 100850.769 -90943.199 100873.626 -90897.485 100896.483 -90874.628 100942.198 -90851.771 101056.483 -90851.771 101125.055 -90874.628 M 101422.198 -90851.771 101513.626 -90851.771 101559.341 -90874.628 101605.055 -90920.342 101627.912 -91011.771 101627.912 -91171.771 101605.055 -91263.199 101559.341 -91308.914 101513.626 -91331.771 101422.198 -91331.771 101376.484 -91308.914 101330.769 -91263.199 101307.912 -91171.771 101307.912 -91011.771 101330.769 -90920.342 101376.484 -90874.628 101422.198 -90851.771 M 101833.626 -91331.771 101833.626 -90851.771 102016.483 -90851.771 102062.198 -90874.628 102085.055 -90897.485 102107.912 -90943.199 102107.912 -91011.771 102085.055 -91057.485 102062.198 -91080.342 102016.483 -91103.199 101833.626 -91103.199 M 102633.626 -91011.771 102747.912 -91331.771 102862.197 -91011.771 M 103227.911 -91308.914 103182.197 -91331.771 103090.769 -91331.771 103045.054 -91308.914 103022.197 -91263.199 103022.197 -91080.342 103045.054 -91034.628 103090.769 -91011.771 103182.197 -91011.771 103227.911 -91034.628 103250.769 -91080.342 103250.769 -91126.056 103022.197 -91171.771 M 103456.483 -91331.771 103456.483 -91011.771 M 103456.483 -91103.199 103479.34 -91057.485 103502.198 -91034.628 103547.912 -91011.771 103593.626 -91011.771 M 103730.769 -91308.914 103776.483 -91331.771 103867.912 -91331.771 103913.626 -91308.914 103936.483 -91263.199 103936.483 -91240.342 103913.626 -91194.628 103867.912 -91171.771 103799.341 -91171.771 103753.626 -91148.914 103730.769 -91103.199 103730.769 -91080.342 103753.626 -91034.628 103799.341 -91011.771 103867.912 -91011.771 103913.626 -91034.628 M 104142.197 -91331.771 104142.197 -91011.771 M 104142.197 -90851.771 104119.34 -90874.628 104142.197 -90897.485 104165.054 -90874.628 104142.197 -90851.771 104142.197 -90897.485 M 104439.34 -91331.771 104393.625 -91308.914 104370.768 -91286.056 104347.911 -91240.342 104347.911 -91103.199 104370.768 -91057.485 104393.625 -91034.628 104439.34 -91011.771 104507.911 -91011.771 104553.625 -91034.628 104576.483 -91057.485 104599.34 -91103.199 104599.34 -91240.342 104576.483 -91286.056 104553.625 -91308.914 104507.911 -91331.771 104439.34 -91331.771 M 104805.054 -91011.771 104805.054 -91331.771 M 104805.054 -91057.485 104827.911 -91034.628 104873.626 -91011.771 104942.197 -91011.771 104987.911 -91034.628 105010.769 -91080.342 105010.769 -91331.771 M 96119.342 -91784.544 96119.342 -92173.115 96096.484 -92218.829 96073.627 -92241.687 96027.913 -92264.544 95959.342 -92264.544 95913.627 -92241.687 M 96119.342 -92081.687 96073.627 -92104.544 95982.199 -92104.544 95936.484 -92081.687 95913.627 -92058.829 95890.77 -92013.115 95890.77 -91875.972 95913.627 -91830.258 95936.484 -91807.401 95982.199 -91784.544 96073.627 -91784.544 96119.342 -91807.401 M 96347.913 -92104.544 96347.913 -91784.544 M 96347.913 -91624.544 96325.056 -91647.401 96347.913 -91670.258 96370.77 -91647.401 96347.913 -91624.544 96347.913 -91670.258 M 96507.913 -91784.544 96690.77 -91784.544 M 96576.484 -91624.544 96576.484 -92035.972 96599.341 -92081.687 96645.056 -92104.544 96690.77 -92104.544 M 96850.77 -92104.544 96850.77 -91624.544 M 97056.485 -92104.544 97056.485 -91853.115 97033.627 -91807.401 96987.913 -91784.544 96919.342 -91784.544 96873.627 -91807.401 96850.77 -91830.258 M 97490.771 -91784.544 97490.771 -92104.544 M 97285.056 -91784.544 97285.056 -92035.972 97307.913 -92081.687 97353.628 -92104.544 97422.199 -92104.544 97467.913 -92081.687 97490.771 -92058.829 M 97719.342 -92104.544 97719.342 -91624.544 M 97719.342 -91807.401 97765.057 -91784.544 97856.485 -91784.544 97902.199 -91807.401 97925.057 -91830.258 97947.914 -91875.972 97947.914 -92013.115 97925.057 -92058.829 97902.199 -92081.687 97856.485 -92104.544 97765.057 -92104.544 97719.342 -92081.687 M 98153.628 -92058.829 98176.485 -92081.687 98153.628 -92104.544 98130.771 -92081.687 98153.628 -92058.829 98153.628 -92104.544 M 98587.914 -92081.687 98542.199 -92104.544 98450.771 -92104.544 98405.056 -92081.687 98382.199 -92058.829 98359.342 -92013.115 98359.342 -91875.972 98382.199 -91830.258 98405.056 -91807.401 98450.771 -91784.544 98542.199 -91784.544 98587.914 -91807.401 M 98862.2 -92104.544 98816.485 -92081.687 98793.628 -92058.829 98770.771 -92013.115 98770.771 -91875.972 98793.628 -91830.258 98816.485 -91807.401 98862.2 -91784.544 98930.771 -91784.544 98976.485 -91807.401 98999.343 -91830.258 99022.2 -91875.972 99022.2 -92013.115 98999.343 -92058.829 98976.485 -92081.687 98930.771 -92104.544 98862.2 -92104.544 M 99227.914 -92104.544 99227.914 -91784.544 M 99227.914 -91830.258 99250.771 -91807.401 99296.486 -91784.544 99365.057 -91784.544 99410.771 -91807.401 99433.629 -91853.115 99433.629 -92104.544 M 99433.629 -91853.115 99456.486 -91807.401 99502.2 -91784.544 99570.771 -91784.544 99616.486 -91807.401 99639.343 -91853.115 99639.343 -92104.544 M 100210.771 -91601.687 99799.343 -92218.829 M 100370.771 -91784.544 100370.771 -92195.972 100347.914 -92241.687 100302.2 -92264.544 100279.343 -92264.544 M 100370.771 -91624.544 100347.914 -91647.401 100370.771 -91670.258 100393.628 -91647.401 100370.771 -91624.544 100370.771 -91670.258 M 100599.342 -91784.544 100599.342 -92104.544 M 100599.342 -91830.258 100622.199 -91807.401 100667.914 -91784.544 100736.485 -91784.544 100782.199 -91807.401 100805.057 -91853.115 100805.057 -92104.544 M 100965.057 -91784.544 101147.914 -91784.544 M 101033.628 -92104.544 101033.628 -91693.115 101056.485 -91647.401 101102.2 -91624.544 101147.914 -91624.544 M 101239.343 -91784.544 101422.2 -91784.544 M 101307.914 -91624.544 101307.914 -92035.972 101330.771 -92081.687 101376.486 -92104.544 101422.2 -92104.544 M 101765.057 -92081.687 101719.343 -92104.544 101627.915 -92104.544 101582.2 -92081.687 101559.343 -92035.972 101559.343 -91853.115 101582.2 -91807.401 101627.915 -91784.544 101719.343 -91784.544 101765.057 -91807.401 101787.915 -91853.115 101787.915 -91898.829 101559.343 -91944.544 M 102199.344 -92081.687 102153.629 -92104.544 102062.201 -92104.544 102016.486 -92081.687 101993.629 -92058.829 101970.772 -92013.115 101970.772 -91875.972 101993.629 -91830.258 102016.486 -91807.401 102062.201 -91784.544 102153.629 -91784.544 102199.344 -91807.401 M 102405.058 -92104.544 102405.058 -91624.544 M 102610.773 -92104.544 102610.773 -91853.115 102587.915 -91807.401 102542.201 -91784.544 102473.63 -91784.544 102427.915 -91807.401 102405.058 -91830.258 M 103182.201 -91670.258 103205.058 -91647.401 103250.773 -91624.544 103365.058 -91624.544 103410.773 -91647.401 103433.63 -91670.258 103456.487 -91715.972 103456.487 -91761.687 103433.63 -91830.258 103159.344 -92104.544 103456.487 -92104.544 M 103753.63 -91624.544 103799.344 -91624.544 103845.058 -91647.401 103867.916 -91670.258 103890.773 -91715.972 103913.63 -91807.401 103913.63 -91921.687 103890.773 -92013.115 103867.916 -92058.829 103845.058 -92081.687 103799.344 -92104.544 103753.63 -92104.544 103707.916 -92081.687 103685.058 -92058.829 103662.201 -92013.115 103639.344 -91921.687 103639.344 -91807.401 103662.201 -91715.972 103685.058 -91670.258 103707.916 -91647.401 103753.63 -91624.544 M 104096.487 -91670.258 104119.344 -91647.401 104165.059 -91624.544 104279.344 -91624.544 104325.059 -91647.401 104347.916 -91670.258 104370.773 -91715.972 104370.773 -91761.687 104347.916 -91830.258 104073.63 -92104.544 104370.773 -92104.544 M 104530.773 -91624.544 104827.916 -91624.544 104667.916 -91807.401 104736.487 -91807.401 104782.202 -91830.258 104805.059 -91853.115 104827.916 -91898.829 104827.916 -92013.115 104805.059 -92058.829 104782.202 -92081.687 104736.487 -92104.544 104599.344 -92104.544 104553.63 -92081.687 104530.773 -92058.829 M 105125.059 -91624.544 105170.773 -91624.544 105216.487 -91647.401 105239.345 -91670.258 105262.202 -91715.972 105285.059 -91807.401 105285.059 -91921.687 105262.202 -92013.115 105239.345 -92058.829 105216.487 -92081.687 105170.773 -92104.544 105125.059 -92104.544 105079.345 -92081.687 105056.487 -92058.829 105033.63 -92013.115 105010.773 -91921.687 105010.773 -91807.401 105033.63 -91715.972 105056.487 -91670.258 105079.345 -91647.401 105125.059 -91624.544 M 105467.916 -91670.258 105490.773 -91647.401 105536.488 -91624.544 105650.773 -91624.544 105696.488 -91647.401 105719.345 -91670.258 105742.202 -91715.972 105742.202 -91761.687 105719.345 -91830.258 105445.059 -92104.544 105742.202 -92104.544 M 106199.345 -92104.544 105925.059 -92104.544 M 106062.202 -92104.544 106062.202 -91624.544 106016.488 -91693.115 105970.773 -91738.829 105925.059 -91761.687 M 106382.202 -91670.258 106405.059 -91647.401 106450.774 -91624.544 106565.059 -91624.544 106610.774 -91647.401 106633.631 -91670.258 106656.488 -91715.972 106656.488 -91761.687 106633.631 -91830.258 106359.345 -92104.544 106656.488 -92104.544" fill="none" stroke-width="75"/><path d="M 121833.334 -90369.109 122000 -90869.109 122166.667 -90369.109 M 122333.333 -90869.109 122333.333 -90369.109 122452.381 -90369.109 122523.809 -90392.919 122571.428 -90440.538 122595.238 -90488.157 122619.047 -90583.395 122619.047 -90654.823 122595.238 -90750.061 122571.428 -90797.68 122523.809 -90845.3 122452.381 -90869.109 122333.333 -90869.109 M 122833.333 -90869.109 122833.333 -90369.109 122952.381 -90369.109 123023.809 -90392.919 123071.428 -90440.538 123095.238 -90488.157 123119.047 -90583.395 123119.047 -90654.823 123095.238 -90750.061 123071.428 -90797.68 123023.809 -90845.3 122952.381 -90869.109 122833.333 -90869.109" fill="none" stroke-width="100"/><path d="M 123857.144 -90369.109 124023.81 -90869.109 124190.477 -90369.109 M 124333.334 -90845.3 124404.762 -90869.109 124523.81 -90869.109 124571.429 -90845.3 124595.238 -90821.49 124619.048 -90773.871 124619.048 -90726.252 124595.238 -90678.633 124571.429 -90654.823 124523.81 -90631.014 124428.572 -90607.204 124380.953 -90583.395 124357.143 -90559.585 124333.334 -90511.966 124333.334 -90464.347 124357.143 -90416.728 124380.953 -90392.919 124428.572 -90369.109 124547.619 -90369.109 124619.048 -90392.919 M 124809.524 -90845.3 124880.952 -90869.109 125000 -90869.109 125047.619 -90845.3 125071.428 -90821.49 125095.238 -90773.871 125095.238 -90726.252 125071.428 -90678.633 125047.619 -90654.823 125000 -90631.014 124904.762 -90607.204 124857.143 -90583.395 124833.333 -90559.585 124809.524 -90511.966 124809.524 -90464.347 124833.333 -90416.728 124857.143 -90392.919 124904.762 -90369.109 125023.809 -90369.109 125095.238 -90392.919" fill="none" stroke-width="100"/><path d="M 125964.286 -90869.109 125964.286 -90369.109 126083.334 -90369.109 126154.762 -90392.919 126202.381 -90440.538 126226.191 -90488.157 126250 -90583.395 126250 -90654.823 126226.191 -90750.061 126202.381 -90797.68 126154.762 -90845.3 126083.334 -90869.109 125964.286 -90869.109 M 126440.477 -90726.252 126678.572 -90726.252 M 126392.858 -90869.109 126559.524 -90369.109 126726.191 -90869.109 M 126821.429 -90369.109 127107.143 -90369.109 M 126964.286 -90869.109 126964.286 -90369.109" fill="none" stroke-width="100"/><path d="M 128202.38 -90821.49 128178.571 -90845.3 128107.142 -90869.109 128059.523 -90869.109 127988.095 -90845.3 127940.476 -90797.68 127916.666 -90750.061 127892.857 -90654.823 127892.857 -90583.395 127916.666 -90488.157 127940.476 -90440.538 127988.095 -90392.919 128059.523 -90369.109 128107.142 -90369.109 128178.571 -90392.919 128202.38 -90416.728 M 128654.761 -90869.109 128416.666 -90869.109 128416.666 -90369.109 M 128821.428 -90869.109 128821.428 -90369.109 M 129107.142 -90869.109 128892.857 -90583.395 M 129107.142 -90369.109 128821.428 -90654.823" fill="none" stroke-width="100"/><path d="M 119833.334 -90369.109 120000 -90869.109 120166.667 -90369.109 M 120333.333 -90869.109 120333.333 -90369.109 120523.809 -90369.109 120571.428 -90392.919 120595.238 -90416.728 120619.047 -90464.347 120619.047 -90535.776 120595.238 -90583.395 120571.428 -90607.204 120523.809 -90631.014 120333.333 -90631.014 M 120833.333 -90869.109 120833.333 -90369.109 121023.809 -90369.109 121071.428 -90392.919 121095.238 -90416.728 121119.047 -90464.347 121119.047 -90535.776 121095.238 -90583.395 121071.428 -90607.204 121023.809 -90631.014 120833.333 -90631.014" fill="none" stroke-width="100"/><path d="M 95492.125 -91320.839 95340.178 -91320.839 95340.178 -91173.428 95492.125 -91173.428 95492.125 -91320.839" fill="none" stroke-width="10"/><path d="M 95492.125 -91320.839 95340.178 -91320.839 95340.178 -91173.428 95492.125 -91173.428 95492.125 -91320.839"/><path d="M 95490.991 -90882.008 95491.589 -90956.281 95492.187 -91030.553 95285.75 -91030.553 95285.782 -91393.977 95285.8 -91437.716 95285.845 -91480.118 95285.916 -91520.937 95286.011 -91559.929 95286.129 -91596.849 95286.269 -91631.454 95286.429 -91663.498 95286.609 -91692.737 95286.806 -91718.926 95287.019 -91741.821 95287.247 -91761.178 95287.488 -91776.752 95287.742 -91788.299 95288.006 -91795.573 95288.027 -91795.955 95290.656 -91831.148 95294.269 -91862.5 95298.842 -91889.88 95304.351 -91913.156 95310.771 -91932.197 95315.495 -91942.382 95326.643 -91958.511 95341.52 -91972.087 95360.095 -91983.097 95382.339 -91991.532 95408.224 -91997.378 95437.72 -92000.623 95460.92 -92001.343 95492.192 -92001.414 95491.591 -92068.774 95490.991 -92136.133 95470.58 -92136.836 95460.088 -92136.911 95446.822 -92136.588 95432.52 -92135.929 95419.553 -92135.046 95380.056 -92130.342 95344.106 -92122.928 95311.577 -92112.76 95282.346 -92099.789 95256.287 -92083.971 95234.977 -92066.837 95215.656 -92046.172 95198.361 -92021.46 95183.098 -91992.712 95169.871 -91959.939 95158.685 -91923.155 95149.544 -91882.371 95142.455 -91837.6 95141.363 -91828.839 95140.856 -91824.295 95140.392 -91819.382 95139.969 -91813.882 95139.584 -91807.578 95139.236 -91800.25 95138.922 -91791.683 95138.639 -91781.656 95138.384 -91769.954 95138.156 -91756.356 95137.952 -91740.647 95137.769 -91722.607 95137.605 -91702.019 95137.457 -91678.665 95137.323 -91652.328 95137.201 -91622.788 95137.088 -91589.828 95136.981 -91553.23 95136.879 -91512.777 95136.778 -91468.25 95136.676 -91419.432 95136.664 -91413.254 95135.898 -91030.553 95079.384 -91030.553 95078.812 -91576.54 95078.241 -92122.526 95003.968 -92123.124 94929.696 -92123.722 94929.696 -91030.553 94866.369 -91030.553 94865.603 -91413.254 94865.503 -91463.703 94865.41 -91509.844 94865.315 -91551.904 94865.213 -91590.109 94865.095 -91624.688 94864.954 -91655.867 94864.784 -91683.874 94864.577 -91708.935 94864.325 -91731.279 94864.022 -91751.132 94863.661 -91768.721 94863.233 -91784.274 94862.732 -91798.019 94862.151 -91810.181 94861.482 -91820.988 94860.719 -91830.669 94859.853 -91839.449 94858.878 -91847.556 94857.787 -91855.217 94856.571 -91862.66 94855.225 -91870.111 94853.741 -91877.799 94852.111 -91885.949 94850.329 -91894.79 94850.279 -91895.035 94841.189 -91933.468 94830.128 -91967.93 94817.028 -91998.568 94801.818 -92025.528 94784.428 -92048.959 94769.83 -92064.384 94748.038 -92082.665 94723.999 -92098.13 94697.44 -92110.868 94668.086 -92120.974 94635.662 -92128.537 94599.894 -92133.651 94560.507 -92136.406 94553.799 -92136.636 94510.143 -92137.93 94510.143 -92001.164 94525.451 -92002.541 94537.915 -92002.953 94553.324 -92002.394 94570.222 -92001.003 94587.156 -91998.918 94602.671 -91996.278 94611.255 -91994.343 94632.363 -91987.802 94650.159 -91979.6 94664.996 -91969.32 94677.232 -91956.541 94687.219 -91940.844 94695.315 -91921.808 94701.874 -91899.013 94705.237 -91883.267 94706.43 -91876.999 94707.522 -91871.032 94708.517 -91865.148 94709.42 -91859.13 94710.237 -91852.759 94710.972 -91845.815 94711.63 -91838.081 94712.217 -91829.337 94712.737 -91819.367 94713.196 -91807.95 94713.598 -91794.868 94713.948 -91779.904 94714.252 -91762.838 94714.515 -91743.451 94714.741 -91721.526 94714.936 -91696.844 94715.104 -91669.186 94715.251 -91638.334 94715.381 -91604.07 94715.501 -91566.174 94715.614 -91524.428 94715.725 -91478.614 94715.84 -91428.513 94715.857 -91421.191 94716.743 -91030.553 94510.143 -91030.553 94510.143 -90880.864 95490.991 -90882.008" fill="none" stroke-width="10"/><path d="M 95490.991 -90882.008 95491.589 -90956.281 95492.187 -91030.553 95285.75 -91030.553 95285.782 -91393.977 95285.8 -91437.716 95285.845 -91480.118 95285.916 -91520.937 95286.011 -91559.929 95286.129 -91596.849 95286.269 -91631.454 95286.429 -91663.498 95286.609 -91692.737 95286.806 -91718.926 95287.019 -91741.821 95287.247 -91761.178 95287.488 -91776.752 95287.742 -91788.299 95288.006 -91795.573 95288.027 -91795.955 95290.656 -91831.148 95294.269 -91862.5 95298.842 -91889.88 95304.351 -91913.156 95310.771 -91932.197 95315.495 -91942.382 95326.643 -91958.511 95341.52 -91972.087 95360.095 -91983.097 95382.339 -91991.532 95408.224 -91997.378 95437.72 -92000.623 95460.92 -92001.343 95492.192 -92001.414 95491.591 -92068.774 95490.991 -92136.133 95470.58 -92136.836 95460.088 -92136.911 95446.822 -92136.588 95432.52 -92135.929 95419.553 -92135.046 95380.056 -92130.342 95344.106 -92122.928 95311.577 -92112.76 95282.346 -92099.789 95256.287 -92083.971 95234.977 -92066.837 95215.656 -92046.172 95198.361 -92021.46 95183.098 -91992.712 95169.871 -91959.939 95158.685 -91923.155 95149.544 -91882.371 95142.455 -91837.6 95141.363 -91828.839 95140.856 -91824.295 95140.392 -91819.382 95139.969 -91813.882 95139.584 -91807.578 95139.236 -91800.25 95138.922 -91791.683 95138.639 -91781.656 95138.384 -91769.954 95138.156 -91756.356 95137.952 -91740.647 95137.769 -91722.607 95137.605 -91702.019 95137.457 -91678.665 95137.323 -91652.328 95137.201 -91622.788 95137.088 -91589.828 95136.981 -91553.23 95136.879 -91512.777 95136.778 -91468.25 95136.676 -91419.432 95136.664 -91413.254 95135.898 -91030.553 95079.384 -91030.553 95078.812 -91576.54 95078.241 -92122.526 95003.968 -92123.124 94929.696 -92123.722 94929.696 -91030.553 94866.369 -91030.553 94865.603 -91413.254 94865.503 -91463.703 94865.41 -91509.844 94865.315 -91551.904 94865.213 -91590.109 94865.095 -91624.688 94864.954 -91655.867 94864.784 -91683.874 94864.577 -91708.935 94864.325 -91731.279 94864.022 -91751.132 94863.661 -91768.721 94863.233 -91784.274 94862.732 -91798.019 94862.151 -91810.181 94861.482 -91820.988 94860.719 -91830.669 94859.853 -91839.449 94858.878 -91847.556 94857.787 -91855.217 94856.571 -91862.66 94855.225 -91870.111 94853.741 -91877.799 94852.111 -91885.949 94850.329 -91894.79 94850.279 -91895.035 94841.189 -91933.468 94830.128 -91967.93 94817.028 -91998.568 94801.818 -92025.528 94784.428 -92048.959 94769.83 -92064.384 94748.038 -92082.665 94723.999 -92098.13 94697.44 -92110.868 94668.086 -92120.974 94635.662 -92128.537 94599.894 -92133.651 94560.507 -92136.406 94553.799 -92136.636 94510.143 -92137.93 94510.143 -92001.164 94525.451 -92002.541 94537.915 -92002.953 94553.324 -92002.394 94570.222 -92001.003 94587.156 -91998.918 94602.671 -91996.278 94611.255 -91994.343 94632.363 -91987.802 94650.159 -91979.6 94664.996 -91969.32 94677.232 -91956.541 94687.219 -91940.844 94695.315 -91921.808 94701.874 -91899.013 94705.237 -91883.267 94706.43 -91876.999 94707.522 -91871.032 94708.517 -91865.148 94709.42 -91859.13 94710.237 -91852.759 94710.972 -91845.815 94711.63 -91838.081 94712.217 -91829.337 94712.737 -91819.367 94713.196 -91807.95 94713.598 -91794.868 94713.948 -91779.904 94714.252 -91762.838 94714.515 -91743.451 94714.741 -91721.526 94714.936 -91696.844 94715.104 -91669.186 94715.251 -91638.334 94715.381 -91604.07 94715.501 -91566.174 94715.614 -91524.428 94715.725 -91478.614 94715.84 -91428.513 94715.857 -91421.191 94716.743 -91030.553 94510.143 -91030.553 94510.143 -90880.864 95490.991 -90882.008"/><path d="M 111607.886 -89287.761 111609.827 -89288.176 111613.918 -89289.028 111619.821 -89290.246 111627.196 -89291.761 111635.705 -89293.503 111645.01 -89295.403 111647.575 -89295.926 111681.098 -89302.996 111716.775 -89310.974 111754.409 -89319.807 111793.802 -89329.442 111834.758 -89339.825 111877.079 -89350.903 111920.568 -89362.623 111965.028 -89374.931 112010.262 -89387.774 112056.073 -89401.099 112102.263 -89414.852 112148.636 -89428.98 112194.994 -89443.43 112208.28 -89447.632 112240.872 -89458.067 112271.201 -89467.974 112299.47 -89477.433 112325.883 -89486.522 112350.643 -89495.318 112373.955 -89503.901 112396.02 -89512.348 112417.043 -89520.738 112437.228 -89529.149 112456.778 -89537.661 112475.896 -89546.35 112494.786 -89555.295 112513.651 -89564.575 112518.795 -89567.162 112535.578 -89575.747 112550.551 -89583.652 112564.245 -89591.183 112577.188 -89598.647 112589.913 -89606.351 112602.948 -89614.6 112616.825 -89623.701 112617.855 -89624.386 112650.33 -89647.302 112680.503 -89671.254 112708.42 -89696.302 112734.124 -89722.511 112757.661 -89749.942 112779.076 -89778.659 112798.412 -89808.723 112815.716 -89840.197 112831.031 -89873.144 112844.403 -89907.626 112855.876 -89943.706 112861.504 -89964.695 112867.178 -89988.657 112872.12 -90012.553 112876.374 -90036.735 112879.983 -90061.553 112882.992 -90087.36 112885.446 -90114.506 112887.388 -90143.343 112888.863 -90174.221 112889.248 -90184.723 112889.982 -90226.709 112889.236 -90266.715 112886.996 -90304.836 112883.252 -90341.162 112877.991 -90375.789 112871.201 -90408.807 112862.87 -90440.311 112852.986 -90470.393 112851.911 -90473.33 112849.261 -90480.079 112845.77 -90488.363 112841.755 -90497.457 112837.537 -90506.638 112833.719 -90514.605 112824.682 -90532.27 112815.826 -90547.963 112806.793 -90562.192 112797.224 -90575.466 112786.761 -90588.295 112775.046 -90601.189 112767.125 -90609.31 112749.749 -90625.703 112732.423 -90639.901 112714.699 -90652.199 112696.128 -90662.891 112676.263 -90672.274 112664.21 -90677.142 112642.807 -90684.383 112620.867 -90689.909 112598.005 -90693.786 112573.838 -90696.078 112547.981 -90696.849 112547.37 -90696.85 112522.017 -90696.119 112496.804 -90693.886 112471.479 -90690.09 112445.791 -90684.669 112419.49 -90677.563 112392.324 -90668.709 112364.044 -90658.048 112334.398 -90645.517 112331.179 -90644.083 112320.093 -90639.121 112319.684 -90237.773 112319.646 -90199.429 112319.612 -90163.538 112319.579 -90130.014 112319.548 -90098.771 112319.515 -90069.721 112319.481 -90042.778 112319.442 -90017.855 112319.399 -89994.866 112319.349 -89973.724 112319.291 -89954.343 112319.224 -89936.636 112319.146 -89920.516 112319.056 -89905.896 112318.952 -89892.691 112318.833 -89880.813 112318.697 -89870.176 112318.543 -89860.694 112318.37 -89852.279 112318.176 -89844.845 112317.959 -89838.306 112317.719 -89832.574 112317.454 -89827.564 112317.161 -89823.189 112316.841 -89819.361 112316.491 -89815.995 112316.11 -89813.004 112315.697 -89810.301 112315.25 -89807.799 112314.767 -89805.413 112314.248 -89803.055 112313.691 -89800.638 112313.094 -89798.077 112312.455 -89795.285 112312.317 -89794.663 112306.828 -89774.425 112299.801 -89756.2 112291.223 -89739.972 112281.082 -89725.721 112269.363 -89713.431 112256.055 -89703.083 112241.143 -89694.661 112238.125 -89693.276 112222.86 -89687.498 112208.495 -89684.088 112195.04 -89683.043 112182.508 -89684.358 112170.91 -89688.03 112160.258 -89694.055 112150.564 -89702.43 112141.84 -89713.149 112134.098 -89726.21 112133.576 -89727.245 112128.082 -89740.106 112123.522 -89754.547 112120.172 -89769.698 112120.163 -89769.75 112119.172 -89775.333 112118.219 -89780.508 112117.477 -89784.344 112117.344 -89784.99 112117.295 -89786.479 112117.244 -89790.446 112117.192 -89796.828 112117.14 -89805.564 112117.086 -89816.592 112117.031 -89829.848 112116.976 -89845.272 112116.92 -89862.8 112116.864 -89882.371 112116.807 -89903.922 112116.75 -89927.391 112116.692 -89952.716 112116.635 -89979.836 112116.577 -90008.686 112116.52 -90039.207 112116.463 -90071.334 112116.406 -90105.007 112116.349 -90140.163 112116.294 -90176.739 112116.238 -90214.674 112116.184 -90253.906 112116.131 -90294.372 112116.078 -90336.01 112116.027 -90378.757 112115.976 -90422.553 112115.927 -90467.333 112115.88 -90513.038 112115.834 -90559.603 112115.789 -90606.967 112115.747 -90655.069 112115.706 -90703.844 112115.669 -90750.83 112114.935 -91712.225 111860.3 -91631.418 111605.665 -91550.61 111605.346 -90418.856 111605.028 -89287.102 111607.886 -89287.761" fill="none" stroke-width="10"/><path d="M 111607.886 -89287.761 111609.827 -89288.176 111613.918 -89289.028 111619.821 -89290.246 111627.196 -89291.761 111635.705 -89293.503 111645.01 -89295.403 111647.575 -89295.926 111681.098 -89302.996 111716.775 -89310.974 111754.409 -89319.807 111793.802 -89329.442 111834.758 -89339.825 111877.079 -89350.903 111920.568 -89362.623 111965.028 -89374.931 112010.262 -89387.774 112056.073 -89401.099 112102.263 -89414.852 112148.636 -89428.98 112194.994 -89443.43 112208.28 -89447.632 112240.872 -89458.067 112271.201 -89467.974 112299.47 -89477.433 112325.883 -89486.522 112350.643 -89495.318 112373.955 -89503.901 112396.02 -89512.348 112417.043 -89520.738 112437.228 -89529.149 112456.778 -89537.661 112475.896 -89546.35 112494.786 -89555.295 112513.651 -89564.575 112518.795 -89567.162 112535.578 -89575.747 112550.551 -89583.652 112564.245 -89591.183 112577.188 -89598.647 112589.913 -89606.351 112602.948 -89614.6 112616.825 -89623.701 112617.855 -89624.386 112650.33 -89647.302 112680.503 -89671.254 112708.42 -89696.302 112734.124 -89722.511 112757.661 -89749.942 112779.076 -89778.659 112798.412 -89808.723 112815.716 -89840.197 112831.031 -89873.144 112844.403 -89907.626 112855.876 -89943.706 112861.504 -89964.695 112867.178 -89988.657 112872.12 -90012.553 112876.374 -90036.735 112879.983 -90061.553 112882.992 -90087.36 112885.446 -90114.506 112887.388 -90143.343 112888.863 -90174.221 112889.248 -90184.723 112889.982 -90226.709 112889.236 -90266.715 112886.996 -90304.836 112883.252 -90341.162 112877.991 -90375.789 112871.201 -90408.807 112862.87 -90440.311 112852.986 -90470.393 112851.911 -90473.33 112849.261 -90480.079 112845.77 -90488.363 112841.755 -90497.457 112837.537 -90506.638 112833.719 -90514.605 112824.682 -90532.27 112815.826 -90547.963 112806.793 -90562.192 112797.224 -90575.466 112786.761 -90588.295 112775.046 -90601.189 112767.125 -90609.31 112749.749 -90625.703 112732.423 -90639.901 112714.699 -90652.199 112696.128 -90662.891 112676.263 -90672.274 112664.21 -90677.142 112642.807 -90684.383 112620.867 -90689.909 112598.005 -90693.786 112573.838 -90696.078 112547.981 -90696.849 112547.37 -90696.85 112522.017 -90696.119 112496.804 -90693.886 112471.479 -90690.09 112445.791 -90684.669 112419.49 -90677.563 112392.324 -90668.709 112364.044 -90658.048 112334.398 -90645.517 112331.179 -90644.083 112320.093 -90639.121 112319.684 -90237.773 112319.646 -90199.429 112319.612 -90163.538 112319.579 -90130.014 112319.548 -90098.771 112319.515 -90069.721 112319.481 -90042.778 112319.442 -90017.855 112319.399 -89994.866 112319.349 -89973.724 112319.291 -89954.343 112319.224 -89936.636 112319.146 -89920.516 112319.056 -89905.896 112318.952 -89892.691 112318.833 -89880.813 112318.697 -89870.176 112318.543 -89860.694 112318.37 -89852.279 112318.176 -89844.845 112317.959 -89838.306 112317.719 -89832.574 112317.454 -89827.564 112317.161 -89823.189 112316.841 -89819.361 112316.491 -89815.995 112316.11 -89813.004 112315.697 -89810.301 112315.25 -89807.799 112314.767 -89805.413 112314.248 -89803.055 112313.691 -89800.638 112313.094 -89798.077 112312.455 -89795.285 112312.317 -89794.663 112306.828 -89774.425 112299.801 -89756.2 112291.223 -89739.972 112281.082 -89725.721 112269.363 -89713.431 112256.055 -89703.083 112241.143 -89694.661 112238.125 -89693.276 112222.86 -89687.498 112208.495 -89684.088 112195.04 -89683.043 112182.508 -89684.358 112170.91 -89688.03 112160.258 -89694.055 112150.564 -89702.43 112141.84 -89713.149 112134.098 -89726.21 112133.576 -89727.245 112128.082 -89740.106 112123.522 -89754.547 112120.172 -89769.698 112120.163 -89769.75 112119.172 -89775.333 112118.219 -89780.508 112117.477 -89784.344 112117.344 -89784.99 112117.295 -89786.479 112117.244 -89790.446 112117.192 -89796.828 112117.14 -89805.564 112117.086 -89816.592 112117.031 -89829.848 112116.976 -89845.272 112116.92 -89862.8 112116.864 -89882.371 112116.807 -89903.922 112116.75 -89927.391 112116.692 -89952.716 112116.635 -89979.836 112116.577 -90008.686 112116.52 -90039.207 112116.463 -90071.334 112116.406 -90105.007 112116.349 -90140.163 112116.294 -90176.739 112116.238 -90214.674 112116.184 -90253.906 112116.131 -90294.372 112116.078 -90336.01 112116.027 -90378.757 112115.976 -90422.553 112115.927 -90467.333 112115.88 -90513.038 112115.834 -90559.603 112115.789 -90606.967 112115.747 -90655.069 112115.706 -90703.844 112115.669 -90750.83 112114.935 -91712.225 111860.3 -91631.418 111605.665 -91550.61 111605.346 -90418.856 111605.028 -89287.102 111607.886 -89287.761"/><path d="M 111503.766 -90657.453 111503.899 -90661.08 111504.026 -90666.931 111504.146 -90674.851 111504.257 -90684.681 111504.358 -90696.265 111504.449 -90709.444 111504.527 -90724.062 111504.592 -90739.96 111504.643 -90756.983 111504.678 -90774.972 111504.697 -90793.77 111504.7 -90804.485 111504.7 -90952.761 111436.437 -90977.152 111425.613 -90981.02 111412.669 -90985.648 111397.875 -90990.938 111381.502 -90996.793 111363.82 -91003.118 111345.1 -91009.814 111325.613 -91016.785 111305.63 -91023.935 111285.421 -91031.166 111265.257 -91038.382 111245.409 -91045.485 111232.92 -91049.956 111213.603 -91056.869 111193.924 -91063.912 111174.138 -91070.993 111154.503 -91078.018 111135.276 -91084.897 111116.714 -91091.538 111099.073 -91097.848 111082.612 -91103.735 111067.587 -91109.108 111054.256 -91113.875 111042.875 -91117.943 111036.07 -91120.375 111023.778 -91124.774 111011.915 -91129.034 111000.753 -91133.058 110990.566 -91136.744 110981.627 -91139.995 110974.21 -91142.71 110968.588 -91144.791 110965.035 -91146.138 110964.622 -91146.301 110949.15 -91153.039 110935.436 -91160.206 110923.594 -91167.703 110913.736 -91175.433 110905.976 -91183.299 110900.427 -91191.202 110897.201 -91199.045 110896.37 -91205.333 110897.612 -91213.268 110901.302 -91220.747 110907.383 -91227.74 110915.799 -91234.219 110926.493 -91240.152 110939.409 -91245.512 110954.49 -91250.268 110971.681 -91254.391 110990.924 -91257.852 110999.24 -91259.052 111008.041 -91259.971 111018.919 -91260.677 111031.421 -91261.172 111045.092 -91261.458 111059.48 -91261.537 111074.13 -91261.413 111088.589 -91261.087 111102.402 -91260.561 111115.117 -91259.838 111126.279 -91258.921 111131.224 -91258.379 111163.073 -91253.842 111192.712 -91248.233 111220.243 -91241.532 111231.15 -91238.402 111234.327 -91237.372 111239.705 -91235.537 111247.102 -91232.963 111256.332 -91229.715 111267.212 -91225.859 111279.559 -91221.46 111293.186 -91216.585 111307.912 -91211.299 111323.551 -91205.667 111339.92 -91199.756 111356.834 -91193.63 111366.405 -91190.156 111383.405 -91183.983 111399.864 -91178.009 111415.608 -91172.298 111430.463 -91166.911 111444.255 -91161.914 111456.81 -91157.367 111467.954 -91153.335 111477.513 -91149.88 111485.314 -91147.065 111491.182 -91144.954 111494.943 -91143.608 111496.133 -91143.189 111504.711 -91140.227 111504.388 -91273.139 111504.065 -91406.052 111479.3 -91410.21 111429.195 -91418.036 111380.707 -91424.389 111333.403 -91429.299 111286.851 -91432.797 111240.621 -91434.913 111194.28 -91435.676 111147.396 -91435.117 111130.05 -91434.589 111068.36 -91431.2 111006.272 -91425.384 110944.012 -91417.173 110881.807 -91406.603 110819.885 -91393.706 110766.195 -91380.561 110749.751 -91376.146 110732.456 -91371.311 110714.644 -91366.163 110696.649 -91360.805 110678.802 -91355.343 110661.439 -91349.881 110644.893 -91344.524 110629.496 -91339.377 110615.583 -91334.544 110603.487 -91330.131 110594.11 -91326.475 110569.158 -91315.528 110546.091 -91303.807 110524.956 -91291.377 110505.799 -91278.303 110488.669 -91264.648 110473.612 -91250.477 110460.675 -91235.856 110449.906 -91220.847 110441.352 -91205.517 110435.06 -91189.929 110431.078 -91174.148 110429.452 -91158.238 110430.231 -91142.264 110433.46 -91126.291 110438 -91113.166 110443.362 -91102.04 110450.238 -91091.108 110458.723 -91080.293 110468.916 -91069.518 110480.915 -91058.704 110494.817 -91047.775 110510.719 -91036.653 110528.72 -91025.261 110548.916 -91013.522 110571.406 -91001.358 110592.84 -90990.406 110617.73 -90978.286 110642.675 -90966.767 110668.116 -90955.668 110694.49 -90944.805 110722.236 -90933.995 110751.793 -90923.055 110770.005 -90916.555 110774.287 -90915.042 110780.856 -90912.716 110789.602 -90909.615 110800.418 -90905.778 110813.197 -90901.242 110827.831 -90896.047 110844.211 -90890.231 110862.231 -90883.831 110881.783 -90876.886 110902.759 -90869.435 110925.051 -90861.515 110948.551 -90853.164 110973.153 -90844.422 110998.748 -90835.326 111025.229 -90825.914 111052.487 -90816.226 111080.416 -90806.298 111108.907 -90796.169 111137.853 -90785.878 111154.695 -90779.891 111183.398 -90769.686 111211.483 -90759.705 111238.855 -90749.979 111265.418 -90740.543 111291.08 -90731.43 111315.745 -90722.673 111339.319 -90714.306 111361.708 -90706.363 111382.818 -90698.876 111402.553 -90691.879 111420.821 -90685.406 111437.526 -90679.489 111452.575 -90674.164 111465.872 -90669.462 111477.324 -90665.418 111486.836 -90662.064 111494.314 -90659.434 111499.663 -90657.563 111502.789 -90656.482 111503.627 -90656.21 111503.766 -90657.453" fill="none" stroke-width="10"/><path d="M 111503.766 -90657.453 111503.899 -90661.08 111504.026 -90666.931 111504.146 -90674.851 111504.257 -90684.681 111504.358 -90696.265 111504.449 -90709.444 111504.527 -90724.062 111504.592 -90739.96 111504.643 -90756.983 111504.678 -90774.972 111504.697 -90793.77 111504.7 -90804.485 111504.7 -90952.761 111436.437 -90977.152 111425.613 -90981.02 111412.669 -90985.648 111397.875 -90990.938 111381.502 -90996.793 111363.82 -91003.118 111345.1 -91009.814 111325.613 -91016.785 111305.63 -91023.935 111285.421 -91031.166 111265.257 -91038.382 111245.409 -91045.485 111232.92 -91049.956 111213.603 -91056.869 111193.924 -91063.912 111174.138 -91070.993 111154.503 -91078.018 111135.276 -91084.897 111116.714 -91091.538 111099.073 -91097.848 111082.612 -91103.735 111067.587 -91109.108 111054.256 -91113.875 111042.875 -91117.943 111036.07 -91120.375 111023.778 -91124.774 111011.915 -91129.034 111000.753 -91133.058 110990.566 -91136.744 110981.627 -91139.995 110974.21 -91142.71 110968.588 -91144.791 110965.035 -91146.138 110964.622 -91146.301 110949.15 -91153.039 110935.436 -91160.206 110923.594 -91167.703 110913.736 -91175.433 110905.976 -91183.299 110900.427 -91191.202 110897.201 -91199.045 110896.37 -91205.333 110897.612 -91213.268 110901.302 -91220.747 110907.383 -91227.74 110915.799 -91234.219 110926.493 -91240.152 110939.409 -91245.512 110954.49 -91250.268 110971.681 -91254.391 110990.924 -91257.852 110999.24 -91259.052 111008.041 -91259.971 111018.919 -91260.677 111031.421 -91261.172 111045.092 -91261.458 111059.48 -91261.537 111074.13 -91261.413 111088.589 -91261.087 111102.402 -91260.561 111115.117 -91259.838 111126.279 -91258.921 111131.224 -91258.379 111163.073 -91253.842 111192.712 -91248.233 111220.243 -91241.532 111231.15 -91238.402 111234.327 -91237.372 111239.705 -91235.537 111247.102 -91232.963 111256.332 -91229.715 111267.212 -91225.859 111279.559 -91221.46 111293.186 -91216.585 111307.912 -91211.299 111323.551 -91205.667 111339.92 -91199.756 111356.834 -91193.63 111366.405 -91190.156 111383.405 -91183.983 111399.864 -91178.009 111415.608 -91172.298 111430.463 -91166.911 111444.255 -91161.914 111456.81 -91157.367 111467.954 -91153.335 111477.513 -91149.88 111485.314 -91147.065 111491.182 -91144.954 111494.943 -91143.608 111496.133 -91143.189 111504.711 -91140.227 111504.388 -91273.139 111504.065 -91406.052 111479.3 -91410.21 111429.195 -91418.036 111380.707 -91424.389 111333.403 -91429.299 111286.851 -91432.797 111240.621 -91434.913 111194.28 -91435.676 111147.396 -91435.117 111130.05 -91434.589 111068.36 -91431.2 111006.272 -91425.384 110944.012 -91417.173 110881.807 -91406.603 110819.885 -91393.706 110766.195 -91380.561 110749.751 -91376.146 110732.456 -91371.311 110714.644 -91366.163 110696.649 -91360.805 110678.802 -91355.343 110661.439 -91349.881 110644.893 -91344.524 110629.496 -91339.377 110615.583 -91334.544 110603.487 -91330.131 110594.11 -91326.475 110569.158 -91315.528 110546.091 -91303.807 110524.956 -91291.377 110505.799 -91278.303 110488.669 -91264.648 110473.612 -91250.477 110460.675 -91235.856 110449.906 -91220.847 110441.352 -91205.517 110435.06 -91189.929 110431.078 -91174.148 110429.452 -91158.238 110430.231 -91142.264 110433.46 -91126.291 110438 -91113.166 110443.362 -91102.04 110450.238 -91091.108 110458.723 -91080.293 110468.916 -91069.518 110480.915 -91058.704 110494.817 -91047.775 110510.719 -91036.653 110528.72 -91025.261 110548.916 -91013.522 110571.406 -91001.358 110592.84 -90990.406 110617.73 -90978.286 110642.675 -90966.767 110668.116 -90955.668 110694.49 -90944.805 110722.236 -90933.995 110751.793 -90923.055 110770.005 -90916.555 110774.287 -90915.042 110780.856 -90912.716 110789.602 -90909.615 110800.418 -90905.778 110813.197 -90901.242 110827.831 -90896.047 110844.211 -90890.231 110862.231 -90883.831 110881.783 -90876.886 110902.759 -90869.435 110925.051 -90861.515 110948.551 -90853.164 110973.153 -90844.422 110998.748 -90835.326 111025.229 -90825.914 111052.487 -90816.226 111080.416 -90806.298 111108.907 -90796.169 111137.853 -90785.878 111154.695 -90779.891 111183.398 -90769.686 111211.483 -90759.705 111238.855 -90749.979 111265.418 -90740.543 111291.08 -90731.43 111315.745 -90722.673 111339.319 -90714.306 111361.708 -90706.363 111382.818 -90698.876 111402.553 -90691.879 111420.821 -90685.406 111437.526 -90679.489 111452.575 -90674.164 111465.872 -90669.462 111477.324 -90665.418 111486.836 -90662.064 111494.314 -90659.434 111499.663 -90657.563 111502.789 -90656.482 111503.627 -90656.21 111503.766 -90657.453"/><path d="M 112805.443 -90784.768 112821.695 -90784.894 112836.706 -90785.144 112850.003 -90785.523 112852.805 -90785.63 112907.289 -90788.648 112961.272 -90793.258 113014.535 -90799.422 113066.859 -90807.102 113118.028 -90816.261 113167.824 -90826.86 113216.027 -90838.861 113262.421 -90852.226 113294.13 -90862.519 113313.56 -90869.157 113330.794 -90875.085 113346.051 -90880.389 113359.548 -90885.15 113371.501 -90889.455 113382.13 -90893.384 113391.65 -90897.024 113400.281 -90900.457 113408.24 -90903.766 113415.744 -90907.036 113423.011 -90910.35 113430.258 -90913.793 113437.703 -90917.447 113440.18 -90918.682 113458.56 -90928.255 113474.823 -90937.549 113489.334 -90946.812 113502.459 -90956.294 113514.565 -90966.243 113526.017 -90976.91 113526.632 -90977.52 113535.929 -90987.09 113543.497 -90995.676 113549.692 -91003.743 113554.872 -91011.754 113559.279 -91019.94 113564.176 -91030.741 113567.65 -91040.665 113569.999 -91050.698 113571.284 -91059.592 113571.943 -91066.55 113572.092 -91072.234 113571.7 -91077.861 113570.735 -91084.648 113570.64 -91085.23 113567.282 -91099.844 113562.028 -91114.068 113554.807 -91127.984 113545.545 -91141.673 113534.17 -91155.217 113520.609 -91168.698 113504.79 -91182.199 113486.639 -91195.8 113466.084 -91209.583 113452.575 -91217.97 113443.334 -91223.348 113432.273 -91229.443 113419.916 -91235.993 113406.786 -91242.735 113393.408 -91249.406 113380.304 -91255.744 113367.998 -91261.486 113357.014 -91266.37 113351.28 -91268.778 113349.124 -91269.6 113344.701 -91271.235 113338.1 -91273.65 113329.411 -91276.815 113318.724 -91280.695 113306.128 -91285.26 113291.713 -91290.477 113275.569 -91296.314 113257.786 -91302.737 113238.454 -91309.716 113217.661 -91317.218 113195.499 -91325.211 113172.056 -91333.661 113147.422 -91342.538 113121.688 -91351.809 113094.942 -91361.442 113067.275 -91371.403 113038.776 -91381.662 113009.535 -91392.186 112979.642 -91402.942 112949.187 -91413.899 112918.259 -91425.023 112886.948 -91436.284 112855.344 -91447.648 112823.536 -91459.083 112791.614 -91470.558 112759.669 -91482.039 112727.789 -91493.495 112696.065 -91504.893 112664.586 -91516.201 112633.442 -91527.387 112602.722 -91538.419 112572.517 -91549.264 112542.916 -91559.89 112514.01 -91570.265 112485.886 -91580.356 112458.636 -91590.131 112432.35 -91599.559 112407.116 -91608.606 112383.025 -91617.241 112360.166 -91625.432 112338.629 -91633.145 112318.504 -91640.349 112299.881 -91647.011 112282.849 -91653.1 112267.498 -91658.583 112253.917 -91663.427 112242.198 -91667.601 112232.428 -91671.072 112224.699 -91673.809 112219.099 -91675.778 112215.719 -91676.947 112214.65 -91677.29 112214.423 -91676.07 112214.219 -91672.405 112214.037 -91666.284 112213.877 -91657.699 112213.74 -91646.64 112213.624 -91633.097 112213.53 -91617.061 112213.458 -91598.523 112213.408 -91577.472 112213.38 -91553.9 112213.373 -91529.652 112213.386 -91382.015 112625.17 -91235.388 112656.533 -91224.218 112687.335 -91213.247 112717.487 -91202.504 112746.898 -91192.022 112775.48 -91181.833 112803.143 -91171.97 112829.799 -91162.463 112855.356 -91153.344 112879.727 -91144.647 112902.821 -91136.402 112924.55 -91128.642 112944.823 -91121.398 112963.552 -91114.702 112980.647 -91108.587 112996.019 -91103.085 113009.578 -91098.226 113021.235 -91094.043 113030.9 -91090.569 113038.485 -91087.835 113043.899 -91085.872 113047.054 -91084.714 113047.75 -91084.448 113063.858 -91077.445 113077.988 -91070.123 113090.073 -91062.554 113100.047 -91054.805 113107.845 -91046.947 113113.4 -91039.05 113116.646 -91031.182 113117.518 -91023.414 113115.95 -91015.815 113114.96 -91013.509 113110.411 -91006.78 113103.514 -91000.34 113094.451 -90994.276 113083.405 -90988.674 113070.559 -90983.62 113056.098 -90979.201 113040.203 -90975.503 113030.999 -90973.823 113019.721 -90972.064 113009.254 -90970.701 112999.004 -90969.69 112988.373 -90968.991 112976.766 -90968.558 112963.589 -90968.35 112954.405 -90968.315 112931.027 -90968.622 112909.289 -90969.608 112888.365 -90971.347 112867.43 -90973.911 112845.656 -90977.371 112840.74 -90978.247 112834.697 -90979.361 112828.941 -90980.472 112823.323 -90981.627 112817.699 -90982.873 112811.922 -90984.256 112805.846 -90985.822 112799.324 -90987.618 112792.212 -90989.69 112784.362 -90992.086 112775.629 -90994.851 112765.866 -90998.031 112754.927 -91001.675 112742.667 -91005.827 112728.939 -91010.534 112713.597 -91015.844 112696.495 -91021.802 112677.487 -91028.455 112656.427 -91035.85 112633.168 -91044.032 112624.84 -91046.964 112587.513 -91060.109 112552.508 -91072.436 112519.752 -91083.971 112489.172 -91094.74 112460.693 -91104.769 112434.243 -91114.084 112409.748 -91122.711 112387.133 -91130.676 112366.327 -91138.005 112347.255 -91144.723 112329.844 -91150.856 112314.02 -91156.431 112299.71 -91161.473 112286.841 -91166.009 112275.338 -91170.063 112265.129 -91173.662 112256.139 -91176.833 112248.296 -91179.6 112241.526 -91181.99 112235.755 -91184.028 112230.909 -91185.741 112226.916 -91187.154 112223.702 -91188.294 112221.194 -91189.185 112219.317 -91189.855 112217.998 -91190.329 112217.165 -91190.633 112216.847 -91190.752 112213.349 -91192.09 112213.672 -91038.236 112213.995 -90884.381 112241.79 -90875.002 112279.039 -90863.082 112318.392 -90851.712 112359.456 -90840.967 112401.839 -90830.924 112445.15 -90821.659 112488.995 -90813.248 112532.984 -90805.765 112576.723 -90799.288 112619.822 -90793.891 112661.887 -90789.652 112696.595 -90787.011 112708.309 -90786.385 112722.09 -90785.854 112737.464 -90785.422 112753.959 -90785.093 112771.102 -90784.871 112788.421 -90784.762 112805.443 -90784.768" fill="none" stroke-width="10"/><path d="M 112805.443 -90784.768 112821.695 -90784.894 112836.706 -90785.144 112850.003 -90785.523 112852.805 -90785.63 112907.289 -90788.648 112961.272 -90793.258 113014.535 -90799.422 113066.859 -90807.102 113118.028 -90816.261 113167.824 -90826.86 113216.027 -90838.861 113262.421 -90852.226 113294.13 -90862.519 113313.56 -90869.157 113330.794 -90875.085 113346.051 -90880.389 113359.548 -90885.15 113371.501 -90889.455 113382.13 -90893.384 113391.65 -90897.024 113400.281 -90900.457 113408.24 -90903.766 113415.744 -90907.036 113423.011 -90910.35 113430.258 -90913.793 113437.703 -90917.447 113440.18 -90918.682 113458.56 -90928.255 113474.823 -90937.549 113489.334 -90946.812 113502.459 -90956.294 113514.565 -90966.243 113526.017 -90976.91 113526.632 -90977.52 113535.929 -90987.09 113543.497 -90995.676 113549.692 -91003.743 113554.872 -91011.754 113559.279 -91019.94 113564.176 -91030.741 113567.65 -91040.665 113569.999 -91050.698 113571.284 -91059.592 113571.943 -91066.55 113572.092 -91072.234 113571.7 -91077.861 113570.735 -91084.648 113570.64 -91085.23 113567.282 -91099.844 113562.028 -91114.068 113554.807 -91127.984 113545.545 -91141.673 113534.17 -91155.217 113520.609 -91168.698 113504.79 -91182.199 113486.639 -91195.8 113466.084 -91209.583 113452.575 -91217.97 113443.334 -91223.348 113432.273 -91229.443 113419.916 -91235.993 113406.786 -91242.735 113393.408 -91249.406 113380.304 -91255.744 113367.998 -91261.486 113357.014 -91266.37 113351.28 -91268.778 113349.124 -91269.6 113344.701 -91271.235 113338.1 -91273.65 113329.411 -91276.815 113318.724 -91280.695 113306.128 -91285.26 113291.713 -91290.477 113275.569 -91296.314 113257.786 -91302.737 113238.454 -91309.716 113217.661 -91317.218 113195.499 -91325.211 113172.056 -91333.661 113147.422 -91342.538 113121.688 -91351.809 113094.942 -91361.442 113067.275 -91371.403 113038.776 -91381.662 113009.535 -91392.186 112979.642 -91402.942 112949.187 -91413.899 112918.259 -91425.023 112886.948 -91436.284 112855.344 -91447.648 112823.536 -91459.083 112791.614 -91470.558 112759.669 -91482.039 112727.789 -91493.495 112696.065 -91504.893 112664.586 -91516.201 112633.442 -91527.387 112602.722 -91538.419 112572.517 -91549.264 112542.916 -91559.89 112514.01 -91570.265 112485.886 -91580.356 112458.636 -91590.131 112432.35 -91599.559 112407.116 -91608.606 112383.025 -91617.241 112360.166 -91625.432 112338.629 -91633.145 112318.504 -91640.349 112299.881 -91647.011 112282.849 -91653.1 112267.498 -91658.583 112253.917 -91663.427 112242.198 -91667.601 112232.428 -91671.072 112224.699 -91673.809 112219.099 -91675.778 112215.719 -91676.947 112214.65 -91677.29 112214.423 -91676.07 112214.219 -91672.405 112214.037 -91666.284 112213.877 -91657.699 112213.74 -91646.64 112213.624 -91633.097 112213.53 -91617.061 112213.458 -91598.523 112213.408 -91577.472 112213.38 -91553.9 112213.373 -91529.652 112213.386 -91382.015 112625.17 -91235.388 112656.533 -91224.218 112687.335 -91213.247 112717.487 -91202.504 112746.898 -91192.022 112775.48 -91181.833 112803.143 -91171.97 112829.799 -91162.463 112855.356 -91153.344 112879.727 -91144.647 112902.821 -91136.402 112924.55 -91128.642 112944.823 -91121.398 112963.552 -91114.702 112980.647 -91108.587 112996.019 -91103.085 113009.578 -91098.226 113021.235 -91094.043 113030.9 -91090.569 113038.485 -91087.835 113043.899 -91085.872 113047.054 -91084.714 113047.75 -91084.448 113063.858 -91077.445 113077.988 -91070.123 113090.073 -91062.554 113100.047 -91054.805 113107.845 -91046.947 113113.4 -91039.05 113116.646 -91031.182 113117.518 -91023.414 113115.95 -91015.815 113114.96 -91013.509 113110.411 -91006.78 113103.514 -91000.34 113094.451 -90994.276 113083.405 -90988.674 113070.559 -90983.62 113056.098 -90979.201 113040.203 -90975.503 113030.999 -90973.823 113019.721 -90972.064 113009.254 -90970.701 112999.004 -90969.69 112988.373 -90968.991 112976.766 -90968.558 112963.589 -90968.35 112954.405 -90968.315 112931.027 -90968.622 112909.289 -90969.608 112888.365 -90971.347 112867.43 -90973.911 112845.656 -90977.371 112840.74 -90978.247 112834.697 -90979.361 112828.941 -90980.472 112823.323 -90981.627 112817.699 -90982.873 112811.922 -90984.256 112805.846 -90985.822 112799.324 -90987.618 112792.212 -90989.69 112784.362 -90992.086 112775.629 -90994.851 112765.866 -90998.031 112754.927 -91001.675 112742.667 -91005.827 112728.939 -91010.534 112713.597 -91015.844 112696.495 -91021.802 112677.487 -91028.455 112656.427 -91035.85 112633.168 -91044.032 112624.84 -91046.964 112587.513 -91060.109 112552.508 -91072.436 112519.752 -91083.971 112489.172 -91094.74 112460.693 -91104.769 112434.243 -91114.084 112409.748 -91122.711 112387.133 -91130.676 112366.327 -91138.005 112347.255 -91144.723 112329.844 -91150.856 112314.02 -91156.431 112299.71 -91161.473 112286.841 -91166.009 112275.338 -91170.063 112265.129 -91173.662 112256.139 -91176.833 112248.296 -91179.6 112241.526 -91181.99 112235.755 -91184.028 112230.909 -91185.741 112226.916 -91187.154 112223.702 -91188.294 112221.194 -91189.185 112219.317 -91189.855 112217.998 -91190.329 112217.165 -91190.633 112216.847 -91190.752 112213.349 -91192.09 112213.672 -91038.236 112213.995 -90884.381 112241.79 -90875.002 112279.039 -90863.082 112318.392 -90851.712 112359.456 -90840.967 112401.839 -90830.924 112445.15 -90821.659 112488.995 -90813.248 112532.984 -90805.765 112576.723 -90799.288 112619.822 -90793.891 112661.887 -90789.652 112696.595 -90787.011 112708.309 -90786.385 112722.09 -90785.854 112737.464 -90785.422 112753.959 -90785.093 112771.102 -90784.871 112788.421 -90784.762 112805.443 -90784.768"/><use xlink:href="#hkbXOa7cSdfc95AgZ1ec_pad-15" x="122500" y="-89500"/><use xlink:href="#hkbXOa7cSdfc95AgZ1ec_pad-15" x="124500" y="-89500"/><use xlink:href="#hkbXOa7cSdfc95AgZ1ec_pad-15" x="126500" y="-89500"/><use xlink:href="#hkbXOa7cSdfc95AgZ1ec_pad-15" x="128500" y="-89500"/><use xlink:href="#hkbXOa7cSdfc95AgZ1ec_pad-16" x="137500" y="-91100"/><use xlink:href="#hkbXOa7cSdfc95AgZ1ec_pad-16" x="137500" y="-92900"/><use xlink:href="#hkbXOa7cSdfc95AgZ1ec_pad-17" x="135450" y="-89050"/><use xlink:href="#hkbXOa7cSdfc95AgZ1ec_pad-17" x="134800" y="-89050"/><use xlink:href="#hkbXOa7cSdfc95AgZ1ec_pad-17" x="134150" y="-89050"/><use xlink:href="#hkbXOa7cSdfc95AgZ1ec_pad-17" x="133500" y="-89050"/><use xlink:href="#hkbXOa7cSdfc95AgZ1ec_pad-17" x="132850" y="-89050"/><use xlink:href="#hkbXOa7cSdfc95AgZ1ec_pad-17" x="132200" y="-89050"/><use xlink:href="#hkbXOa7cSdfc95AgZ1ec_pad-17" x="131550" y="-89050"/><use xlink:href="#hkbXOa7cSdfc95AgZ1ec_pad-17" x="131550" y="-94950"/><use xlink:href="#hkbXOa7cSdfc95AgZ1ec_pad-17" x="132200" y="-94950"/><use xlink:href="#hkbXOa7cSdfc95AgZ1ec_pad-17" x="132850" y="-94950"/><use xlink:href="#hkbXOa7cSdfc95AgZ1ec_pad-17" x="133500" y="-94950"/><use xlink:href="#hkbXOa7cSdfc95AgZ1ec_pad-17" x="134150" y="-94950"/><use xlink:href="#hkbXOa7cSdfc95AgZ1ec_pad-17" x="134800" y="-94950"/><use xlink:href="#hkbXOa7cSdfc95AgZ1ec_pad-17" x="135450" y="-94950"/><use xlink:href="#hkbXOa7cSdfc95AgZ1ec_pad-18" x="140500" y="-92000"/><use xlink:href="#hkbXOa7cSdfc95AgZ1ec_pad-15" x="120500" y="-89500"/><use xlink:href="#hkbXOa7cSdfc95AgZ1ec_pad-19" x="96000" y="-94000"/><use xlink:href="#hkbXOa7cSdfc95AgZ1ec_pad-19" x="100000" y="-94000"/><use xlink:href="#hkbXOa7cSdfc95AgZ1ec_pad-19" x="104000" y="-94000"/><use xlink:href="#hkbXOa7cSdfc95AgZ1ec_pad-19" x="108000" y="-90550"/><use xlink:href="#hkbXOa7cSdfc95AgZ1ec_pad-19" x="108000" y="-94000"/><use xlink:href="#hkbXOa7cSdfc95AgZ1ec_pad-19" x="112000" y="-94000"/><use xlink:href="#hkbXOa7cSdfc95AgZ1ec_pad-19" x="116000" y="-94000"/><use xlink:href="#hkbXOa7cSdfc95AgZ1ec_pad-19" x="120000" y="-94000"/><use xlink:href="#hkbXOa7cSdfc95AgZ1ec_pad-20" x="122500" y="-89500"/><use xlink:href="#hkbXOa7cSdfc95AgZ1ec_pad-20" x="137500" y="-91100"/><use xlink:href="#hkbXOa7cSdfc95AgZ1ec_pad-20" x="137500" y="-92900"/><use xlink:href="#hkbXOa7cSdfc95AgZ1ec_pad-20" x="124500" y="-89500"/><use xlink:href="#hkbXOa7cSdfc95AgZ1ec_pad-20" x="120500" y="-89500"/><use xlink:href="#hkbXOa7cSdfc95AgZ1ec_pad-20" x="134500.004" y="-90350"/><use xlink:href="#hkbXOa7cSdfc95AgZ1ec_pad-20" x="126500" y="-89500"/><use xlink:href="#hkbXOa7cSdfc95AgZ1ec_pad-20" x="134800" y="-93600"/><use xlink:href="#hkbXOa7cSdfc95AgZ1ec_pad-20" x="134100" y="-92700"/><use xlink:href="#hkbXOa7cSdfc95AgZ1ec_pad-20" x="128500" y="-89500"/><path d="M 135450 -90350 136200 -91100 M 135450 -89050 135450 -90350 M 136200 -91100 137500 -91100 M 136100 -92900 135450 -93550 135450 -94950 M 137500 -92900 136100 -92900" fill="none" stroke-width="381"/><path d="M 133500 -89050 133500 -89775 M 134075 -90350 134500.004 -90350 M 133500 -89775 134075 -90350 M 134800 -93600 134800 -94950 M 134150 -92750 134150 -94950 M 134100 -92700 134150 -92750 M 132850 -94150 130450 -91750 M 132850 -94950 132850 -94150 M 122250 -91750 120000 -94000 M 130450 -91750 122250 -91750 M 131500 -96500 98500 -96500 M 132200 -94950 132200 -95800 M 98500 -96500 97199.999 -95199.999 M 132200 -95800 131500 -96500 M 97199.999 -95199.999 96000 -94000 M 131550 -95700 131250 -96000 M 102000 -96000 100000 -94000 M 131550 -94950 131550 -95700 M 131250 -96000 102000 -96000 M 118750 -91250 116000 -94000 M 133500 -94950 133500 -94068.934 M 130681.066 -91250 118750 -91250 M 133500 -94068.934 130681.066 -91250" fill="none" stroke-width="254"/><path d="M 132850 -89050 132850 -90650 M 134200 -92000 140500 -92000 M 132850 -90650 134200 -92000" fill="none" stroke-width="381"/></g><g id="c46HL0UR7HpWEY1aK2zJ_top_drill1" transform="scale(25.4,25.4)"><use xlink:href="#pSIZdowf8_91ZTWmzXeB_pad-1" x="4744.1" y="-3523.6"/><use xlink:href="#pSIZdowf8_91ZTWmzXeB_pad-1" x="4822.8" y="-3523.6"/><use xlink:href="#pSIZdowf8_91ZTWmzXeB_pad-1" x="4901.6" y="-3523.6"/><use xlink:href="#pSIZdowf8_91ZTWmzXeB_pad-1" x="4980.3" y="-3523.6"/><use xlink:href="#pSIZdowf8_91ZTWmzXeB_pad-1" x="5059.1" y="-3523.6"/><use xlink:href="#pSIZdowf8_91ZTWmzXeB_pad-1" x="5279.5" y="-3649.6"/><use xlink:href="#pSIZdowf8_91ZTWmzXeB_pad-1" x="5295.3" y="-3557.1"/><use xlink:href="#pSIZdowf8_91ZTWmzXeB_pad-1" x="5307.1" y="-3685"/><use xlink:href="#pSIZdowf8_91ZTWmzXeB_pad-1" x="5413.4" y="-3586.6"/><use xlink:href="#pSIZdowf8_91ZTWmzXeB_pad-1" x="5413.4" y="-3657.5"/><use xlink:href="#pSIZdowf8_91ZTWmzXeB_pad-2" x="3779.5" y="-3700.8"/><use xlink:href="#pSIZdowf8_91ZTWmzXeB_pad-2" x="3937" y="-3700.8"/><use xlink:href="#pSIZdowf8_91ZTWmzXeB_pad-2" x="4094.5" y="-3700.8"/><use xlink:href="#pSIZdowf8_91ZTWmzXeB_pad-2" x="4252" y="-3565"/><use xlink:href="#pSIZdowf8_91ZTWmzXeB_pad-2" x="4252" y="-3700.8"/><use xlink:href="#pSIZdowf8_91ZTWmzXeB_pad-2" x="4409.4" y="-3700.8"/><use xlink:href="#pSIZdowf8_91ZTWmzXeB_pad-2" x="4566.9" y="-3700.8"/><use xlink:href="#pSIZdowf8_91ZTWmzXeB_pad-2" x="4724.4" y="-3700.8"/></g><clipPath id="c46HL0UR7HpWEY1aK2zJ_top_outline"><path d="M 94000 -89000 94000 -96000 A 1000 1000 0 0 1 95000 -97000 L 134500 -97000 A 500 500 0 0 1 135000 -96500 500 500 0 0 0 135500 -96000 L 141000 -96000 A 1000 1000 0 0 1 142000 -95000 L 142000 -89000 A 1000 1000 0 0 1 141000 -88000 L 95000 -88000 A 1000 1000 0 0 1 94000 -89000 M 122000 -93000 122000 -95000 A 500 500 0 0 1 122500 -95500 L 129000 -95500 A 500 500 0 0 1 129500 -95000 L 129500 -93000 A 500 500 0 0 1 129000 -92500 L 122500 -92500 A 500 500 0 0 1 122000 -93000" fill="none" stroke-width="100"/></clipPath><mask id="c46HL0UR7HpWEY1aK2zJ_top_mech-mask"><g fill="#000" stroke="#000"><rect x="94000" y="-97000" width="48000" height="9000" fill="#fff"/><use xlink:href="#c46HL0UR7HpWEY1aK2zJ_top_drill1"/></g></mask><mask id="c46HL0UR7HpWEY1aK2zJ_top_cf-mask"><g fill="#fff" stroke="#fff"><use xlink:href="#c46HL0UR7HpWEY1aK2zJ_top_soldermask"/></g></mask><mask id="c46HL0UR7HpWEY1aK2zJ_top_sm-mask"><g fill="#000" stroke="#000"><rect x="94000" y="-97000" width="48000" height="9000" fill="#fff"/><use xlink:href="#c46HL0UR7HpWEY1aK2zJ_top_soldermask"/></g></mask></defs><g transform="translate(0,-185000) scale(1,-1)"><g mask="url(#c46HL0UR7HpWEY1aK2zJ_top_mech-mask)" clip-path="url(#c46HL0UR7HpWEY1aK2zJ_top_outline)"><rect x="94000" y="-97000" width="48000" height="9000" fill="currentColor" class="c46HL0UR7HpWEY1aK2zJ_fr4"/><use xlink:href="#c46HL0UR7HpWEY1aK2zJ_top_copper" fill="currentColor" stroke="currentColor" class="c46HL0UR7HpWEY1aK2zJ_cu"/><use xlink:href="#c46HL0UR7HpWEY1aK2zJ_top_copper" fill="currentColor" stroke="currentColor" class="c46HL0UR7HpWEY1aK2zJ_cf" mask="url(#c46HL0UR7HpWEY1aK2zJ_top_cf-mask)"/><g mask="url(#c46HL0UR7HpWEY1aK2zJ_top_sm-mask)"><rect x="94000" y="-97000" width="48000" height="9000" fill="currentColor" class="c46HL0UR7HpWEY1aK2zJ_sm"/><use xlink:href="#c46HL0UR7HpWEY1aK2zJ_top_silkscreen" fill="currentColor" stroke="currentColor" class="c46HL0UR7HpWEY1aK2zJ_ss"/></g><use xlink:href="#c46HL0UR7HpWEY1aK2zJ_top_solderpaste" fill="currentColor" stroke="currentColor" class="c46HL0UR7HpWEY1aK2zJ_sp"/></g></g></svg>