<svg version="1.1" xmlns="http://www.w3.org/2000/svg" xmlns:xlink="http://www.w3.org/1999/xlink" stroke-linecap="round" stroke-linejoin="round" stroke-width="0" fill-rule="evenodd" clip-rule="evenodd" id="c46HL0UR7HpWEY1aK2zJ_bottom" viewBox="94000 -97000 48000 9000" width="48mm" height="9mm" class="w-100 h-100"><defs><style>.c46HL0UR7HpWEY1aK2zJ_fr4 {color: #666666;}
.c46HL0UR7HpWEY1aK2zJ_cu {color: #cccccc;}
.c46HL0UR7HpWEY1aK2zJ_cf {color: #cc9933;}
.c46HL0UR7HpWEY1aK2zJ_sm {color: #004200; opacity: 0.75;}
.c46HL0UR7HpWEY1aK2zJ_ss {color: #ffffff;}
.c46HL0UR7HpWEY1aK2zJ_sp {color: #999999;}
.c46HL0UR7HpWEY1aK2zJ_out {color: #000000;}</style><circle cx="0" cy="0" r="1200" id="ToYBCObx3adp_8AR2gk6_pad-12"/><circle cx="0" cy="0" r="300" id="ToYBCObx3adp_8AR2gk6_pad-13"/><circle cx="0" cy="0" r="1200" id="WTl2HYTc3ewz0wPoJQnQ_pad-11"/><mask id="WTl2HYTc3ewz0wPoJQnQ_clear-1" fill="#000" stroke="#000"><g><rect x="131215.476" y="-89560.427" width="8609.523" height="1000" fill="#fff"/><use xlink:href="#WTl2HYTc3ewz0wPoJQnQ_pad-11" x="96000" y="-94000"/><use xlink:href="#WTl2HYTc3ewz0wPoJQnQ_pad-11" x="100000" y="-94000"/><use xlink:href="#WTl2HYTc3ewz0wPoJQnQ_pad-11" x="104000" y="-94000"/><use xlink:href="#WTl2HYTc3ewz0wPoJQnQ_pad-11" x="108000" y="-90550"/><use xlink:href="#WTl2HYTc3ewz0wPoJQnQ_pad-11" x="108000" y="-94000"/><use xlink:href="#WTl2HYTc3ewz0wPoJQnQ_pad-11" x="112000" y="-94000"/><use xlink:href="#WTl2HYTc3ewz0wPoJQnQ_pad-11" x="116000" y="-94000"/><use xlink:href="#WTl2HYTc3ewz0wPoJQnQ_pad-11" x="120000" y="-94000"/></g></mask><circle cx="0" cy="0" r="1200" id="vLZ_Je5zw85G4nYwF1xl_pad-10"/><circle cx="0" cy="0" r="5.9" id="pSIZdowf8_91ZTWmzXeB_pad-1"/><circle cx="0" cy="0" r="35.45" id="pSIZdowf8_91ZTWmzXeB_pad-2"/><g id="c46HL0UR7HpWEY1aK2zJ_bottom_copper"><path d="M 105000 -90550 A 1000 1000 0 0 0 103000 -90550 1000 1000 0 0 0 105000 -90550" fill="none" stroke-width="150"/><path d="M 103659.822 -90370.839 103507.875 -90370.839 103507.875 -90223.428 103659.822 -90223.428 103659.822 -90370.839" fill="none" stroke-width="10"/><path d="M 103659.822 -90370.839 103507.875 -90370.839 103507.875 -90223.428 103659.822 -90223.428 103659.822 -90370.839"/><path d="M 104489.857 -90080.553 104283.257 -90080.553 104284.143 -90471.191 104284.16 -90478.513 104284.275 -90528.614 104284.386 -90574.428 104284.499 -90616.174 104284.619 -90654.07 104284.749 -90688.334 104284.896 -90719.186 104285.064 -90746.844 104285.259 -90771.526 104285.485 -90793.451 104285.748 -90812.838 104286.052 -90829.904 104286.402 -90844.868 104286.804 -90857.95 104287.263 -90869.367 104287.783 -90879.337 104288.37 -90888.081 104289.028 -90895.815 104289.763 -90902.759 104290.58 -90909.13 104291.483 -90915.148 104292.478 -90921.032 104293.57 -90926.999 104294.763 -90933.267 104298.126 -90949.013 104304.685 -90971.808 104312.781 -90990.844 104322.768 -91006.541 104335.004 -91019.32 104349.841 -91029.6 104367.637 -91037.802 104388.745 -91044.343 104397.329 -91046.278 104412.844 -91048.918 104429.778 -91051.003 104446.676 -91052.394 104462.085 -91052.953 104474.549 -91052.541 104489.857 -91051.164 104489.857 -91187.93 104446.201 -91186.636 104439.493 -91186.406 104400.106 -91183.651 104364.338 -91178.537 104331.914 -91170.974 104302.56 -91160.868 104276.001 -91148.13 104251.962 -91132.665 104230.17 -91114.384 104215.572 -91098.959 104198.182 -91075.528 104182.972 -91048.568 104169.872 -91017.93 104158.811 -90983.468 104149.721 -90945.035 104149.671 -90944.79 104147.889 -90935.949 104146.259 -90927.799 104144.775 -90920.111 104143.429 -90912.66 104142.213 -90905.217 104141.122 -90897.556 104140.147 -90889.449 104139.281 -90880.669 104138.518 -90870.988 104137.849 -90860.181 104137.268 -90848.019 104136.767 -90834.274 104136.339 -90818.721 104135.978 -90801.132 104135.675 -90781.279 104135.423 -90758.935 104135.216 -90733.874 104135.046 -90705.867 104134.905 -90674.688 104134.787 -90640.109 104134.685 -90601.904 104134.59 -90559.844 104134.497 -90513.703 104134.397 -90463.254 104133.631 -90080.553 104070.304 -90080.553 104070.304 -91173.722 103996.032 -91173.124 103921.759 -91172.526 103921.188 -90626.54 103920.616 -90080.553 103864.102 -90080.553 103863.336 -90463.254 103863.324 -90469.432 103863.222 -90518.25 103863.121 -90562.777 103863.019 -90603.23 103862.912 -90639.828 103862.799 -90672.788 103862.677 -90702.328 103862.543 -90728.665 103862.395 -90752.019 103862.231 -90772.607 103862.048 -90790.647 103861.844 -90806.356 103861.616 -90819.954 103861.361 -90831.656 103861.078 -90841.683 103860.764 -90850.25 103860.416 -90857.578 103860.031 -90863.882 103859.608 -90869.382 103859.144 -90874.295 103858.637 -90878.839 103857.545 -90887.6 103850.456 -90932.371 103841.315 -90973.155 103830.129 -91009.939 103816.902 -91042.712 103801.639 -91071.46 103784.344 -91096.172 103765.023 -91116.837 103743.713 -91133.971 103717.654 -91149.789 103688.423 -91162.76 103655.894 -91172.928 103619.944 -91180.342 103580.447 -91185.046 103567.48 -91185.929 103553.178 -91186.588 103539.912 -91186.911 103529.42 -91186.836 103509.009 -91186.133 103508.409 -91118.774 103507.808 -91051.414 103539.08 -91051.343 103562.28 -91050.623 103591.776 -91047.378 103617.661 -91041.532 103639.905 -91033.097 103658.48 -91022.087 103673.357 -91008.511 103684.505 -90992.382 103689.229 -90982.197 103695.649 -90963.156 103701.158 -90939.88 103705.731 -90912.5 103709.344 -90881.148 103711.973 -90845.955 103711.994 -90845.573 103712.258 -90838.299 103712.512 -90826.752 103712.753 -90811.178 103712.981 -90791.821 103713.194 -90768.926 103713.391 -90742.737 103713.571 -90713.498 103713.731 -90681.454 103713.871 -90646.849 103713.989 -90609.929 103714.084 -90570.937 103714.155 -90530.118 103714.2 -90487.716 103714.218 -90443.977 103714.25 -90080.553 103507.813 -90080.553 103508.411 -90006.281 103509.009 -89932.008 104489.857 -89930.864 104489.857 -90080.553" fill="none" stroke-width="10"/><path d="M 104489.857 -90080.553 104283.257 -90080.553 104284.143 -90471.191 104284.16 -90478.513 104284.275 -90528.614 104284.386 -90574.428 104284.499 -90616.174 104284.619 -90654.07 104284.749 -90688.334 104284.896 -90719.186 104285.064 -90746.844 104285.259 -90771.526 104285.485 -90793.451 104285.748 -90812.838 104286.052 -90829.904 104286.402 -90844.868 104286.804 -90857.95 104287.263 -90869.367 104287.783 -90879.337 104288.37 -90888.081 104289.028 -90895.815 104289.763 -90902.759 104290.58 -90909.13 104291.483 -90915.148 104292.478 -90921.032 104293.57 -90926.999 104294.763 -90933.267 104298.126 -90949.013 104304.685 -90971.808 104312.781 -90990.844 104322.768 -91006.541 104335.004 -91019.32 104349.841 -91029.6 104367.637 -91037.802 104388.745 -91044.343 104397.329 -91046.278 104412.844 -91048.918 104429.778 -91051.003 104446.676 -91052.394 104462.085 -91052.953 104474.549 -91052.541 104489.857 -91051.164 104489.857 -91187.93 104446.201 -91186.636 104439.493 -91186.406 104400.106 -91183.651 104364.338 -91178.537 104331.914 -91170.974 104302.56 -91160.868 104276.001 -91148.13 104251.962 -91132.665 104230.17 -91114.384 104215.572 -91098.959 104198.182 -91075.528 104182.972 -91048.568 104169.872 -91017.93 104158.811 -90983.468 104149.721 -90945.035 104149.671 -90944.79 104147.889 -90935.949 104146.259 -90927.799 104144.775 -90920.111 104143.429 -90912.66 104142.213 -90905.217 104141.122 -90897.556 104140.147 -90889.449 104139.281 -90880.669 104138.518 -90870.988 104137.849 -90860.181 104137.268 -90848.019 104136.767 -90834.274 104136.339 -90818.721 104135.978 -90801.132 104135.675 -90781.279 104135.423 -90758.935 104135.216 -90733.874 104135.046 -90705.867 104134.905 -90674.688 104134.787 -90640.109 104134.685 -90601.904 104134.59 -90559.844 104134.497 -90513.703 104134.397 -90463.254 104133.631 -90080.553 104070.304 -90080.553 104070.304 -91173.722 103996.032 -91173.124 103921.759 -91172.526 103921.188 -90626.54 103920.616 -90080.553 103864.102 -90080.553 103863.336 -90463.254 103863.324 -90469.432 103863.222 -90518.25 103863.121 -90562.777 103863.019 -90603.23 103862.912 -90639.828 103862.799 -90672.788 103862.677 -90702.328 103862.543 -90728.665 103862.395 -90752.019 103862.231 -90772.607 103862.048 -90790.647 103861.844 -90806.356 103861.616 -90819.954 103861.361 -90831.656 103861.078 -90841.683 103860.764 -90850.25 103860.416 -90857.578 103860.031 -90863.882 103859.608 -90869.382 103859.144 -90874.295 103858.637 -90878.839 103857.545 -90887.6 103850.456 -90932.371 103841.315 -90973.155 103830.129 -91009.939 103816.902 -91042.712 103801.639 -91071.46 103784.344 -91096.172 103765.023 -91116.837 103743.713 -91133.971 103717.654 -91149.789 103688.423 -91162.76 103655.894 -91172.928 103619.944 -91180.342 103580.447 -91185.046 103567.48 -91185.929 103553.178 -91186.588 103539.912 -91186.911 103529.42 -91186.836 103509.009 -91186.133 103508.409 -91118.774 103507.808 -91051.414 103539.08 -91051.343 103562.28 -91050.623 103591.776 -91047.378 103617.661 -91041.532 103639.905 -91033.097 103658.48 -91022.087 103673.357 -91008.511 103684.505 -90992.382 103689.229 -90982.197 103695.649 -90963.156 103701.158 -90939.88 103705.731 -90912.5 103709.344 -90881.148 103711.973 -90845.955 103711.994 -90845.573 103712.258 -90838.299 103712.512 -90826.752 103712.753 -90811.178 103712.981 -90791.821 103713.194 -90768.926 103713.391 -90742.737 103713.571 -90713.498 103713.731 -90681.454 103713.871 -90646.849 103713.989 -90609.929 103714.084 -90570.937 103714.155 -90530.118 103714.2 -90487.716 103714.218 -90443.977 103714.25 -90080.553 103507.813 -90080.553 103508.411 -90006.281 103509.009 -89932.008 104489.857 -89930.864 104489.857 -90080.553"/><use xlink:href="#ToYBCObx3adp_8AR2gk6_pad-12" x="96000" y="-94000"/><use xlink:href="#ToYBCObx3adp_8AR2gk6_pad-12" x="100000" y="-94000"/><use xlink:href="#ToYBCObx3adp_8AR2gk6_pad-12" x="104000" y="-94000"/><use xlink:href="#ToYBCObx3adp_8AR2gk6_pad-12" x="108000" y="-90550"/><use xlink:href="#ToYBCObx3adp_8AR2gk6_pad-12" x="108000" y="-94000"/><use xlink:href="#ToYBCObx3adp_8AR2gk6_pad-12" x="112000" y="-94000"/><use xlink:href="#ToYBCObx3adp_8AR2gk6_pad-12" x="116000" y="-94000"/><use xlink:href="#ToYBCObx3adp_8AR2gk6_pad-12" x="120000" y="-94000"/><use xlink:href="#ToYBCObx3adp_8AR2gk6_pad-13" x="122500" y="-89500"/><use xlink:href="#ToYBCObx3adp_8AR2gk6_pad-13" x="137500" y="-91100"/><use xlink:href="#ToYBCObx3adp_8AR2gk6_pad-13" x="137500" y="-92900"/><use xlink:href="#ToYBCObx3adp_8AR2gk6_pad-13" x="124500" y="-89500"/><use xlink:href="#ToYBCObx3adp_8AR2gk6_pad-13" x="120500" y="-89500"/><use xlink:href="#ToYBCObx3adp_8AR2gk6_pad-13" x="134500.004" y="-90350"/><use xlink:href="#ToYBCObx3adp_8AR2gk6_pad-13" x="126500" y="-89500"/><use xlink:href="#ToYBCObx3adp_8AR2gk6_pad-13" x="134800" y="-93600"/><use xlink:href="#ToYBCObx3adp_8AR2gk6_pad-13" x="134100" y="-92700"/><use xlink:href="#ToYBCObx3adp_8AR2gk6_pad-13" x="128500" y="-89500"/><path d="M 112000 -94000 114100 -91900 M 134050 -94550 135550 -94550 M 131400 -91900 134050 -94550 M 122500 -89500 122000 -90000 M 136100 -91800 136800 -91100 M 135550 -94550 136100 -94000 M 114100 -91900 131400 -91900 M 122000 -90000 122000 -91850 M 136100 -94000 136100 -91800 M 136800 -91100 137500 -91100" fill="none" stroke-width="508"/><path d="M 120500 -89500 121600 -88400 129300 -88400 130350 -89450 M 133600.004 -89450 134500.004 -90350 M 130350 -89450 133600.004 -89450 M 128300 -91300 126500 -89500 M 134100 -93600 131800 -91300 M 134800 -93600 134100 -93600 M 131800 -91300 128300 -91300 M 132293.589 -90893.589 129893.589 -90893.589 128500 -89500 M 134100 -92700 132293.589 -90893.589" fill="none" stroke-width="254"/><path d="M 121317.592 -88070.502 121364.085 -88124.158 121374.189 -88194.432 121344.695 -88259.012 121338.567 -88265.595 120593.965 -89010.196 120531.655 -89044.22 120504.872 -89047.1 120434.88 -89047.1 120309.925 -89083.791 120200.363 -89154.201 120115.079 -89252.625 120115.077 -89252.628 120060.978 -89371.087 120060.977 -89371.091 120042.443 -89500 120056.613 -89598.559 120060.977 -89628.908 120060.978 -89628.912 120115.077 -89747.371 120115.079 -89747.374 120200.364 -89845.799 120309.924 -89916.208 120434.883 -89952.9 120434.886 -89952.9 120565.114 -89952.9 120565.117 -89952.9 120690.076 -89916.208 120799.636 -89845.799 120884.921 -89747.374 120939.023 -89628.909 120957.557 -89500 120957.556 -89499.998 120957.557 -89499.996 120957.557 -89490.987 120961.288 -89490.987 120968.877 -89438.196 120994.394 -89401.442 121679.034 -88716.804 121741.346 -88682.779 121768.129 -88679.9 129131.872 -88679.9 129199.993 -88699.902 129220.962 -88716.8 130178.138 -89673.976 130241.962 -89710.825 130313.15 -89729.9 130386.85 -89729.9 133431.876 -89729.9 133499.997 -89749.902 133520.971 -89766.805 134005.607 -90251.441 134039.633 -90313.753 134040.61 -90340.989 134042.447 -90340.989 134042.447 -90349.997 134042.447 -90350 134058.458 -90461.358 134060.981 -90478.908 134060.982 -90478.912 134115.081 -90597.371 134115.083 -90597.374 134200.368 -90695.799 134309.928 -90766.208 134434.887 -90802.9 134434.89 -90802.9 134565.118 -90802.9 134565.121 -90802.9 134690.08 -90766.208 134799.64 -90695.799 134884.925 -90597.374 134939.027 -90478.909 134957.561 -90350 134939.027 -90221.091 134897.591 -90130.36 134884.926 -90102.628 134884.924 -90102.625 134799.64 -90004.201 134719.811 -89952.899 134690.08 -89933.792 134690.079 -89933.791 134690.078 -89933.791 134565.123 -89897.1 134565.121 -89897.1 134495.132 -89897.1 134427.011 -89877.098 134406.041 -89860.199 133771.866 -89226.024 133771.864 -89226.023 133771.862 -89226.021 133708.042 -89189.175 133708.04 -89189.174 133636.857 -89170.1 133636.854 -89170.1 130518.128 -89170.1 130450.007 -89150.098 130429.037 -89133.199 129561.433 -88265.595 129527.408 -88203.283 129532.473 -88132.467 129575.02 -88075.632 129641.54 -88050.821 129650.529 -88050.5 140983.592 -88050.5 140994.493 -88050.5 141005.474 -88050.979 141050.629 -88054.929 141153.899 -88063.964 141175.525 -88067.777 141314.105 -88104.91 141334.734 -88112.418 141464.765 -88173.053 141483.776 -88184.029 141601.3 -88266.32 141618.124 -88280.438 141719.561 -88381.875 141733.679 -88398.699 141815.967 -88516.218 141826.949 -88535.239 141887.579 -88665.261 141895.091 -88685.9 141932.221 -88824.472 141936.034 -88846.101 141949.02 -88994.524 141949.5 -89005.506 141949.5 -94994.493 141949.02 -95005.475 141936.034 -95153.898 141932.221 -95175.527 141895.091 -95314.099 141887.579 -95334.738 141826.949 -95464.76 141815.967 -95483.781 141733.679 -95601.3 141719.561 -95618.124 141618.124 -95719.561 141601.3 -95733.679 141483.781 -95815.967 141464.76 -95826.949 141334.738 -95887.579 141314.099 -95895.091 141175.527 -95932.221 141153.898 -95936.034 141005.475 -95949.02 140994.493 -95949.5 135516.408 -95949.5 135500 -95949.5 135437.974 -95949.5 135317.031 -95977.105 135317.026 -95977.107 135269.488 -96000 135205.263 -96030.929 135108.275 -96108.275 135030.929 -96205.263 135030.928 -96205.264 135030.928 -96205.265 134977.107 -96317.026 134977.105 -96317.031 134949.5 -96437.976 134949.5 -96491.742 134948.422 -96508.189 134936.349 -96599.89 134927.835 -96631.662 134895.623 -96709.427 134879.178 -96737.911 134827.943 -96804.683 134804.683 -96827.943 134737.911 -96879.178 134709.427 -96895.623 134631.662 -96927.835 134599.89 -96936.349 134520.663 -96946.779 134508.187 -96948.422 134491.742 -96949.5 95005.507 -96949.5 94994.525 -96949.02 94846.101 -96936.034 94824.472 -96932.221 94685.9 -96895.091 94665.261 -96887.579 94535.239 -96826.949 94516.218 -96815.967 94398.699 -96733.679 94381.875 -96719.561 94280.438 -96618.124 94266.32 -96601.3 94195.389 -96500 94184.029 -96483.776 94173.053 -96464.765 94112.418 -96334.734 94104.91 -96314.105 94067.777 -96175.525 94063.964 -96153.897 94050.979 -96005.474 94050.5 -95994.493 94050.5 -94000 94642.463 -94000 94656.667 -94171.421 94660.979 -94223.45 94716.016 -94440.788 94716.019 -94440.795 94806.08 -94646.112 94806.082 -94646.116 94928.713 -94833.816 95080.565 -94998.772 95161.83 -95062.023 95231.615 -95116.339 95257.498 -95136.484 95454.684 -95243.196 95666.744 -95315.997 95887.895 -95352.9 95887.899 -95352.9 96112.101 -95352.9 96112.105 -95352.9 96333.256 -95315.997 96545.316 -95243.196 96742.502 -95136.484 96919.435 -94998.772 97071.287 -94833.816 97193.918 -94646.116 97283.982 -94440.792 97339.022 -94223.443 97357.537 -94000 98642.463 -94000 98656.667 -94171.421 98660.979 -94223.45 98716.016 -94440.788 98716.019 -94440.795 98806.08 -94646.112 98806.082 -94646.116 98928.713 -94833.816 99080.565 -94998.772 99161.83 -95062.023 99231.615 -95116.339 99257.498 -95136.484 99454.684 -95243.196 99666.744 -95315.997 99887.895 -95352.9 99887.899 -95352.9 100112.101 -95352.9 100112.105 -95352.9 100333.256 -95315.997 100545.316 -95243.196 100742.502 -95136.484 100919.435 -94998.772 101071.287 -94833.816 101193.918 -94646.116 101283.982 -94440.792 101339.022 -94223.443 101357.537 -94000 102642.463 -94000 102656.667 -94171.421 102660.979 -94223.45 102716.016 -94440.788 102716.019 -94440.795 102806.08 -94646.112 102806.082 -94646.116 102928.713 -94833.816 103080.565 -94998.772 103161.83 -95062.023 103231.615 -95116.339 103257.498 -95136.484 103454.684 -95243.196 103666.744 -95315.997 103887.895 -95352.9 103887.899 -95352.9 104112.101 -95352.9 104112.105 -95352.9 104333.256 -95315.997 104545.316 -95243.196 104742.502 -95136.484 104919.435 -94998.772 105071.287 -94833.816 105193.918 -94646.116 105283.982 -94440.792 105339.022 -94223.443 105357.537 -94000 106541.017 -94000 106560.917 -94240.148 106620.067 -94473.727 106620.07 -94473.734 106716.862 -94694.398 106807.562 -94833.225 106807.563 -94833.225 107207.255 -94433.532 107300.924 -94573.717 107426.283 -94699.076 107566.466 -94792.743 107165.902 -95193.307 107202.004 -95221.406 107413.937 -95336.099 107641.836 -95414.337 107641.845 -95414.339 107879.522 -95454 108120.478 -95454 108358.154 -95414.339 108358.163 -95414.337 108586.064 -95336.099 108586.066 -95336.098 108797.985 -95221.412 108797.988 -95221.411 108834.097 -95193.306 108433.534 -94792.743 108573.717 -94699.076 108699.076 -94573.717 108792.743 -94433.534 109192.434 -94833.225 109192.435 -94833.225 109283.138 -94694.395 109379.929 -94473.734 109379.932 -94473.727 109439.082 -94240.148 109458.982 -94000 110642.463 -94000 110656.667 -94171.421 110660.979 -94223.45 110716.016 -94440.788 110716.019 -94440.795 110806.08 -94646.112 110806.082 -94646.116 110928.713 -94833.816 111080.565 -94998.772 111161.83 -95062.023 111231.615 -95116.339 111257.498 -95136.484 111454.684 -95243.196 111666.744 -95315.997 111887.895 -95352.9 111887.899 -95352.9 112112.101 -95352.9 112112.105 -95352.9 112333.256 -95315.997 112545.316 -95243.196 112742.502 -95136.484 112919.435 -94998.772 113071.287 -94833.816 113193.918 -94646.116 113283.982 -94440.792 113339.022 -94223.443 113357.537 -94000 114642.463 -94000 114656.667 -94171.421 114660.979 -94223.45 114716.016 -94440.788 114716.019 -94440.795 114806.08 -94646.112 114806.082 -94646.116 114928.713 -94833.816 115080.565 -94998.772 115161.83 -95062.023 115231.615 -95116.339 115257.498 -95136.484 115454.684 -95243.196 115666.744 -95315.997 115887.895 -95352.9 115887.899 -95352.9 116112.101 -95352.9 116112.105 -95352.9 116333.256 -95315.997 116545.316 -95243.196 116742.502 -95136.484 116919.435 -94998.772 117071.287 -94833.816 117193.918 -94646.116 117283.982 -94440.792 117339.022 -94223.443 117357.537 -94000 118642.463 -94000 118656.667 -94171.421 118660.979 -94223.45 118716.016 -94440.788 118716.019 -94440.795 118806.08 -94646.112 118806.082 -94646.116 118928.713 -94833.816 119080.565 -94998.772 119161.83 -95062.023 119231.615 -95116.339 119257.498 -95136.484 119454.684 -95243.196 119666.744 -95315.997 119887.895 -95352.9 119887.899 -95352.9 120112.101 -95352.9 120112.105 -95352.9 120333.256 -95315.997 120545.316 -95243.196 120742.502 -95136.484 120919.435 -94998.772 121071.287 -94833.816 121193.918 -94646.116 121283.982 -94440.792 121339.022 -94223.443 121357.537 -94000 121339.022 -93776.557 121339.02 -93776.549 121283.983 -93559.211 121283.981 -93559.207 121193.918 -93353.884 121071.287 -93166.184 120919.435 -93001.228 120838.166 -92937.974 120742.504 -92863.517 120721.902 -92852.368 120545.316 -92756.804 120545.312 -92756.802 120545.311 -92756.802 120333.26 -92684.004 120333.251 -92684.002 120289.277 -92676.664 120112.105 -92647.1 119887.895 -92647.1 119740.287 -92671.731 119666.748 -92684.002 119666.739 -92684.004 119454.688 -92756.802 119454.684 -92756.803 119454.684 -92756.804 119444.49 -92762.321 119257.495 -92863.517 119080.562 -93001.23 118928.712 -93166.184 118806.08 -93353.887 118716.019 -93559.204 118716.016 -93559.211 118660.979 -93776.549 118660.978 -93776.555 118660.978 -93776.557 118642.463 -94000 117357.537 -94000 117339.022 -93776.557 117339.02 -93776.549 117283.983 -93559.211 117283.981 -93559.207 117193.918 -93353.884 117071.287 -93166.184 116919.435 -93001.228 116838.166 -92937.974 116742.504 -92863.517 116721.902 -92852.368 116545.316 -92756.804 116545.312 -92756.802 116545.311 -92756.802 116333.26 -92684.004 116333.251 -92684.002 116289.277 -92676.664 116112.105 -92647.1 115887.895 -92647.1 115740.287 -92671.731 115666.748 -92684.002 115666.739 -92684.004 115454.688 -92756.802 115454.684 -92756.803 115454.684 -92756.804 115444.49 -92762.321 115257.495 -92863.517 115080.562 -93001.23 114928.712 -93166.184 114806.08 -93353.887 114716.019 -93559.204 114716.016 -93559.211 114660.979 -93776.549 114660.978 -93776.555 114660.978 -93776.557 114642.463 -94000 113357.537 -94000 113339.022 -93776.557 113283.982 -93559.208 113236.925 -93451.932 113227.879 -93381.515 113258.339 -93317.384 113263.182 -93312.259 114231.64 -92343.802 114293.95 -92309.779 114320.733 -92306.9 122126.099 -92306.9 122194.22 -92326.902 122240.713 -92380.558 122250.817 -92450.832 122221.323 -92515.412 122204.659 -92531.41 122108.277 -92608.272 122078.159 -92646.039 122030.929 -92705.263 122030.928 -92705.264 122030.928 -92705.265 121985.405 -92799.796 121977.105 -92817.031 121949.5 -92937.974 121949.5 -92979.082 121949.5 -94983.592 121949.5 -95000 121949.5 -95062.026 121977.105 -95182.969 122030.929 -95294.737 122108.275 -95391.725 122205.263 -95469.071 122317.031 -95522.895 122437.974 -95550.5 122437.977 -95550.5 129062.023 -95550.5 129062.026 -95550.5 129182.969 -95522.895 129294.737 -95469.071 129391.725 -95391.725 129469.071 -95294.737 129522.895 -95182.969 129550.5 -95062.026 129550.5 -95000 129550.5 -94983.592 129550.5 -92979.082 129550.5 -92937.974 129522.895 -92817.031 129469.071 -92705.263 129391.725 -92608.275 129391.723 -92608.273 129391.722 -92608.272 129295.341 -92531.41 129254.553 -92473.299 129251.658 -92402.362 129287.574 -92341.12 129350.898 -92309.018 129373.901 -92306.9 131179.266 -92306.9 131247.387 -92326.902 131268.361 -92343.805 133800.15 -94875.595 133800.154 -94875.598 133800.157 -94875.601 133800.158 -94875.602 133800.16 -94875.603 133892.939 -94929.169 133892.942 -94929.17 133996.43 -94956.9 135603.57 -94956.9 135707.058 -94929.17 135799.843 -94875.601 136425.6 -94249.843 136479.169 -94157.058 136479.17 -94157.057 136506.9 -94053.569 136506.9 -92020.733 136526.902 -91952.612 136543.805 -91931.638 136931.638 -91543.805 136993.95 -91509.779 137020.733 -91506.9 137262.133 -91506.9 137300.795 -91515.31 137301.278 -91513.669 137309.923 -91516.207 137309.924 -91516.208 137434.883 -91552.9 137434.886 -91552.9 137565.114 -91552.9 137565.117 -91552.9 137690.076 -91516.208 137799.636 -91445.799 137884.921 -91347.374 137939.023 -91228.909 137957.557 -91100 137939.023 -90971.091 137901.869 -90889.736 137884.922 -90852.628 137884.92 -90852.625 137847.194 -90809.087 137799.636 -90754.201 137690.076 -90683.792 137690.075 -90683.791 137690.074 -90683.791 137565.119 -90647.1 137565.117 -90647.1 137434.883 -90647.1 137434.88 -90647.1 137331.273 -90677.522 137309.924 -90683.792 137309.923 -90683.792 137301.278 -90686.331 137300.795 -90684.689 137262.133 -90693.1 136746.427 -90693.1 136642.943 -90720.829 136642.94 -90720.83 136550.161 -90774.396 136550.157 -90774.4 135774.401 -91550.154 135774.396 -91550.16 135720.832 -91642.936 135720.83 -91642.94 135720.83 -91642.942 135694.035 -91742.943 135694.035 -91742.944 135694.033 -91742.95 135693.1 -91746.428 135693.1 -93779.266 135673.098 -93847.387 135656.195 -93868.361 135418.361 -94106.195 135356.049 -94140.221 135329.266 -94143.1 135204.575 -94143.1 135136.454 -94123.098 135089.961 -94069.442 135079.857 -93999.168 135109.35 -93934.588 135156.737 -93879.9 135184.921 -93847.374 135239.023 -93728.909 135257.557 -93600 135239.023 -93471.091 135184.921 -93352.626 135099.636 -93254.201 134990.076 -93183.792 134990.075 -93183.791 134990.074 -93183.791 134865.119 -93147.1 134865.117 -93147.1 134734.883 -93147.1 134734.88 -93147.1 134609.924 -93183.792 134602.768 -93188.391 134534.646 -93208.391 134466.526 -93188.387 134420.035 -93134.73 134409.933 -93064.456 134439.426 -92999.878 134484.921 -92947.374 134539.023 -92828.909 134557.557 -92700 134539.023 -92571.091 134484.921 -92452.626 134399.636 -92354.201 134290.076 -92283.792 134290.075 -92283.791 134290.074 -92283.791 134165.119 -92247.1 134165.117 -92247.1 134095.128 -92247.1 134027.007 -92227.098 134006.033 -92210.195 132465.457 -90669.618 132465.447 -90669.61 132401.627 -90632.764 132401.625 -90632.763 132330.442 -90613.689 132330.439 -90613.689 130061.718 -90613.689 129993.597 -90593.687 129972.623 -90576.784 128994.397 -89598.559 128960.372 -89536.247 128959.404 -89509.013 128957.557 -89509.013 128957.557 -89500.003 128956.261 -89490.987 128939.023 -89371.091 128884.921 -89252.626 128799.636 -89154.201 128690.076 -89083.792 128690.075 -89083.791 128690.074 -89083.791 128565.119 -89047.1 128565.117 -89047.1 128434.883 -89047.1 128434.88 -89047.1 128309.925 -89083.791 128200.363 -89154.201 128115.079 -89252.625 128115.077 -89252.628 128060.978 -89371.087 128060.977 -89371.091 128042.443 -89500 128056.613 -89598.559 128060.977 -89628.908 128060.978 -89628.912 128115.077 -89747.371 128115.079 -89747.374 128200.364 -89845.799 128309.924 -89916.208 128434.883 -89952.9 128504.872 -89952.9 128572.993 -89972.902 128593.962 -89989.8 129409.167 -90805.006 129443.192 -90867.317 129438.127 -90938.133 129395.58 -90994.968 129329.06 -91019.779 129320.071 -91020.1 128468.129 -91020.1 128400.008 -91000.098 128379.034 -90983.195 127691.878 -90296.039 126994.396 -89598.558 126960.372 -89536.247 126959.404 -89509.013 126957.557 -89509.013 126957.557 -89500.003 126956.261 -89490.987 126939.023 -89371.091 126884.921 -89252.626 126799.636 -89154.201 126690.076 -89083.792 126690.075 -89083.791 126690.074 -89083.791 126565.119 -89047.1 126565.117 -89047.1 126434.883 -89047.1 126434.88 -89047.1 126309.925 -89083.791 126200.363 -89154.201 126115.079 -89252.625 126115.077 -89252.628 126060.978 -89371.087 126060.977 -89371.091 126042.443 -89500 126056.613 -89598.559 126060.977 -89628.908 126060.978 -89628.912 126115.077 -89747.371 126115.079 -89747.374 126200.364 -89845.799 126309.924 -89916.208 126434.883 -89952.9 126504.872 -89952.9 126572.993 -89972.902 126593.967 -89989.805 127882.166 -91278.005 127916.192 -91340.317 127911.127 -91411.133 127868.58 -91467.968 127802.06 -91492.779 127793.071 -91493.1 122532.9 -91493.1 122464.779 -91473.098 122418.286 -91419.442 122406.9 -91367.1 122406.9 -90220.734 122426.902 -90152.613 122443.8 -90131.643 122623.676 -89951.766 122677.273 -89919.966 122690.076 -89916.208 122690.079 -89916.205 122690.082 -89916.205 122784.379 -89855.604 122799.636 -89845.799 122884.921 -89747.374 122939.023 -89628.909 122957.557 -89500 122939.023 -89371.091 122884.921 -89252.626 122799.636 -89154.201 122690.076 -89083.792 122690.075 -89083.791 122690.074 -89083.791 122565.119 -89047.1 122565.117 -89047.1 122434.883 -89047.1 122434.88 -89047.1 122309.925 -89083.791 122200.363 -89154.201 122115.079 -89252.625 122115.078 -89252.626 122076.734 -89336.586 122051.217 -89373.337 121674.401 -89750.154 121674.396 -89750.16 121620.832 -89842.936 121620.83 -89842.94 121620.83 -89842.942 121596.488 -89933.789 121596.487 -89933.792 121593.1 -89946.43 121593.1 -91367.1 121573.098 -91435.221 121519.442 -91481.714 121467.1 -91493.1 114046.427 -91493.1 113942.943 -91520.829 113942.94 -91520.83 113850.161 -91574.396 113850.157 -91574.4 112691.193 -92733.361 112628.881 -92767.386 112558.065 -92762.321 112550.16 -92758.73 112550.087 -92758.897 112545.312 -92756.802 112333.26 -92684.004 112333.251 -92684.002 112289.277 -92676.664 112112.105 -92647.1 111887.895 -92647.1 111740.287 -92671.731 111666.748 -92684.002 111666.739 -92684.004 111454.688 -92756.802 111454.684 -92756.803 111454.684 -92756.804 111444.49 -92762.321 111257.495 -92863.517 111080.562 -93001.23 110928.712 -93166.184 110806.08 -93353.887 110716.019 -93559.204 110716.016 -93559.211 110660.979 -93776.549 110660.978 -93776.555 110660.978 -93776.557 110642.463 -94000 109458.982 -94000 109439.082 -93759.851 109379.932 -93526.272 109379.929 -93526.265 109283.138 -93305.604 109192.435 -93166.773 108792.742 -93566.465 108699.076 -93426.283 108573.717 -93300.924 108433.532 -93207.256 108834.096 -92806.692 108797.985 -92778.586 108586.066 -92663.902 108586.064 -92663.9 108358.163 -92585.662 108358.154 -92585.66 108120.478 -92546 107879.522 -92546 107641.845 -92585.66 107641.836 -92585.662 107413.935 -92663.9 107413.933 -92663.902 107202.01 -92778.588 107165.902 -92806.691 107165.901 -92806.692 107566.465 -93207.256 107426.283 -93300.924 107300.924 -93426.283 107207.256 -93566.465 106807.563 -93166.772 106807.562 -93166.773 106716.867 -93305.592 106716.86 -93305.606 106620.07 -93526.265 106620.067 -93526.272 106560.917 -93759.851 106541.017 -94000 105357.537 -94000 105339.022 -93776.557 105339.02 -93776.549 105283.983 -93559.211 105283.981 -93559.207 105193.918 -93353.884 105071.287 -93166.184 104919.435 -93001.228 104838.166 -92937.974 104742.504 -92863.517 104721.902 -92852.368 104545.316 -92756.804 104545.312 -92756.802 104545.311 -92756.802 104333.26 -92684.004 104333.251 -92684.002 104289.277 -92676.664 104112.105 -92647.1 103887.895 -92647.1 103740.287 -92671.731 103666.748 -92684.002 103666.739 -92684.004 103454.688 -92756.802 103454.684 -92756.803 103454.684 -92756.804 103444.49 -92762.321 103257.495 -92863.517 103080.562 -93001.23 102928.712 -93166.184 102806.08 -93353.887 102716.019 -93559.204 102716.016 -93559.211 102660.979 -93776.549 102660.978 -93776.555 102660.978 -93776.557 102642.463 -94000 101357.537 -94000 101339.022 -93776.557 101339.02 -93776.549 101283.983 -93559.211 101283.981 -93559.207 101193.918 -93353.884 101071.287 -93166.184 100919.435 -93001.228 100838.166 -92937.974 100742.504 -92863.517 100721.902 -92852.368 100545.316 -92756.804 100545.312 -92756.802 100545.311 -92756.802 100333.26 -92684.004 100333.251 -92684.002 100289.277 -92676.664 100112.105 -92647.1 99887.895 -92647.1 99740.287 -92671.731 99666.748 -92684.002 99666.739 -92684.004 99454.688 -92756.802 99454.684 -92756.803 99454.684 -92756.804 99444.49 -92762.321 99257.495 -92863.517 99080.562 -93001.23 98928.712 -93166.184 98806.08 -93353.887 98716.019 -93559.204 98716.016 -93559.211 98660.979 -93776.549 98660.978 -93776.555 98660.978 -93776.557 98642.463 -94000 97357.537 -94000 97339.022 -93776.557 97339.02 -93776.549 97283.983 -93559.211 97283.981 -93559.207 97193.918 -93353.884 97071.287 -93166.184 96919.435 -93001.228 96838.166 -92937.974 96742.504 -92863.517 96721.902 -92852.368 96545.316 -92756.804 96545.312 -92756.802 96545.311 -92756.802 96333.26 -92684.004 96333.251 -92684.002 96289.277 -92676.664 96112.105 -92647.1 95887.895 -92647.1 95740.287 -92671.731 95666.748 -92684.002 95666.739 -92684.004 95454.688 -92756.802 95454.684 -92756.803 95454.684 -92756.804 95444.49 -92762.321 95257.495 -92863.517 95080.562 -93001.23 94928.712 -93166.184 94806.08 -93353.887 94716.019 -93559.204 94716.016 -93559.211 94660.979 -93776.549 94660.978 -93776.555 94660.978 -93776.557 94642.463 -94000 94050.5 -94000 94050.5 -90550 102767.41 -90550 102786.136 -90764.04 102841.743 -90971.569 102841.745 -90971.573 102932.547 -91166.298 103055.776 -91342.289 103055.785 -91342.299 103207.7 -91494.214 103207.71 -91494.223 103383.701 -91617.452 103383.7 -91617.452 103438.351 -91642.936 103578.429 -91708.256 103785.963 -91763.864 104000 -91782.59 104214.037 -91763.864 104421.571 -91708.256 104616.295 -91617.454 104677.783 -91574.4 104792.289 -91494.223 104792.291 -91494.22 104792.294 -91494.219 104944.219 -91342.294 104945.604 -91340.317 105067.452 -91166.298 105067.452 -91166.297 105067.454 -91166.295 105158.256 -90971.571 105213.864 -90764.037 105232.59 -90550 106541.017 -90550 106560.917 -90790.148 106620.067 -91023.727 106620.07 -91023.734 106716.862 -91244.398 106807.562 -91383.225 106807.563 -91383.225 107207.255 -90983.532 107300.924 -91123.717 107426.283 -91249.076 107566.466 -91342.743 107165.902 -91743.307 107202.004 -91771.406 107413.937 -91886.099 107641.836 -91964.337 107641.845 -91964.339 107879.522 -92004 108120.478 -92004 108358.154 -91964.339 108358.163 -91964.337 108586.064 -91886.099 108586.066 -91886.098 108797.985 -91771.412 108797.988 -91771.411 108834.097 -91743.306 108433.534 -91342.743 108573.717 -91249.076 108699.076 -91123.717 108792.743 -90983.534 109192.434 -91383.225 109192.435 -91383.225 109283.138 -91244.395 109379.929 -91023.734 109379.932 -91023.727 109439.082 -90790.148 109458.982 -90550 109439.082 -90309.851 109379.932 -90076.272 109379.929 -90076.265 109283.138 -89855.604 109192.435 -89716.773 108792.742 -90116.465 108699.076 -89976.283 108573.717 -89850.924 108433.532 -89757.256 108834.096 -89356.692 108797.985 -89328.586 108586.066 -89213.902 108586.064 -89213.9 108358.163 -89135.662 108358.154 -89135.66 108120.478 -89096 107879.522 -89096 107641.845 -89135.66 107641.836 -89135.662 107413.935 -89213.9 107413.933 -89213.902 107202.01 -89328.588 107165.902 -89356.691 107165.901 -89356.692 107566.465 -89757.256 107426.283 -89850.924 107300.924 -89976.283 107207.256 -90116.465 106807.563 -89716.772 106807.562 -89716.773 106716.867 -89855.592 106716.86 -89855.606 106620.07 -90076.265 106620.067 -90076.272 106560.917 -90309.851 106541.017 -90550 105232.59 -90550 105213.864 -90335.963 105158.256 -90128.429 105067.454 -89933.705 105067.453 -89933.704 105067.452 -89933.701 104944.223 -89757.71 104944.214 -89757.7 104792.299 -89605.785 104792.289 -89605.776 104616.298 -89482.547 104616.299 -89482.547 104421.573 -89391.745 104421.569 -89391.743 104214.04 -89336.136 104000 -89317.41 103785.959 -89336.136 103578.43 -89391.743 103578.426 -89391.745 103383.701 -89482.547 103207.71 -89605.776 103207.7 -89605.785 103055.785 -89757.7 103055.776 -89757.71 102932.547 -89933.701 102841.745 -90128.426 102841.743 -90128.43 102786.136 -90335.959 102767.41 -90550 94050.5 -90550 94050.5 -89005.506 94050.979 -88994.525 94063.964 -88846.102 94067.778 -88824.472 94104.911 -88685.891 94112.416 -88665.269 94173.055 -88535.229 94184.026 -88516.228 94266.325 -88398.692 94280.432 -88381.881 94381.881 -88280.432 94398.692 -88266.325 94516.228 -88184.026 94535.229 -88173.055 94665.269 -88112.416 94685.891 -88104.911 94824.476 -88067.777 94846.098 -88063.964 94959.811 -88054.016 94994.526 -88050.979 95005.507 -88050.5 95016.408 -88050.5 121249.471 -88050.5 121317.592 -88070.502"/></g><g id="c46HL0UR7HpWEY1aK2zJ_bottom_silkscreen"><g mask="url(#WTl2HYTc3ewz0wPoJQnQ_clear-1)"><path d="M 139426.189 -88635.427 139426.189 -89242.57 139466.666 -89363.998 139547.618 -89444.951 139669.047 -89485.427 139749.999 -89485.427 M 138616.666 -89485.427 139021.428 -89485.427 139021.428 -88635.427 M 137847.618 -89404.474 137888.094 -89444.951 138009.523 -89485.427 138090.475 -89485.427 138211.904 -89444.951 138292.856 -89363.998 138333.333 -89283.046 138373.809 -89121.141 138373.809 -88999.712 138333.333 -88837.808 138292.856 -88756.855 138211.904 -88675.903 138090.475 -88635.427 138009.523 -88635.427 137888.094 -88675.903 137847.618 -88716.379 M 137240.475 -88635.427 137240.475 -89242.57 137280.952 -89363.998 137361.904 -89444.951 137483.333 -89485.427 137564.285 -89485.427 M 136430.952 -89485.427 136835.714 -89485.427 136835.714 -88635.427 M 135661.904 -89404.474 135702.38 -89444.951 135823.809 -89485.427 135904.761 -89485.427 136026.19 -89444.951 136107.142 -89363.998 136147.619 -89283.046 136188.095 -89121.141 136188.095 -88999.712 136147.619 -88837.808 136107.142 -88756.855 136026.19 -88675.903 135904.761 -88635.427 135823.809 -88635.427 135702.38 -88675.903 135661.904 -88716.379 M 135054.761 -88635.427 135054.761 -89242.57 135095.238 -89363.998 135176.19 -89444.951 135297.619 -89485.427 135378.571 -89485.427 M 134245.238 -89485.427 134650 -89485.427 134650 -88635.427 M 133476.19 -89404.474 133516.666 -89444.951 133638.095 -89485.427 133719.047 -89485.427 133840.476 -89444.951 133921.428 -89363.998 133961.905 -89283.046 134002.381 -89121.141 134002.381 -88999.712 133961.905 -88837.808 133921.428 -88756.855 133840.476 -88675.903 133719.047 -88635.427 133638.095 -88635.427 133516.666 -88675.903 133476.19 -88716.379 M 132869.047 -88635.427 132869.047 -89242.57 132909.524 -89363.998 132990.476 -89444.951 133111.905 -89485.427 133192.857 -89485.427 M 132059.524 -89485.427 132464.286 -89485.427 132464.286 -88635.427 M 131290.476 -89404.474 131330.952 -89444.951 131452.381 -89485.427 131533.333 -89485.427 131654.762 -89444.951 131735.714 -89363.998 131776.191 -89283.046 131816.667 -89121.141 131816.667 -88999.712 131776.191 -88837.808 131735.714 -88756.855 131654.762 -88675.903 131533.333 -88635.427 131452.381 -88635.427 131330.952 -88675.903 131290.476 -88716.379" fill="none" stroke-width="150"/></g></g><g id="c46HL0UR7HpWEY1aK2zJ_bottom_soldermask"><use xlink:href="#vLZ_Je5zw85G4nYwF1xl_pad-10" x="96000" y="-94000"/><use xlink:href="#vLZ_Je5zw85G4nYwF1xl_pad-10" x="100000" y="-94000"/><use xlink:href="#vLZ_Je5zw85G4nYwF1xl_pad-10" x="104000" y="-94000"/><use xlink:href="#vLZ_Je5zw85G4nYwF1xl_pad-10" x="108000" y="-90550"/><use xlink:href="#vLZ_Je5zw85G4nYwF1xl_pad-10" x="108000" y="-94000"/><use xlink:href="#vLZ_Je5zw85G4nYwF1xl_pad-10" x="112000" y="-94000"/><use xlink:href="#vLZ_Je5zw85G4nYwF1xl_pad-10" x="116000" y="-94000"/><use xlink:href="#vLZ_Je5zw85G4nYwF1xl_pad-10" x="120000" y="-94000"/></g><g id="c46HL0UR7HpWEY1aK2zJ_bottom_drill1" transform="scale(25.4,25.4)"><use xlink:href="#pSIZdowf8_91ZTWmzXeB_pad-1" x="4744.1" y="-3523.6"/><use xlink:href="#pSIZdowf8_91ZTWmzXeB_pad-1" x="4822.8" y="-3523.6"/><use xlink:href="#pSIZdowf8_91ZTWmzXeB_pad-1" x="4901.6" y="-3523.6"/><use xlink:href="#pSIZdowf8_91ZTWmzXeB_pad-1" x="4980.3" y="-3523.6"/><use xlink:href="#pSIZdowf8_91ZTWmzXeB_pad-1" x="5059.1" y="-3523.6"/><use xlink:href="#pSIZdowf8_91ZTWmzXeB_pad-1" x="5279.5" y="-3649.6"/><use xlink:href="#pSIZdowf8_91ZTWmzXeB_pad-1" x="5295.3" y="-3557.1"/><use xlink:href="#pSIZdowf8_91ZTWmzXeB_pad-1" x="5307.1" y="-3685"/><use xlink:href="#pSIZdowf8_91ZTWmzXeB_pad-1" x="5413.4" y="-3586.6"/><use xlink:href="#pSIZdowf8_91ZTWmzXeB_pad-1" x="5413.4" y="-3657.5"/><use xlink:href="#pSIZdowf8_91ZTWmzXeB_pad-2" x="3779.5" y="-3700.8"/><use xlink:href="#pSIZdowf8_91ZTWmzXeB_pad-2" x="3937" y="-3700.8"/><use xlink:href="#pSIZdowf8_91ZTWmzXeB_pad-2" x="4094.5" y="-3700.8"/><use xlink:href="#pSIZdowf8_91ZTWmzXeB_pad-2" x="4252" y="-3565"/><use xlink:href="#pSIZdowf8_91ZTWmzXeB_pad-2" x="4252" y="-3700.8"/><use xlink:href="#pSIZdowf8_91ZTWmzXeB_pad-2" x="4409.4" y="-3700.8"/><use xlink:href="#pSIZdowf8_91ZTWmzXeB_pad-2" x="4566.9" y="-3700.8"/><use xlink:href="#pSIZdowf8_91ZTWmzXeB_pad-2" x="4724.4" y="-3700.8"/></g><clipPath id="c46HL0UR7HpWEY1aK2zJ_bottom_outline"><path d="M 94000 -89000 94000 -96000 A 1000 1000 0 0 1 95000 -97000 L 134500 -97000 A 500 500 0 0 1 135000 -96500 500 500 0 0 0 135500 -96000 L 141000 -96000 A 1000 1000 0 0 1 142000 -95000 L 142000 -89000 A 1000 1000 0 0 1 141000 -88000 L 95000 -88000 A 1000 1000 0 0 1 94000 -89000 M 122000 -93000 122000 -95000 A 500 500 0 0 1 122500 -95500 L 129000 -95500 A 500 500 0 0 1 129500 -95000 L 129500 -93000 A 500 500 0 0 1 129000 -92500 L 122500 -92500 A 500 500 0 0 1 122000 -93000" fill="none" stroke-width="100"/></clipPath><mask id="c46HL0UR7HpWEY1aK2zJ_bottom_mech-mask"><g fill="#000" stroke="#000"><rect x="94000" y="-97000" width="48000" height="9000" fill="#fff"/><use xlink:href="#c46HL0UR7HpWEY1aK2zJ_bottom_drill1"/></g></mask><mask id="c46HL0UR7HpWEY1aK2zJ_bottom_cf-mask"><g fill="#fff" stroke="#fff"><use xlink:href="#c46HL0UR7HpWEY1aK2zJ_bottom_soldermask"/></g></mask><mask id="c46HL0UR7HpWEY1aK2zJ_bottom_sm-mask"><g fill="#000" stroke="#000"><rect x="94000" y="-97000" width="48000" height="9000" fill="#fff"/><use xlink:href="#c46HL0UR7HpWEY1aK2zJ_bottom_soldermask"/></g></mask></defs><g transform="translate(0,-185000) scale(1,-1)"><g mask="url(#c46HL0UR7HpWEY1aK2zJ_bottom_mech-mask)" clip-path="url(#c46HL0UR7HpWEY1aK2zJ_bottom_outline)" transform="translate(236000,0) scale(-1,1)"><rect x="94000" y="-97000" width="48000" height="9000" fill="currentColor" class="c46HL0UR7HpWEY1aK2zJ_fr4"/><use xlink:href="#c46HL0UR7HpWEY1aK2zJ_bottom_copper" fill="currentColor" stroke="currentColor" class="c46HL0UR7HpWEY1aK2zJ_cu"/><use xlink:href="#c46HL0UR7HpWEY1aK2zJ_bottom_copper" fill="currentColor" stroke="currentColor" class="c46HL0UR7HpWEY1aK2zJ_cf" mask="url(#c46HL0UR7HpWEY1aK2zJ_bottom_cf-mask)"/><g mask="url(#c46HL0UR7HpWEY1aK2zJ_bottom_sm-mask)"><rect x="94000" y="-97000" width="48000" height="9000" fill="currentColor" class="c46HL0UR7HpWEY1aK2zJ_sm"/><use xlink:href="#c46HL0UR7HpWEY1aK2zJ_bottom_silkscreen" fill="currentColor" stroke="currentColor" class="c46HL0UR7HpWEY1aK2zJ_ss"/></g></g></g></svg>