<svg version="1.1" xmlns="http://www.w3.org/2000/svg" xmlns:xlink="http://www.w3.org/1999/xlink" stroke-linecap="round" stroke-linejoin="round" stroke-width="0" fill-rule="evenodd" clip-rule="evenodd" id="l5hOAyLajr8HwcWnrPjs_bottom" viewBox="104000 -96000 17500 11000" width="17.5mm" height="11mm" class="w-100 h-100"><defs><style>.l5hOAyLajr8HwcWnrPjs_fr4 {color: #666666;}
.l5hOAyLajr8HwcWnrPjs_cu {color: #cccccc;}
.l5hOAyLajr8HwcWnrPjs_cf {color: #cc9933;}
.l5hOAyLajr8HwcWnrPjs_sm {color: #004200; opacity: 0.75;}
.l5hOAyLajr8HwcWnrPjs_ss {color: #ffffff;}
.l5hOAyLajr8HwcWnrPjs_sp {color: #999999;}
.l5hOAyLajr8HwcWnrPjs_out {color: #000000;}</style><circle cx="0" cy="0" r="600" id="G51hXkUsli7ntkl2wa6G_pad-11"/><rect x="-700" y="-900" width="1400" height="1800" rx="700" ry="700" id="G51hXkUsli7ntkl2wa6G_pad-12"/><mask id="G51hXkUsli7ntkl2wa6G_clear-1" fill="#000" stroke="#000"><g><rect x="110615.476" y="-88660.427" width="8609.523" height="1000" fill="#fff"/><use xlink:href="#G51hXkUsli7ntkl2wa6G_pad-11" x="111500" y="-90000"/><use xlink:href="#G51hXkUsli7ntkl2wa6G_pad-11" x="112500" y="-92500"/><use xlink:href="#G51hXkUsli7ntkl2wa6G_pad-11" x="113500" y="-90000"/><use xlink:href="#G51hXkUsli7ntkl2wa6G_pad-11" x="114500" y="-92500"/><use xlink:href="#G51hXkUsli7ntkl2wa6G_pad-12" x="109500" y="-89750"/><use xlink:href="#G51hXkUsli7ntkl2wa6G_pad-12" x="107500" y="-89750"/><use xlink:href="#G51hXkUsli7ntkl2wa6G_pad-12" x="108500" y="-92250"/><use xlink:href="#G51hXkUsli7ntkl2wa6G_pad-12" x="106500" y="-92250"/><use xlink:href="#G51hXkUsli7ntkl2wa6G_pad-12" x="110500" y="-92250"/><use xlink:href="#G51hXkUsli7ntkl2wa6G_pad-12" x="105500" y="-89750"/></g></mask><circle cx="0" cy="0" r="600" id="GLJ4FuELB8lvF7mxZiJp_pad-10"/><rect x="-700" y="-900" width="1400" height="1800" rx="700" ry="700" id="GLJ4FuELB8lvF7mxZiJp_pad-11"/><rect x="-700" y="-900" width="1400" height="1800" rx="700" ry="700" id="q7HH4uL6e9GpHmU8kqvI_pad-14"/><circle cx="0" cy="0" r="300" id="q7HH4uL6e9GpHmU8kqvI_pad-15"/><circle cx="0" cy="0" r="23.6" id="J1hogTXUkUEuuF5KyNFY_pad-1"/><circle cx="0" cy="0" r="5.9" id="nqqBZqwVYYLBm3Podk4x_pad-1"/><circle cx="0" cy="0" r="23.6" id="nqqBZqwVYYLBm3Podk4x_pad-2"/><g id="l5hOAyLajr8HwcWnrPjs_bottom_silkscreen"><g mask="url(#G51hXkUsli7ntkl2wa6G_clear-1)"><path d="M 118826.189 -87735.427 118826.189 -88342.57 118866.666 -88463.998 118947.618 -88544.951 119069.047 -88585.427 119149.999 -88585.427 M 118016.666 -88585.427 118421.428 -88585.427 118421.428 -87735.427 M 117247.618 -88504.474 117288.094 -88544.951 117409.523 -88585.427 117490.475 -88585.427 117611.904 -88544.951 117692.856 -88463.998 117733.333 -88383.046 117773.809 -88221.141 117773.809 -88099.712 117733.333 -87937.808 117692.856 -87856.855 117611.904 -87775.903 117490.475 -87735.427 117409.523 -87735.427 117288.094 -87775.903 117247.618 -87816.379 M 116640.475 -87735.427 116640.475 -88342.57 116680.952 -88463.998 116761.904 -88544.951 116883.333 -88585.427 116964.285 -88585.427 M 115830.952 -88585.427 116235.714 -88585.427 116235.714 -87735.427 M 115061.904 -88504.474 115102.38 -88544.951 115223.809 -88585.427 115304.761 -88585.427 115426.19 -88544.951 115507.142 -88463.998 115547.619 -88383.046 115588.095 -88221.141 115588.095 -88099.712 115547.619 -87937.808 115507.142 -87856.855 115426.19 -87775.903 115304.761 -87735.427 115223.809 -87735.427 115102.38 -87775.903 115061.904 -87816.379 M 114454.761 -87735.427 114454.761 -88342.57 114495.238 -88463.998 114576.19 -88544.951 114697.619 -88585.427 114778.571 -88585.427 M 113645.238 -88585.427 114050 -88585.427 114050 -87735.427 M 112876.19 -88504.474 112916.666 -88544.951 113038.095 -88585.427 113119.047 -88585.427 113240.476 -88544.951 113321.428 -88463.998 113361.905 -88383.046 113402.381 -88221.141 113402.381 -88099.712 113361.905 -87937.808 113321.428 -87856.855 113240.476 -87775.903 113119.047 -87735.427 113038.095 -87735.427 112916.666 -87775.903 112876.19 -87816.379 M 112269.047 -87735.427 112269.047 -88342.57 112309.524 -88463.998 112390.476 -88544.951 112511.905 -88585.427 112592.857 -88585.427 M 111459.524 -88585.427 111864.286 -88585.427 111864.286 -87735.427 M 110690.476 -88504.474 110730.952 -88544.951 110852.381 -88585.427 110933.333 -88585.427 111054.762 -88544.951 111135.714 -88463.998 111176.191 -88383.046 111216.667 -88221.141 111216.667 -88099.712 111176.191 -87937.808 111135.714 -87856.855 111054.762 -87775.903 110933.333 -87735.427 110852.381 -87735.427 110730.952 -87775.903 110690.476 -87816.379" fill="none" stroke-width="150"/></g></g><g id="l5hOAyLajr8HwcWnrPjs_bottom_soldermask"><use xlink:href="#GLJ4FuELB8lvF7mxZiJp_pad-10" x="111500" y="-90000"/><use xlink:href="#GLJ4FuELB8lvF7mxZiJp_pad-10" x="112500" y="-92500"/><use xlink:href="#GLJ4FuELB8lvF7mxZiJp_pad-10" x="113500" y="-90000"/><use xlink:href="#GLJ4FuELB8lvF7mxZiJp_pad-10" x="114500" y="-92500"/><use xlink:href="#GLJ4FuELB8lvF7mxZiJp_pad-11" x="109500" y="-89750"/><use xlink:href="#GLJ4FuELB8lvF7mxZiJp_pad-11" x="107500" y="-89750"/><use xlink:href="#GLJ4FuELB8lvF7mxZiJp_pad-11" x="108500" y="-92250"/><use xlink:href="#GLJ4FuELB8lvF7mxZiJp_pad-11" x="106500" y="-92250"/><use xlink:href="#GLJ4FuELB8lvF7mxZiJp_pad-11" x="110500" y="-92250"/><use xlink:href="#GLJ4FuELB8lvF7mxZiJp_pad-11" x="105500" y="-89750"/></g><g id="l5hOAyLajr8HwcWnrPjs_bottom_copper"><path d="M 121100 -86300 A 1000 1000 0 0 0 119100 -86300 1000 1000 0 0 0 121100 -86300" fill="none" stroke-width="150"/><path d="M 118448.496 -86032.245 118477.068 -86060.817 118562.782 -86089.388 118619.925 -86089.388 118705.639 -86060.817 118762.782 -86003.674 118791.353 -85946.531 118819.925 -85832.245 118819.925 -85746.531 118791.353 -85632.245 118762.782 -85575.102 118705.639 -85517.959 118619.925 -85489.388 118562.782 -85489.388 118477.068 -85517.959 118448.496 -85546.531 M 118277.068 -85489.388 117934.211 -85489.388 M 118105.639 -86089.388 118105.639 -85489.388 M 117391.353 -86089.388 117591.353 -85803.674 M 117734.21 -86089.388 117734.21 -85489.388 117505.639 -85489.388 117448.496 -85517.959 117419.925 -85546.531 117391.353 -85603.674 117391.353 -85689.388 117419.925 -85746.531 117448.496 -85775.102 117505.639 -85803.674 117734.21 -85803.674 M 116848.496 -86089.388 117134.21 -86089.388 117134.21 -85489.388 M 116305.639 -86089.388 116505.639 -85803.674 M 116648.496 -86089.388 116648.496 -85489.388 116419.925 -85489.388 116362.782 -85517.959 116334.211 -85546.531 116305.639 -85603.674 116305.639 -85689.388 116334.211 -85746.531 116362.782 -85775.102 116419.925 -85803.674 116648.496 -85803.674 M 116048.496 -86089.388 116048.496 -85489.388 115819.925 -85489.388 115762.782 -85517.959 115734.211 -85546.531 115705.639 -85603.674 115705.639 -85689.388 115734.211 -85746.531 115762.782 -85775.102 115819.925 -85803.674 116048.496 -85803.674 M 115105.639 -86032.245 115134.211 -86060.817 115219.925 -86089.388 115277.068 -86089.388 115362.782 -86060.817 115419.925 -86003.674 115448.496 -85946.531 115477.068 -85832.245 115477.068 -85746.531 115448.496 -85632.245 115419.925 -85575.102 115362.782 -85517.959 115277.068 -85489.388 115219.925 -85489.388 115134.211 -85517.959 115105.639 -85546.531 M 114648.496 -85775.102 114562.782 -85803.674 114534.211 -85832.245 114505.639 -85889.388 114505.639 -85975.102 114534.211 -86032.245 114562.782 -86060.817 114619.925 -86089.388 114848.496 -86089.388 114848.496 -85489.388 114648.496 -85489.388 114591.354 -85517.959 114562.782 -85546.531 114534.211 -85603.674 114534.211 -85660.817 114562.782 -85717.959 114591.354 -85746.531 114648.496 -85775.102 114848.496 -85775.102 M 113819.925 -85460.817 114334.211 -86232.245 M 113277.068 -86032.245 113305.64 -86060.817 113391.354 -86089.388 113448.497 -86089.388 113534.211 -86060.817 113591.354 -86003.674 113619.925 -85946.531 113648.497 -85832.245 113648.497 -85746.531 113619.925 -85632.245 113591.354 -85575.102 113534.211 -85517.959 113448.497 -85489.388 113391.354 -85489.388 113305.64 -85517.959 113277.068 -85546.531 M 113019.925 -85775.102 112819.925 -85775.102 M 112734.211 -86089.388 113019.925 -86089.388 113019.925 -85489.388 112734.211 -85489.388 M 112477.068 -86089.388 112477.068 -85489.388 112134.211 -86089.388 112134.211 -85489.388 M 111934.212 -85489.388 111591.355 -85489.388 M 111762.783 -86089.388 111762.783 -85489.388 M 111391.354 -85775.102 111191.354 -85775.102 M 111105.64 -86089.388 111391.354 -86089.388 111391.354 -85489.388 111105.64 -85489.388 M 110505.64 -86089.388 110705.64 -85803.674 M 110848.497 -86089.388 110848.497 -85489.388 110619.926 -85489.388 110562.783 -85517.959 110534.212 -85546.531 110505.64 -85603.674 110505.64 -85689.388 110534.212 -85746.531 110562.783 -85775.102 110619.926 -85803.674 110848.497 -85803.674 M 109819.926 -85460.817 110334.212 -86232.245 M 109619.926 -85489.388 109619.926 -85975.102 109591.355 -86032.245 109562.784 -86060.817 109505.641 -86089.388 109391.355 -86089.388 109334.212 -86060.817 109305.641 -86032.245 109277.069 -85975.102 109277.069 -85489.388 M 108591.355 -86146.531 108648.498 -86117.959 108705.641 -86060.817 108791.355 -85975.102 108848.498 -85946.531 108905.641 -85946.531 M 108877.07 -86089.388 108934.213 -86060.817 108991.355 -86003.674 109019.927 -85889.388 109019.927 -85689.388 108991.355 -85575.102 108934.213 -85517.959 108877.07 -85489.388 108762.784 -85489.388 108705.641 -85517.959 108648.498 -85575.102 108619.927 -85689.388 108619.927 -85889.388 108648.498 -86003.674 108705.641 -86060.817 108762.784 -86089.388 108877.07 -86089.388 M 108162.784 -85775.102 108362.784 -85775.102 M 108362.784 -86089.388 108362.784 -85489.388 108077.07 -85489.388 M 107848.498 -86089.388 107848.498 -85489.388 107505.641 -86089.388 107505.641 -85489.388 M 106819.927 -85689.388 106677.07 -86089.388 106534.213 -85689.388 M 106077.07 -86060.817 106134.213 -86089.388 106248.499 -86089.388 106305.641 -86060.817 106334.213 -86003.674 106334.213 -85775.102 106305.641 -85717.959 106248.499 -85689.388 106134.213 -85689.388 106077.07 -85717.959 106048.499 -85775.102 106048.499 -85832.245 106334.213 -85889.388 M 105791.355 -86089.388 105791.355 -85689.388 M 105791.355 -85803.674 105762.784 -85746.531 105734.213 -85717.959 105677.07 -85689.388 105619.927 -85689.388 M 118534.211 -86655.354 118534.211 -87141.068 118562.782 -87198.211 118591.353 -87226.783 118648.496 -87255.354 118734.211 -87255.354 118791.353 -87226.783 M 118534.211 -87026.783 118591.353 -87055.354 118705.639 -87055.354 118762.782 -87026.783 118791.353 -86998.211 118819.925 -86941.068 118819.925 -86769.64 118791.353 -86712.497 118762.782 -86683.925 118705.639 -86655.354 118591.353 -86655.354 118534.211 -86683.925 M 118248.496 -87055.354 118248.496 -86655.354 M 118248.496 -86455.354 118277.068 -86483.925 118248.496 -86512.497 118219.925 -86483.925 118248.496 -86455.354 118248.496 -86512.497 M 118048.497 -86655.354 117819.925 -86655.354 M 117962.782 -86455.354 117962.782 -86969.64 117934.211 -87026.783 117877.068 -87055.354 117819.925 -87055.354 M 117619.925 -87055.354 117619.925 -86455.354 M 117362.783 -87055.354 117362.783 -86741.068 117391.354 -86683.925 117448.497 -86655.354 117534.211 -86655.354 117591.354 -86683.925 117619.925 -86712.497 M 116819.926 -86655.354 116819.926 -87055.354 M 117077.068 -86655.354 117077.068 -86969.64 117048.497 -87026.783 116991.354 -87055.354 116905.64 -87055.354 116848.497 -87026.783 116819.926 -86998.211 M 116534.211 -87055.354 116534.211 -86455.354 M 116534.211 -86683.925 116477.069 -86655.354 116362.783 -86655.354 116305.64 -86683.925 116277.069 -86712.497 116248.497 -86769.64 116248.497 -86941.068 116277.069 -86998.211 116305.64 -87026.783 116362.783 -87055.354 116477.069 -87055.354 116534.211 -87026.783 M 115991.354 -86998.211 115962.783 -87026.783 115991.354 -87055.354 116019.926 -87026.783 115991.354 -86998.211 115991.354 -87055.354 M 115448.498 -87026.783 115505.64 -87055.354 115619.926 -87055.354 115677.069 -87026.783 115705.64 -86998.211 115734.212 -86941.068 115734.212 -86769.64 115705.64 -86712.497 115677.069 -86683.925 115619.926 -86655.354 115505.64 -86655.354 115448.498 -86683.925 M 115105.64 -87055.354 115162.783 -87026.783 115191.354 -86998.211 115219.926 -86941.068 115219.926 -86769.64 115191.354 -86712.497 115162.783 -86683.925 115105.64 -86655.354 115019.926 -86655.354 114962.783 -86683.925 114934.212 -86712.497 114905.64 -86769.64 114905.64 -86941.068 114934.212 -86998.211 114962.783 -87026.783 115019.926 -87055.354 115105.64 -87055.354 M 114648.497 -87055.354 114648.497 -86655.354 M 114648.497 -86712.497 114619.926 -86683.925 114562.783 -86655.354 114477.069 -86655.354 114419.926 -86683.925 114391.355 -86741.068 114391.355 -87055.354 M 114391.355 -86741.068 114362.783 -86683.925 114305.64 -86655.354 114219.926 -86655.354 114162.783 -86683.925 114134.212 -86741.068 114134.212 -87055.354 M 113419.926 -86426.783 113934.212 -87198.211 M 113219.926 -86655.354 113219.926 -87169.64 113248.498 -87226.783 113305.641 -87255.354 113334.212 -87255.354 M 113219.926 -86455.354 113248.498 -86483.925 113219.926 -86512.497 113191.355 -86483.925 113219.926 -86455.354 113219.926 -86512.497 M 112934.212 -86655.354 112934.212 -87055.354 M 112934.212 -86712.497 112905.641 -86683.925 112848.498 -86655.354 112762.784 -86655.354 112705.641 -86683.925 112677.07 -86741.068 112677.07 -87055.354 M 112477.07 -86655.354 112248.498 -86655.354 M 112391.355 -87055.354 112391.355 -86541.068 112362.784 -86483.925 112305.641 -86455.354 112248.498 -86455.354 M 112134.213 -86655.354 111905.641 -86655.354 M 112048.498 -86455.354 112048.498 -86969.64 112019.927 -87026.783 111962.784 -87055.354 111905.641 -87055.354 M 111477.07 -87026.783 111534.213 -87055.354 111648.499 -87055.354 111705.641 -87026.783 111734.213 -86969.64 111734.213 -86741.068 111705.641 -86683.925 111648.499 -86655.354 111534.213 -86655.354 111477.07 -86683.925 111448.499 -86741.068 111448.499 -86798.211 111734.213 -86855.354 M 110934.213 -87026.783 110991.355 -87055.354 111105.641 -87055.354 111162.784 -87026.783 111191.355 -86998.211 111219.927 -86941.068 111219.927 -86769.64 111191.355 -86712.497 111162.784 -86683.925 111105.641 -86655.354 110991.355 -86655.354 110934.213 -86683.925 M 110677.069 -87055.354 110677.069 -86455.354 M 110419.927 -87055.354 110419.927 -86741.068 110448.498 -86683.925 110505.641 -86655.354 110591.355 -86655.354 110648.498 -86683.925 110677.069 -86712.497 M 109705.641 -86512.497 109677.069 -86483.925 109619.927 -86455.354 109477.069 -86455.354 109419.927 -86483.925 109391.355 -86512.497 109362.784 -86569.64 109362.784 -86626.783 109391.355 -86712.497 109734.212 -87055.354 109362.784 -87055.354 M 108991.355 -86455.354 108934.212 -86455.354 108877.069 -86483.925 108848.498 -86512.497 108819.926 -86569.64 108791.355 -86683.925 108791.355 -86826.783 108819.926 -86941.068 108848.498 -86998.211 108877.069 -87026.783 108934.212 -87055.354 108991.355 -87055.354 109048.498 -87026.783 109077.069 -86998.211 109105.64 -86941.068 109134.212 -86826.783 109134.212 -86683.925 109105.64 -86569.64 109077.069 -86512.497 109048.498 -86483.925 108991.355 -86455.354 M 108562.783 -86512.497 108534.211 -86483.925 108477.069 -86455.354 108334.211 -86455.354 108277.069 -86483.925 108248.497 -86512.497 108219.926 -86569.64 108219.926 -86626.783 108248.497 -86712.497 108591.354 -87055.354 108219.926 -87055.354 M 107705.64 -86655.354 107705.64 -87055.354 M 107848.497 -86426.783 107991.354 -86855.354 107619.925 -86855.354 M 107077.068 -87055.354 107419.925 -87055.354 M 107248.496 -87055.354 107248.496 -86455.354 107305.639 -86541.068 107362.782 -86598.211 107419.925 -86626.783 M 106848.496 -86512.497 106819.924 -86483.925 106762.782 -86455.354 106619.924 -86455.354 106562.782 -86483.925 106534.21 -86512.497 106505.639 -86569.64 106505.639 -86626.783 106534.21 -86712.497 106877.067 -87055.354 106505.639 -87055.354 M 105934.21 -87055.354 106277.067 -87055.354 M 106105.638 -87055.354 106105.638 -86455.354 106162.781 -86541.068 106219.924 -86598.211 106277.067 -86626.783 M 105648.495 -87055.354 105534.209 -87055.354 105477.066 -87026.783 105448.495 -86998.211 105391.352 -86912.497 105362.781 -86798.211 105362.781 -86569.64 105391.352 -86512.497 105419.924 -86483.925 105477.066 -86455.354 105591.352 -86455.354 105648.495 -86483.925 105677.066 -86512.497 105705.638 -86569.64 105705.638 -86712.497 105677.066 -86769.64 105648.495 -86798.211 105591.352 -86826.783 105477.066 -86826.783 105419.924 -86798.211 105391.352 -86769.64 105362.781 -86712.497" fill="none" stroke-width="100"/><path d="M 119759.822 -86120.839 119607.875 -86120.839 119607.875 -85973.428 119759.822 -85973.428 119759.822 -86120.839" fill="none" stroke-width="10"/><path d="M 119759.822 -86120.839 119607.875 -86120.839 119607.875 -85973.428 119759.822 -85973.428 119759.822 -86120.839"/><path d="M 120589.857 -85830.553 120383.257 -85830.553 120384.143 -86221.191 120384.16 -86228.513 120384.275 -86278.614 120384.386 -86324.428 120384.499 -86366.174 120384.619 -86404.07 120384.749 -86438.334 120384.896 -86469.186 120385.064 -86496.844 120385.259 -86521.526 120385.485 -86543.451 120385.748 -86562.838 120386.052 -86579.904 120386.402 -86594.868 120386.804 -86607.95 120387.263 -86619.367 120387.783 -86629.337 120388.37 -86638.081 120389.028 -86645.815 120389.763 -86652.759 120390.58 -86659.13 120391.483 -86665.148 120392.478 -86671.032 120393.57 -86676.999 120394.763 -86683.267 120398.126 -86699.013 120404.685 -86721.808 120412.781 -86740.844 120422.768 -86756.541 120435.004 -86769.32 120449.841 -86779.6 120467.637 -86787.802 120488.745 -86794.343 120497.329 -86796.278 120512.844 -86798.918 120529.778 -86801.003 120546.676 -86802.394 120562.085 -86802.953 120574.549 -86802.541 120589.857 -86801.164 120589.857 -86937.93 120546.201 -86936.636 120539.493 -86936.406 120500.106 -86933.651 120464.338 -86928.537 120431.914 -86920.974 120402.56 -86910.868 120376.001 -86898.13 120351.962 -86882.665 120330.17 -86864.384 120315.572 -86848.959 120298.182 -86825.528 120282.972 -86798.568 120269.872 -86767.93 120258.811 -86733.468 120249.721 -86695.035 120249.671 -86694.79 120247.889 -86685.949 120246.259 -86677.799 120244.775 -86670.111 120243.429 -86662.66 120242.213 -86655.217 120241.122 -86647.556 120240.147 -86639.449 120239.281 -86630.669 120238.518 -86620.988 120237.849 -86610.181 120237.268 -86598.019 120236.767 -86584.274 120236.339 -86568.721 120235.978 -86551.132 120235.675 -86531.279 120235.423 -86508.935 120235.216 -86483.874 120235.046 -86455.867 120234.905 -86424.688 120234.787 -86390.109 120234.685 -86351.904 120234.59 -86309.844 120234.497 -86263.703 120234.397 -86213.254 120233.631 -85830.553 120170.304 -85830.553 120170.304 -86923.722 120096.032 -86923.124 120021.759 -86922.526 120021.188 -86376.54 120020.616 -85830.553 119964.102 -85830.553 119963.336 -86213.254 119963.324 -86219.432 119963.222 -86268.25 119963.121 -86312.777 119963.019 -86353.23 119962.912 -86389.828 119962.799 -86422.788 119962.677 -86452.328 119962.543 -86478.665 119962.395 -86502.019 119962.231 -86522.607 119962.048 -86540.647 119961.844 -86556.356 119961.616 -86569.954 119961.361 -86581.656 119961.078 -86591.683 119960.764 -86600.25 119960.416 -86607.578 119960.031 -86613.882 119959.608 -86619.382 119959.144 -86624.295 119958.637 -86628.839 119957.545 -86637.6 119950.456 -86682.371 119941.315 -86723.155 119930.129 -86759.939 119916.902 -86792.712 119901.639 -86821.46 119884.344 -86846.172 119865.023 -86866.837 119843.713 -86883.971 119817.654 -86899.789 119788.423 -86912.76 119755.894 -86922.928 119719.944 -86930.342 119680.447 -86935.046 119667.48 -86935.929 119653.178 -86936.588 119639.912 -86936.911 119629.42 -86936.836 119609.009 -86936.133 119608.409 -86868.774 119607.808 -86801.414 119639.08 -86801.343 119662.28 -86800.623 119691.776 -86797.378 119717.661 -86791.532 119739.905 -86783.097 119758.48 -86772.087 119773.357 -86758.511 119784.505 -86742.382 119789.229 -86732.197 119795.649 -86713.156 119801.158 -86689.88 119805.731 -86662.5 119809.344 -86631.148 119811.973 -86595.955 119811.994 -86595.573 119812.258 -86588.299 119812.512 -86576.752 119812.753 -86561.178 119812.981 -86541.821 119813.194 -86518.926 119813.391 -86492.737 119813.571 -86463.498 119813.731 -86431.454 119813.871 -86396.849 119813.989 -86359.929 119814.084 -86320.937 119814.155 -86280.118 119814.2 -86237.716 119814.218 -86193.977 119814.25 -85830.553 119607.813 -85830.553 119608.411 -85756.281 119609.009 -85682.008 120589.857 -85680.864 120589.857 -85830.553" fill="none" stroke-width="10"/><path d="M 120589.857 -85830.553 120383.257 -85830.553 120384.143 -86221.191 120384.16 -86228.513 120384.275 -86278.614 120384.386 -86324.428 120384.499 -86366.174 120384.619 -86404.07 120384.749 -86438.334 120384.896 -86469.186 120385.064 -86496.844 120385.259 -86521.526 120385.485 -86543.451 120385.748 -86562.838 120386.052 -86579.904 120386.402 -86594.868 120386.804 -86607.95 120387.263 -86619.367 120387.783 -86629.337 120388.37 -86638.081 120389.028 -86645.815 120389.763 -86652.759 120390.58 -86659.13 120391.483 -86665.148 120392.478 -86671.032 120393.57 -86676.999 120394.763 -86683.267 120398.126 -86699.013 120404.685 -86721.808 120412.781 -86740.844 120422.768 -86756.541 120435.004 -86769.32 120449.841 -86779.6 120467.637 -86787.802 120488.745 -86794.343 120497.329 -86796.278 120512.844 -86798.918 120529.778 -86801.003 120546.676 -86802.394 120562.085 -86802.953 120574.549 -86802.541 120589.857 -86801.164 120589.857 -86937.93 120546.201 -86936.636 120539.493 -86936.406 120500.106 -86933.651 120464.338 -86928.537 120431.914 -86920.974 120402.56 -86910.868 120376.001 -86898.13 120351.962 -86882.665 120330.17 -86864.384 120315.572 -86848.959 120298.182 -86825.528 120282.972 -86798.568 120269.872 -86767.93 120258.811 -86733.468 120249.721 -86695.035 120249.671 -86694.79 120247.889 -86685.949 120246.259 -86677.799 120244.775 -86670.111 120243.429 -86662.66 120242.213 -86655.217 120241.122 -86647.556 120240.147 -86639.449 120239.281 -86630.669 120238.518 -86620.988 120237.849 -86610.181 120237.268 -86598.019 120236.767 -86584.274 120236.339 -86568.721 120235.978 -86551.132 120235.675 -86531.279 120235.423 -86508.935 120235.216 -86483.874 120235.046 -86455.867 120234.905 -86424.688 120234.787 -86390.109 120234.685 -86351.904 120234.59 -86309.844 120234.497 -86263.703 120234.397 -86213.254 120233.631 -85830.553 120170.304 -85830.553 120170.304 -86923.722 120096.032 -86923.124 120021.759 -86922.526 120021.188 -86376.54 120020.616 -85830.553 119964.102 -85830.553 119963.336 -86213.254 119963.324 -86219.432 119963.222 -86268.25 119963.121 -86312.777 119963.019 -86353.23 119962.912 -86389.828 119962.799 -86422.788 119962.677 -86452.328 119962.543 -86478.665 119962.395 -86502.019 119962.231 -86522.607 119962.048 -86540.647 119961.844 -86556.356 119961.616 -86569.954 119961.361 -86581.656 119961.078 -86591.683 119960.764 -86600.25 119960.416 -86607.578 119960.031 -86613.882 119959.608 -86619.382 119959.144 -86624.295 119958.637 -86628.839 119957.545 -86637.6 119950.456 -86682.371 119941.315 -86723.155 119930.129 -86759.939 119916.902 -86792.712 119901.639 -86821.46 119884.344 -86846.172 119865.023 -86866.837 119843.713 -86883.971 119817.654 -86899.789 119788.423 -86912.76 119755.894 -86922.928 119719.944 -86930.342 119680.447 -86935.046 119667.48 -86935.929 119653.178 -86936.588 119639.912 -86936.911 119629.42 -86936.836 119609.009 -86936.133 119608.409 -86868.774 119607.808 -86801.414 119639.08 -86801.343 119662.28 -86800.623 119691.776 -86797.378 119717.661 -86791.532 119739.905 -86783.097 119758.48 -86772.087 119773.357 -86758.511 119784.505 -86742.382 119789.229 -86732.197 119795.649 -86713.156 119801.158 -86689.88 119805.731 -86662.5 119809.344 -86631.148 119811.973 -86595.955 119811.994 -86595.573 119812.258 -86588.299 119812.512 -86576.752 119812.753 -86561.178 119812.981 -86541.821 119813.194 -86518.926 119813.391 -86492.737 119813.571 -86463.498 119813.731 -86431.454 119813.871 -86396.849 119813.989 -86359.929 119814.084 -86320.937 119814.155 -86280.118 119814.2 -86237.716 119814.218 -86193.977 119814.25 -85830.553 119607.813 -85830.553 119608.411 -85756.281 119609.009 -85682.008 120589.857 -85680.864 120589.857 -85830.553"/><use xlink:href="#q7HH4uL6e9GpHmU8kqvI_pad-14" x="109500" y="-89750"/><use xlink:href="#q7HH4uL6e9GpHmU8kqvI_pad-14" x="107500" y="-89750"/><use xlink:href="#q7HH4uL6e9GpHmU8kqvI_pad-14" x="108500" y="-92250"/><use xlink:href="#q7HH4uL6e9GpHmU8kqvI_pad-14" x="106500" y="-92250"/><use xlink:href="#q7HH4uL6e9GpHmU8kqvI_pad-14" x="110500" y="-92250"/><use xlink:href="#q7HH4uL6e9GpHmU8kqvI_pad-14" x="105500" y="-89750"/><use xlink:href="#q7HH4uL6e9GpHmU8kqvI_pad-15" x="111000" y="-95000"/><use xlink:href="#q7HH4uL6e9GpHmU8kqvI_pad-15" x="118000" y="-94300"/><use xlink:href="#q7HH4uL6e9GpHmU8kqvI_pad-15" x="117000" y="-90500"/><use xlink:href="#q7HH4uL6e9GpHmU8kqvI_pad-15" x="118000" y="-90500"/><use xlink:href="#q7HH4uL6e9GpHmU8kqvI_pad-15" x="117500" y="-90000"/><use xlink:href="#q7HH4uL6e9GpHmU8kqvI_pad-15" x="109000" y="-95000"/><use xlink:href="#q7HH4uL6e9GpHmU8kqvI_pad-15" x="116200" y="-95000"/><use xlink:href="#q7HH4uL6e9GpHmU8kqvI_pad-15" x="118000" y="-91500"/><use xlink:href="#q7HH4uL6e9GpHmU8kqvI_pad-15" x="118000" y="-89500"/><use xlink:href="#q7HH4uL6e9GpHmU8kqvI_pad-15" x="119000" y="-90500"/><use xlink:href="#q7HH4uL6e9GpHmU8kqvI_pad-15" x="118500" y="-91000"/><use xlink:href="#q7HH4uL6e9GpHmU8kqvI_pad-15" x="117500" y="-91000"/><use xlink:href="#q7HH4uL6e9GpHmU8kqvI_pad-15" x="118500" y="-90000"/><use xlink:href="#q7HH4uL6e9GpHmU8kqvI_pad-15" x="120000" y="-88500"/><use xlink:href="#q7HH4uL6e9GpHmU8kqvI_pad-15" x="113000" y="-94999.996"/><use xlink:href="#q7HH4uL6e9GpHmU8kqvI_pad-15" x="107000" y="-95000"/><use xlink:href="#q7HH4uL6e9GpHmU8kqvI_pad-15" x="105000" y="-95000"/><path d="M 111000 -94300 111000 -95000 M 106500 -93000 107800 -94300 M 118000 -94300 111000 -94300 M 106500 -92500 106500 -93000 M 107800 -94300 111000 -94300" fill="none" stroke-width="508"/><path d="M 120100 -95600 113600.004 -95600 M 121027 -94673 120100 -95600 M 120000 -88500 120000 -90900 M 113600.004 -95600 113000 -94999.996 M 120000 -90900 121027 -91927 121027 -94673" fill="none" stroke-width="254"/><path d="M 119980.888 -87501.063 119988.572 -87502.5 119988.575 -87502.5 120211.425 -87502.5 120211.428 -87502.5 120219.111 -87501.063 120230.594 -87500 121387 -87500 121431.194 -87518.306 121449.5 -87562.5 121449.5 -94997.273 121449.262 -95002.72 121435.551 -95159.432 121433.659 -95170.161 121393.653 -95319.464 121389.927 -95329.702 121324.602 -95469.792 121319.155 -95479.226 121230.493 -95605.849 121223.49 -95614.195 121114.195 -95723.49 121105.849 -95730.493 120979.226 -95819.155 120969.792 -95824.602 120829.702 -95889.927 120819.464 -95893.653 120670.161 -95933.659 120659.432 -95935.551 120502.72 -95949.262 120497.273 -95949.5 120235.482 -95949.5 120191.288 -95931.194 120172.982 -95887 120191.288 -95842.806 120211.563 -95829.257 120244.163 -95815.755 121242.755 -94817.163 121281.5 -94723.623 121281.5 -94622.377 121281.5 -91876.377 121242.755 -91782.837 121242.753 -91782.835 121167.608 -91707.689 121167.593 -91707.676 120272.806 -90812.888 120254.5 -90768.694 120254.5 -88878.74 120272.806 -88834.546 120281.817 -88827.284 120282.827 -88826.407 120282.832 -88826.405 120363.334 -88733.501 120414.401 -88621.679 120431.896 -88500 120414.401 -88378.321 120363.334 -88266.499 120363.33 -88266.493 120282.833 -88173.596 120282.832 -88173.595 120179.416 -88107.134 120179.414 -88107.133 120179.412 -88107.132 120061.466 -88072.5 120061.465 -88072.5 119938.535 -88072.5 119938.534 -88072.5 119820.587 -88107.132 119717.166 -88173.596 119636.669 -88266.493 119636.665 -88266.499 119585.599 -88378.319 119585.598 -88378.322 119568.104 -88500 119585.598 -88621.677 119585.599 -88621.68 119636.665 -88733.5 119636.669 -88733.506 119717.167 -88826.404 119720.547 -88829.333 119719.682 -88830.33 119744.07 -88865.449 119745.5 -88878.74 119745.5 -90950.622 119784.244 -91044.161 119784.246 -91044.164 120754.194 -92014.111 120772.5 -92058.305 120772.5 -94541.694 120754.194 -94585.888 120012.888 -95327.194 119968.694 -95345.5 113731.31 -95345.5 113687.116 -95327.194 113444.969 -95085.047 113426.663 -95040.853 113427.3 -95031.956 113431.896 -94999.999 113431.896 -94999.997 113414.402 -94878.321 113414.401 -94878.317 113400.85 -94848.645 113364.918 -94769.963 113363.211 -94722.158 113395.807 -94687.148 113421.77 -94681.5 117784.547 -94681.5 117818.335 -94691.42 117820.584 -94692.866 117879.559 -94710.183 117938.534 -94727.5 117938.535 -94727.5 118061.465 -94727.5 118179.416 -94692.866 118282.832 -94626.405 118363.334 -94533.501 118414.401 -94421.679 118431.896 -94300 118414.401 -94178.321 118363.334 -94066.499 118363.33 -94066.493 118282.833 -93973.596 118282.832 -93973.595 118179.416 -93907.134 118179.414 -93907.133 118179.412 -93907.132 118061.466 -93872.5 118061.465 -93872.5 117938.535 -93872.5 117938.534 -93872.5 117820.585 -93907.133 117818.336 -93908.579 117784.547 -93918.5 107983.911 -93918.5 107939.717 -93900.194 107129.228 -93089.705 107110.922 -93045.511 107121.455 -93010.788 107121.787 -93010.29 107121.789 -93010.289 107209.394 -92879.179 107209.4 -92879.163 107210.839 -92876.473 107211.027 -92876.573 107214.34 -92870.374 107233.321 -92841.968 107295.7 -92691.373 107327.5 -92531.502 107327.5 -91968.546 107673 -91968.546 107673 -91996 108172.955 -91996 108131.592 -92019.881 108019.881 -92131.592 107940.889 -92268.409 107900 -92421.009 107900 -92504 107673 -92504 107673 -92531.453 107704.781 -92691.225 107767.123 -92841.731 107767.124 -92841.733 107857.627 -92977.18 107972.819 -93092.372 108108.266 -93182.875 108108.268 -93182.876 108245.999 -93239.927 108246 -93239.927 108246 -93046.173 108268.409 -93059.111 108421.009 -93100 108578.991 -93100 108731.591 -93059.111 108754 -93046.173 108754 -93239.927 108891.731 -93182.876 108891.733 -93182.875 109027.18 -93092.372 109142.372 -92977.18 109232.875 -92841.733 109232.876 -92841.731 109295.218 -92691.225 109326.999 -92531.453 109327 -92531.451 109327 -92504 109100 -92504 109100 -92421.009 109059.111 -92268.409 108980.119 -92131.592 108868.408 -92019.881 108827.045 -91996 109327 -91996 109327 -91968.548 109326.999 -91968.546 109326.989 -91968.497 109672.5 -91968.497 109672.5 -92531.502 109704.299 -92691.371 109766.679 -92841.968 109766.68 -92841.971 109785.659 -92870.374 109788.97 -92876.568 109789.157 -92876.469 109790.604 -92879.176 109878.21 -93010.288 109989.711 -93121.789 110120.819 -93209.393 110120.82 -93209.393 110120.821 -93209.394 110266.503 -93269.737 110421.158 -93300.5 110578.842 -93300.5 110733.497 -93269.737 110879.179 -93209.394 111010.289 -93121.789 111121.789 -93010.289 111209.394 -92879.179 111209.4 -92879.163 111210.839 -92876.473 111211.027 -92876.573 111214.34 -92870.374 111233.321 -92841.968 111295.7 -92691.373 111327.5 -92531.502 111327.5 -92421.157 111699.5 -92421.157 111699.5 -92578.842 111730.262 -92733.495 111790.606 -92879.18 111878.21 -93010.288 111989.711 -93121.789 112120.819 -93209.393 112120.82 -93209.393 112120.821 -93209.394 112266.503 -93269.737 112421.158 -93300.5 112578.842 -93300.5 112733.497 -93269.737 112879.179 -93209.394 113010.289 -93121.789 113121.789 -93010.289 113209.394 -92879.179 113269.737 -92733.497 113300.5 -92578.842 113300.5 -92421.158 113300.5 -92421.157 113699.5 -92421.157 113699.5 -92578.842 113730.262 -92733.495 113790.606 -92879.18 113878.21 -93010.288 113989.711 -93121.789 114120.819 -93209.393 114120.82 -93209.393 114120.821 -93209.394 114266.503 -93269.737 114421.158 -93300.5 114578.842 -93300.5 114733.497 -93269.737 114879.179 -93209.394 115010.289 -93121.789 115121.789 -93010.289 115209.394 -92879.179 115269.737 -92733.497 115300.5 -92578.842 115300.5 -92421.158 115269.737 -92266.503 115209.394 -92120.821 115121.789 -91989.711 115010.289 -91878.211 115010.288 -91878.21 114879.18 -91790.606 114733.495 -91730.262 114578.842 -91699.5 114421.158 -91699.5 114266.504 -91730.262 114120.819 -91790.606 113989.711 -91878.21 113878.21 -91989.711 113790.606 -92120.819 113730.262 -92266.504 113699.5 -92421.157 113300.5 -92421.157 113269.737 -92266.503 113209.394 -92120.821 113121.789 -91989.711 113010.289 -91878.211 113010.288 -91878.21 112879.18 -91790.606 112733.495 -91730.262 112578.842 -91699.5 112421.158 -91699.5 112266.504 -91730.262 112120.819 -91790.606 111989.711 -91878.21 111878.21 -91989.711 111790.606 -92120.819 111730.262 -92266.504 111699.5 -92421.157 111327.5 -92421.157 111327.5 -91968.498 111295.7 -91808.627 111233.321 -91658.032 111142.761 -91522.499 111027.501 -91407.239 110892.63 -91317.121 110891.97 -91316.68 110891.965 -91316.677 110741.371 -91254.299 110581.502 -91222.5 110418.498 -91222.5 110258.628 -91254.299 110108.034 -91316.677 110108.029 -91316.68 109972.499 -91407.238 109857.238 -91522.499 109766.68 -91658.029 109766.677 -91658.034 109704.299 -91808.628 109672.5 -91968.497 109326.989 -91968.497 109295.218 -91808.774 109232.876 -91658.268 109232.875 -91658.266 109142.372 -91522.819 109027.18 -91407.627 108891.732 -91317.124 108891.728 -91317.121 108754 -91260.071 108754 -91953.826 108731.591 -91940.889 108578.991 -91900 108421.009 -91900 108268.409 -91940.889 108246 -91953.826 108246 -91260.072 108245.999 -91260.071 108108.271 -91317.121 108108.267 -91317.124 107972.819 -91407.627 107857.627 -91522.819 107767.124 -91658.266 107767.123 -91658.268 107704.781 -91808.774 107673 -91968.546 107327.5 -91968.546 107327.5 -91968.498 107295.7 -91808.627 107233.321 -91658.032 107142.761 -91522.499 107027.501 -91407.239 106892.63 -91317.121 106891.97 -91316.68 106891.965 -91316.677 106741.371 -91254.299 106581.502 -91222.5 106418.498 -91222.5 106258.628 -91254.299 106108.034 -91316.677 106108.029 -91316.68 105972.499 -91407.238 105857.238 -91522.499 105766.68 -91658.029 105766.677 -91658.034 105704.299 -91808.628 105672.5 -91968.497 105672.5 -92531.502 105704.299 -92691.371 105766.679 -92841.968 105766.68 -92841.971 105785.659 -92870.374 105788.97 -92876.568 105789.157 -92876.469 105790.604 -92879.176 105790.605 -92879.178 105790.606 -92879.179 105878.211 -93010.289 105989.711 -93121.789 106120.821 -93209.394 106193.07 -93239.32 106213.346 -93252.869 107565.747 -94605.271 107565.751 -94605.274 107565.753 -94605.276 107652.747 -94655.502 107695.526 -94666.964 107749.77 -94681.5 107749.772 -94681.5 107749.775 -94681.501 107749.777 -94681.501 107854.05 -94681.501 107854.066 -94681.5 110556 -94681.5 110600.194 -94699.806 110618.5 -94744 110618.5 -94792.681 110612.852 -94818.644 110585.599 -94878.319 110585.598 -94878.322 110568.104 -95000 110585.598 -95121.677 110585.599 -95121.68 110636.665 -95233.5 110636.669 -95233.506 110717.166 -95326.403 110717.168 -95326.405 110820.584 -95392.866 110820.586 -95392.866 110820.587 -95392.867 110938.534 -95427.5 110938.535 -95427.5 111061.465 -95427.5 111179.416 -95392.866 111282.832 -95326.405 111363.334 -95233.501 111414.401 -95121.679 111431.896 -95000 111414.401 -94878.321 111387.148 -94818.644 111381.5 -94792.681 111381.5 -94744 111399.806 -94699.806 111444 -94681.5 112578.23 -94681.5 112622.424 -94699.806 112640.73 -94744 112635.082 -94769.963 112585.599 -94878.315 112585.598 -94878.318 112568.104 -94999.996 112585.598 -95121.673 112585.599 -95121.676 112636.665 -95233.496 112636.669 -95233.502 112717.166 -95326.399 112717.168 -95326.401 112820.584 -95392.862 112820.586 -95392.862 112820.587 -95392.863 112938.534 -95427.496 113041.694 -95427.496 113085.888 -95445.802 113455.841 -95815.755 113455.842 -95815.755 113455.844 -95815.757 113488.438 -95829.258 113522.263 -95863.083 113522.262 -95910.918 113488.437 -95944.743 113464.52 -95949.5 105002.727 -95949.5 104997.28 -95949.262 104840.567 -95935.551 104829.838 -95933.659 104680.535 -95893.653 104670.297 -95889.927 104530.207 -95824.602 104520.773 -95819.155 104394.15 -95730.493 104385.804 -95723.49 104276.509 -95614.195 104269.506 -95605.849 104180.844 -95479.226 104175.397 -95469.792 104139.526 -95392.866 104110.071 -95329.701 104106.346 -95319.464 104093.877 -95272.928 104066.339 -95170.157 104064.448 -95159.432 104061.145 -95121.68 104050.738 -95002.72 104050.619 -95000 104568.104 -95000 104585.598 -95121.677 104585.599 -95121.68 104636.665 -95233.5 104636.669 -95233.506 104717.166 -95326.403 104717.168 -95326.405 104820.584 -95392.866 104820.586 -95392.866 104820.587 -95392.867 104938.534 -95427.5 104938.535 -95427.5 105061.465 -95427.5 105179.416 -95392.866 105282.832 -95326.405 105363.334 -95233.501 105414.401 -95121.679 105431.896 -95000 106568.104 -95000 106585.598 -95121.677 106585.599 -95121.68 106636.665 -95233.5 106636.669 -95233.506 106717.166 -95326.403 106717.168 -95326.405 106820.584 -95392.866 106820.586 -95392.866 106820.587 -95392.867 106938.534 -95427.5 106938.535 -95427.5 107061.465 -95427.5 107179.416 -95392.866 107282.832 -95326.405 107363.334 -95233.501 107414.401 -95121.679 107431.896 -95000 107414.401 -94878.321 107363.334 -94766.499 107363.331 -94766.495 107363.33 -94766.493 107282.833 -94673.596 107282.832 -94673.595 107179.416 -94607.134 107179.414 -94607.133 107179.412 -94607.132 107061.466 -94572.5 107061.465 -94572.5 106938.535 -94572.5 106938.534 -94572.5 106820.587 -94607.132 106717.166 -94673.596 106636.669 -94766.493 106636.665 -94766.499 106585.599 -94878.319 106585.598 -94878.322 106568.104 -95000 105431.896 -95000 105414.401 -94878.321 105363.334 -94766.499 105363.331 -94766.495 105363.33 -94766.493 105282.833 -94673.596 105282.832 -94673.595 105179.416 -94607.134 105179.414 -94607.133 105179.412 -94607.132 105061.466 -94572.5 105061.465 -94572.5 104938.535 -94572.5 104938.534 -94572.5 104820.587 -94607.132 104717.166 -94673.596 104636.669 -94766.493 104636.665 -94766.499 104585.599 -94878.319 104585.598 -94878.322 104568.104 -95000 104050.619 -95000 104050.5 -94997.273 104050.5 -89468.497 104672.5 -89468.497 104672.5 -90031.502 104704.299 -90191.371 104766.679 -90341.968 104766.68 -90341.971 104785.659 -90370.374 104788.97 -90376.568 104789.157 -90376.469 104790.604 -90379.176 104878.21 -90510.288 104989.711 -90621.789 105120.819 -90709.393 105120.82 -90709.393 105120.821 -90709.394 105266.503 -90769.737 105421.158 -90800.5 105578.842 -90800.5 105733.497 -90769.737 105879.179 -90709.394 106010.289 -90621.789 106121.789 -90510.289 106209.394 -90379.179 106209.4 -90379.163 106210.839 -90376.473 106211.027 -90376.573 106214.34 -90370.374 106233.321 -90341.968 106295.7 -90191.373 106327.5 -90031.502 106327.5 -89468.498 106327.5 -89468.497 106672.5 -89468.497 106672.5 -90031.502 106704.299 -90191.371 106766.679 -90341.968 106766.68 -90341.971 106785.659 -90370.374 106788.97 -90376.568 106789.157 -90376.469 106790.604 -90379.176 106878.21 -90510.288 106989.711 -90621.789 107120.819 -90709.393 107120.82 -90709.393 107120.821 -90709.394 107266.503 -90769.737 107421.158 -90800.5 107578.842 -90800.5 107733.497 -90769.737 107879.179 -90709.394 108010.289 -90621.789 108121.789 -90510.289 108209.394 -90379.179 108209.4 -90379.163 108210.839 -90376.473 108211.027 -90376.573 108214.34 -90370.374 108233.321 -90341.968 108295.7 -90191.373 108327.5 -90031.502 108327.5 -89468.498 108327.5 -89468.497 108672.5 -89468.497 108672.5 -90031.502 108704.299 -90191.371 108766.679 -90341.968 108766.68 -90341.971 108785.659 -90370.374 108788.97 -90376.568 108789.157 -90376.469 108790.604 -90379.176 108878.21 -90510.288 108989.711 -90621.789 109120.819 -90709.393 109120.82 -90709.393 109120.821 -90709.394 109266.503 -90769.737 109421.158 -90800.5 109578.842 -90800.5 109733.497 -90769.737 109879.179 -90709.394 110010.289 -90621.789 110121.789 -90510.289 110209.394 -90379.179 110209.4 -90379.163 110210.839 -90376.473 110211.027 -90376.573 110214.34 -90370.374 110233.321 -90341.968 110295.7 -90191.373 110327.5 -90031.502 110327.5 -89921.157 110699.5 -89921.157 110699.5 -90078.842 110730.262 -90233.495 110790.606 -90379.18 110878.21 -90510.288 110989.711 -90621.789 111120.819 -90709.393 111120.82 -90709.393 111120.821 -90709.394 111266.503 -90769.737 111421.158 -90800.5 111578.842 -90800.5 111733.497 -90769.737 111879.179 -90709.394 112010.289 -90621.789 112121.789 -90510.289 112209.394 -90379.179 112269.737 -90233.497 112300.5 -90078.842 112300.5 -89921.158 112300.5 -89921.157 112699.5 -89921.157 112699.5 -90078.842 112730.262 -90233.495 112790.606 -90379.18 112878.21 -90510.288 112989.711 -90621.789 113120.819 -90709.393 113120.82 -90709.393 113120.821 -90709.394 113266.503 -90769.737 113421.158 -90800.5 113578.842 -90800.5 113733.497 -90769.737 113879.179 -90709.394 114010.289 -90621.789 114121.789 -90510.289 114209.394 -90379.179 114269.737 -90233.497 114300.5 -90078.842 114300.5 -89921.158 114269.737 -89766.503 114209.394 -89620.821 114121.789 -89489.711 114010.289 -89378.211 114010.288 -89378.21 113879.18 -89290.606 113733.495 -89230.262 113578.842 -89199.5 113421.158 -89199.5 113266.504 -89230.262 113120.819 -89290.606 112989.711 -89378.21 112878.21 -89489.711 112790.606 -89620.819 112730.262 -89766.504 112699.5 -89921.157 112300.5 -89921.157 112269.737 -89766.503 112209.394 -89620.821 112121.789 -89489.711 112010.289 -89378.211 112010.288 -89378.21 111879.18 -89290.606 111733.495 -89230.262 111578.842 -89199.5 111421.158 -89199.5 111266.504 -89230.262 111120.819 -89290.606 110989.711 -89378.21 110878.21 -89489.711 110790.606 -89620.819 110730.262 -89766.504 110699.5 -89921.157 110327.5 -89921.157 110327.5 -89468.498 110295.7 -89308.627 110233.321 -89158.032 110142.761 -89022.499 110027.501 -88907.239 110027.5 -88907.238 109891.97 -88816.68 109891.965 -88816.677 109741.371 -88754.299 109581.502 -88722.5 109418.498 -88722.5 109258.628 -88754.299 109108.034 -88816.677 109108.029 -88816.68 108972.499 -88907.238 108857.238 -89022.499 108766.68 -89158.029 108766.677 -89158.034 108704.299 -89308.628 108672.5 -89468.497 108327.5 -89468.497 108295.7 -89308.627 108233.321 -89158.032 108142.761 -89022.499 108027.501 -88907.239 108027.5 -88907.238 107891.97 -88816.68 107891.965 -88816.677 107741.371 -88754.299 107581.502 -88722.5 107418.498 -88722.5 107258.628 -88754.299 107108.034 -88816.677 107108.029 -88816.68 106972.499 -88907.238 106857.238 -89022.499 106766.68 -89158.029 106766.677 -89158.034 106704.299 -89308.628 106672.5 -89468.497 106327.5 -89468.497 106295.7 -89308.627 106233.321 -89158.032 106142.761 -89022.499 106027.501 -88907.239 106027.5 -88907.238 105891.97 -88816.68 105891.965 -88816.677 105741.371 -88754.299 105581.502 -88722.5 105418.498 -88722.5 105258.628 -88754.299 105108.034 -88816.677 105108.029 -88816.68 104972.499 -88907.238 104857.238 -89022.499 104766.68 -89158.029 104766.677 -89158.034 104704.299 -89308.628 104672.5 -89468.497 104050.5 -89468.497 104050.5 -87562.5 104068.806 -87518.306 104113 -87500 119969.406 -87500 119980.888 -87501.063"/></g><g id="l5hOAyLajr8HwcWnrPjs_bottom_drill1" transform="scale(25.4,25.4)"><use xlink:href="#J1hogTXUkUEuuF5KyNFY_pad-1" x="4389.8" y="-3543.3"/><use xlink:href="#J1hogTXUkUEuuF5KyNFY_pad-1" x="4429.1" y="-3641.7"/><use xlink:href="#J1hogTXUkUEuuF5KyNFY_pad-1" x="4468.5" y="-3543.3"/><use xlink:href="#J1hogTXUkUEuuF5KyNFY_pad-1" x="4507.9" y="-3641.7"/></g><g id="l5hOAyLajr8HwcWnrPjs_bottom_drill2" transform="scale(25.4,25.4)"><use xlink:href="#nqqBZqwVYYLBm3Podk4x_pad-1" x="4133.9" y="-3740.2"/><use xlink:href="#nqqBZqwVYYLBm3Podk4x_pad-1" x="4212.6" y="-3740.2"/><use xlink:href="#nqqBZqwVYYLBm3Podk4x_pad-1" x="4291.3" y="-3740.2"/><use xlink:href="#nqqBZqwVYYLBm3Podk4x_pad-1" x="4370.1" y="-3740.2"/><use xlink:href="#nqqBZqwVYYLBm3Podk4x_pad-1" x="4448.8" y="-3740.2"/><use xlink:href="#nqqBZqwVYYLBm3Podk4x_pad-1" x="4574.8" y="-3740.2"/><use xlink:href="#nqqBZqwVYYLBm3Podk4x_pad-1" x="4606.3" y="-3563"/><use xlink:href="#nqqBZqwVYYLBm3Podk4x_pad-1" x="4626" y="-3543.3"/><use xlink:href="#nqqBZqwVYYLBm3Podk4x_pad-1" x="4626" y="-3582.7"/><use xlink:href="#nqqBZqwVYYLBm3Podk4x_pad-1" x="4645.7" y="-3523.6"/><use xlink:href="#nqqBZqwVYYLBm3Podk4x_pad-1" x="4645.7" y="-3563"/><use xlink:href="#nqqBZqwVYYLBm3Podk4x_pad-1" x="4645.7" y="-3602.4"/><use xlink:href="#nqqBZqwVYYLBm3Podk4x_pad-1" x="4645.7" y="-3712.6"/><use xlink:href="#nqqBZqwVYYLBm3Podk4x_pad-1" x="4665.4" y="-3543.3"/><use xlink:href="#nqqBZqwVYYLBm3Podk4x_pad-1" x="4665.4" y="-3582.7"/><use xlink:href="#nqqBZqwVYYLBm3Podk4x_pad-1" x="4685" y="-3563"/><use xlink:href="#nqqBZqwVYYLBm3Podk4x_pad-1" x="4724.4" y="-3484.3"/><use xlink:href="#nqqBZqwVYYLBm3Podk4x_pad-2" x="4153.5" y="-3543.3"/><use xlink:href="#nqqBZqwVYYLBm3Podk4x_pad-2" x="4192.9" y="-3641.7"/><use xlink:href="#nqqBZqwVYYLBm3Podk4x_pad-2" x="4232.3" y="-3543.3"/><use xlink:href="#nqqBZqwVYYLBm3Podk4x_pad-2" x="4271.7" y="-3641.7"/><use xlink:href="#nqqBZqwVYYLBm3Podk4x_pad-2" x="4311" y="-3543.3"/><use xlink:href="#nqqBZqwVYYLBm3Podk4x_pad-2" x="4350.4" y="-3641.7"/></g><clipPath id="l5hOAyLajr8HwcWnrPjs_bottom_outline"><path d="M 104000 -86000 104000 -95000 A 1000 1000 0 0 1 105000 -96000 L 120500 -96000 A 1000 1000 0 0 1 121500 -95000 L 121500 -86000 A 1000 1000 0 0 1 120500 -85000 L 105000 -85000 A 1000 1000 0 0 1 104000 -86000" fill="none" stroke-width="100"/></clipPath><mask id="l5hOAyLajr8HwcWnrPjs_bottom_mech-mask"><g fill="#000" stroke="#000"><rect x="104000" y="-96000" width="17500" height="11000" fill="#fff"/><use xlink:href="#l5hOAyLajr8HwcWnrPjs_bottom_drill1"/><use xlink:href="#l5hOAyLajr8HwcWnrPjs_bottom_drill2"/></g></mask><mask id="l5hOAyLajr8HwcWnrPjs_bottom_cf-mask"><g fill="#fff" stroke="#fff"><use xlink:href="#l5hOAyLajr8HwcWnrPjs_bottom_soldermask"/></g></mask><mask id="l5hOAyLajr8HwcWnrPjs_bottom_sm-mask"><g fill="#000" stroke="#000"><rect x="104000" y="-96000" width="17500" height="11000" fill="#fff"/><use xlink:href="#l5hOAyLajr8HwcWnrPjs_bottom_soldermask"/></g></mask></defs><g transform="translate(0,-181000) scale(1,-1)"><g mask="url(#l5hOAyLajr8HwcWnrPjs_bottom_mech-mask)" clip-path="url(#l5hOAyLajr8HwcWnrPjs_bottom_outline)" transform="translate(225500,0) scale(-1,1)"><rect x="104000" y="-96000" width="17500" height="11000" fill="currentColor" class="l5hOAyLajr8HwcWnrPjs_fr4"/><use xlink:href="#l5hOAyLajr8HwcWnrPjs_bottom_copper" fill="currentColor" stroke="currentColor" class="l5hOAyLajr8HwcWnrPjs_cu"/><use xlink:href="#l5hOAyLajr8HwcWnrPjs_bottom_copper" fill="currentColor" stroke="currentColor" class="l5hOAyLajr8HwcWnrPjs_cf" mask="url(#l5hOAyLajr8HwcWnrPjs_bottom_cf-mask)"/><g mask="url(#l5hOAyLajr8HwcWnrPjs_bottom_sm-mask)"><rect x="104000" y="-96000" width="17500" height="11000" fill="currentColor" class="l5hOAyLajr8HwcWnrPjs_sm"/><use xlink:href="#l5hOAyLajr8HwcWnrPjs_bottom_silkscreen" fill="currentColor" stroke="currentColor" class="l5hOAyLajr8HwcWnrPjs_ss"/></g></g></g></svg>