<svg version="1.1" xmlns="http://www.w3.org/2000/svg" xmlns:xlink="http://www.w3.org/1999/xlink" stroke-linecap="round" stroke-linejoin="round" stroke-width="0" fill-rule="evenodd" clip-rule="evenodd" id="yPwO2dKz5yVDQrWpvcHE_bottom" viewBox="94000 -97000 48000 9000" width="48mm" height="9mm" class="w-100 h-100"><defs><style>.yPwO2dKz5yVDQrWpvcHE_fr4 {color: #666666;}
.yPwO2dKz5yVDQrWpvcHE_cu {color: #cccccc;}
.yPwO2dKz5yVDQrWpvcHE_cf {color: #cc9933;}
.yPwO2dKz5yVDQrWpvcHE_sm {color: #004200; opacity: 0.75;}
.yPwO2dKz5yVDQrWpvcHE_ss {color: #ffffff;}
.yPwO2dKz5yVDQrWpvcHE_sp {color: #999999;}
.yPwO2dKz5yVDQrWpvcHE_out {color: #000000;}</style><circle cx="0" cy="0" r="1200" id="Jkc-6CilfdPZpHfU5hK2_pad-11"/><mask id="Jkc-6CilfdPZpHfU5hK2_clear-1" fill="#000" stroke="#000"><g><rect x="130715.476" y="-89860.427" width="8609.523" height="1000" fill="#fff"/><use xlink:href="#Jkc-6CilfdPZpHfU5hK2_pad-11" x="96000" y="-94000"/><use xlink:href="#Jkc-6CilfdPZpHfU5hK2_pad-11" x="100000" y="-94000"/><use xlink:href="#Jkc-6CilfdPZpHfU5hK2_pad-11" x="104000" y="-94000"/><use xlink:href="#Jkc-6CilfdPZpHfU5hK2_pad-11" x="108000" y="-90550"/><use xlink:href="#Jkc-6CilfdPZpHfU5hK2_pad-11" x="108000" y="-94000"/><use xlink:href="#Jkc-6CilfdPZpHfU5hK2_pad-11" x="112000" y="-94000"/><use xlink:href="#Jkc-6CilfdPZpHfU5hK2_pad-11" x="116000" y="-94000"/><use xlink:href="#Jkc-6CilfdPZpHfU5hK2_pad-11" x="120000" y="-94000"/></g></mask><circle cx="0" cy="0" r="1200" id="W7wbXtGgmK9A3ecODTO9_pad-12"/><circle cx="0" cy="0" r="300" id="W7wbXtGgmK9A3ecODTO9_pad-13"/><circle cx="0" cy="0" r="1200" id="uYXiqB8VEyPs3qRBpfNx_pad-10"/><circle cx="0" cy="0" r="5.9" id="q_8dlcolL_lWhzn0we_A_pad-1"/><circle cx="0" cy="0" r="35.45" id="q_8dlcolL_lWhzn0we_A_pad-2"/><g id="yPwO2dKz5yVDQrWpvcHE_bottom_silkscreen"><g mask="url(#Jkc-6CilfdPZpHfU5hK2_clear-1)"><path d="M 138926.189 -88935.427 138926.189 -89542.57 138966.666 -89663.998 139047.618 -89744.951 139169.047 -89785.427 139249.999 -89785.427 M 138116.666 -89785.427 138521.428 -89785.427 138521.428 -88935.427 M 137347.618 -89704.474 137388.094 -89744.951 137509.523 -89785.427 137590.475 -89785.427 137711.904 -89744.951 137792.856 -89663.998 137833.333 -89583.046 137873.809 -89421.141 137873.809 -89299.712 137833.333 -89137.808 137792.856 -89056.855 137711.904 -88975.903 137590.475 -88935.427 137509.523 -88935.427 137388.094 -88975.903 137347.618 -89016.379 M 136740.475 -88935.427 136740.475 -89542.57 136780.952 -89663.998 136861.904 -89744.951 136983.333 -89785.427 137064.285 -89785.427 M 135930.952 -89785.427 136335.714 -89785.427 136335.714 -88935.427 M 135161.904 -89704.474 135202.38 -89744.951 135323.809 -89785.427 135404.761 -89785.427 135526.19 -89744.951 135607.142 -89663.998 135647.619 -89583.046 135688.095 -89421.141 135688.095 -89299.712 135647.619 -89137.808 135607.142 -89056.855 135526.19 -88975.903 135404.761 -88935.427 135323.809 -88935.427 135202.38 -88975.903 135161.904 -89016.379 M 134554.761 -88935.427 134554.761 -89542.57 134595.238 -89663.998 134676.19 -89744.951 134797.619 -89785.427 134878.571 -89785.427 M 133745.238 -89785.427 134150 -89785.427 134150 -88935.427 M 132976.19 -89704.474 133016.666 -89744.951 133138.095 -89785.427 133219.047 -89785.427 133340.476 -89744.951 133421.428 -89663.998 133461.905 -89583.046 133502.381 -89421.141 133502.381 -89299.712 133461.905 -89137.808 133421.428 -89056.855 133340.476 -88975.903 133219.047 -88935.427 133138.095 -88935.427 133016.666 -88975.903 132976.19 -89016.379 M 132369.047 -88935.427 132369.047 -89542.57 132409.524 -89663.998 132490.476 -89744.951 132611.905 -89785.427 132692.857 -89785.427 M 131559.524 -89785.427 131964.286 -89785.427 131964.286 -88935.427 M 130790.476 -89704.474 130830.952 -89744.951 130952.381 -89785.427 131033.333 -89785.427 131154.762 -89744.951 131235.714 -89663.998 131276.191 -89583.046 131316.667 -89421.141 131316.667 -89299.712 131276.191 -89137.808 131235.714 -89056.855 131154.762 -88975.903 131033.333 -88935.427 130952.381 -88935.427 130830.952 -88975.903 130790.476 -89016.379" fill="none" stroke-width="150"/></g></g><g id="yPwO2dKz5yVDQrWpvcHE_bottom_copper"><path d="M 105000 -90600 A 1000 1000 0 0 0 103000 -90600 1000 1000 0 0 0 105000 -90600" fill="none" stroke-width="150"/><path d="M 103659.822 -90420.839 103507.875 -90420.839 103507.875 -90273.428 103659.822 -90273.428 103659.822 -90420.839" fill="none" stroke-width="10"/><path d="M 103659.822 -90420.839 103507.875 -90420.839 103507.875 -90273.428 103659.822 -90273.428 103659.822 -90420.839"/><path d="M 104489.857 -90130.553 104283.257 -90130.553 104284.143 -90521.191 104284.16 -90528.513 104284.275 -90578.614 104284.386 -90624.428 104284.499 -90666.174 104284.619 -90704.07 104284.749 -90738.334 104284.896 -90769.186 104285.064 -90796.844 104285.259 -90821.526 104285.485 -90843.451 104285.748 -90862.838 104286.052 -90879.904 104286.402 -90894.868 104286.804 -90907.95 104287.263 -90919.367 104287.783 -90929.337 104288.37 -90938.081 104289.028 -90945.815 104289.763 -90952.759 104290.58 -90959.13 104291.483 -90965.148 104292.478 -90971.032 104293.57 -90976.999 104294.763 -90983.267 104298.126 -90999.013 104304.685 -91021.808 104312.781 -91040.844 104322.768 -91056.541 104335.004 -91069.32 104349.841 -91079.6 104367.637 -91087.802 104388.745 -91094.343 104397.329 -91096.278 104412.844 -91098.918 104429.778 -91101.003 104446.676 -91102.394 104462.085 -91102.953 104474.549 -91102.541 104489.857 -91101.164 104489.857 -91237.93 104446.201 -91236.636 104439.493 -91236.406 104400.106 -91233.651 104364.338 -91228.537 104331.914 -91220.974 104302.56 -91210.868 104276.001 -91198.13 104251.962 -91182.665 104230.17 -91164.384 104215.572 -91148.959 104198.182 -91125.528 104182.972 -91098.568 104169.872 -91067.93 104158.811 -91033.468 104149.721 -90995.035 104149.671 -90994.79 104147.889 -90985.949 104146.259 -90977.799 104144.775 -90970.111 104143.429 -90962.66 104142.213 -90955.217 104141.122 -90947.556 104140.147 -90939.449 104139.281 -90930.669 104138.518 -90920.988 104137.849 -90910.181 104137.268 -90898.019 104136.767 -90884.274 104136.339 -90868.721 104135.978 -90851.132 104135.675 -90831.279 104135.423 -90808.935 104135.216 -90783.874 104135.046 -90755.867 104134.905 -90724.688 104134.787 -90690.109 104134.685 -90651.904 104134.59 -90609.844 104134.497 -90563.703 104134.397 -90513.254 104133.631 -90130.553 104070.304 -90130.553 104070.304 -91223.722 103996.032 -91223.124 103921.759 -91222.526 103921.188 -90676.54 103920.616 -90130.553 103864.102 -90130.553 103863.336 -90513.254 103863.324 -90519.432 103863.222 -90568.25 103863.121 -90612.777 103863.019 -90653.23 103862.912 -90689.828 103862.799 -90722.788 103862.677 -90752.328 103862.543 -90778.665 103862.395 -90802.019 103862.231 -90822.607 103862.048 -90840.647 103861.844 -90856.356 103861.616 -90869.954 103861.361 -90881.656 103861.078 -90891.683 103860.764 -90900.25 103860.416 -90907.578 103860.031 -90913.882 103859.608 -90919.382 103859.144 -90924.295 103858.637 -90928.839 103857.545 -90937.6 103850.456 -90982.371 103841.315 -91023.155 103830.129 -91059.939 103816.902 -91092.712 103801.639 -91121.46 103784.344 -91146.172 103765.023 -91166.837 103743.713 -91183.971 103717.654 -91199.789 103688.423 -91212.76 103655.894 -91222.928 103619.944 -91230.342 103580.447 -91235.046 103567.48 -91235.929 103553.178 -91236.588 103539.912 -91236.911 103529.42 -91236.836 103509.009 -91236.133 103508.409 -91168.774 103507.808 -91101.414 103539.08 -91101.343 103562.28 -91100.623 103591.776 -91097.378 103617.661 -91091.532 103639.905 -91083.097 103658.48 -91072.087 103673.357 -91058.511 103684.505 -91042.382 103689.229 -91032.197 103695.649 -91013.156 103701.158 -90989.88 103705.731 -90962.5 103709.344 -90931.148 103711.973 -90895.955 103711.994 -90895.573 103712.258 -90888.299 103712.512 -90876.752 103712.753 -90861.178 103712.981 -90841.821 103713.194 -90818.926 103713.391 -90792.737 103713.571 -90763.498 103713.731 -90731.454 103713.871 -90696.849 103713.989 -90659.929 103714.084 -90620.937 103714.155 -90580.118 103714.2 -90537.716 103714.218 -90493.977 103714.25 -90130.553 103507.813 -90130.553 103508.411 -90056.281 103509.009 -89982.008 104489.857 -89980.864 104489.857 -90130.553" fill="none" stroke-width="10"/><path d="M 104489.857 -90130.553 104283.257 -90130.553 104284.143 -90521.191 104284.16 -90528.513 104284.275 -90578.614 104284.386 -90624.428 104284.499 -90666.174 104284.619 -90704.07 104284.749 -90738.334 104284.896 -90769.186 104285.064 -90796.844 104285.259 -90821.526 104285.485 -90843.451 104285.748 -90862.838 104286.052 -90879.904 104286.402 -90894.868 104286.804 -90907.95 104287.263 -90919.367 104287.783 -90929.337 104288.37 -90938.081 104289.028 -90945.815 104289.763 -90952.759 104290.58 -90959.13 104291.483 -90965.148 104292.478 -90971.032 104293.57 -90976.999 104294.763 -90983.267 104298.126 -90999.013 104304.685 -91021.808 104312.781 -91040.844 104322.768 -91056.541 104335.004 -91069.32 104349.841 -91079.6 104367.637 -91087.802 104388.745 -91094.343 104397.329 -91096.278 104412.844 -91098.918 104429.778 -91101.003 104446.676 -91102.394 104462.085 -91102.953 104474.549 -91102.541 104489.857 -91101.164 104489.857 -91237.93 104446.201 -91236.636 104439.493 -91236.406 104400.106 -91233.651 104364.338 -91228.537 104331.914 -91220.974 104302.56 -91210.868 104276.001 -91198.13 104251.962 -91182.665 104230.17 -91164.384 104215.572 -91148.959 104198.182 -91125.528 104182.972 -91098.568 104169.872 -91067.93 104158.811 -91033.468 104149.721 -90995.035 104149.671 -90994.79 104147.889 -90985.949 104146.259 -90977.799 104144.775 -90970.111 104143.429 -90962.66 104142.213 -90955.217 104141.122 -90947.556 104140.147 -90939.449 104139.281 -90930.669 104138.518 -90920.988 104137.849 -90910.181 104137.268 -90898.019 104136.767 -90884.274 104136.339 -90868.721 104135.978 -90851.132 104135.675 -90831.279 104135.423 -90808.935 104135.216 -90783.874 104135.046 -90755.867 104134.905 -90724.688 104134.787 -90690.109 104134.685 -90651.904 104134.59 -90609.844 104134.497 -90563.703 104134.397 -90513.254 104133.631 -90130.553 104070.304 -90130.553 104070.304 -91223.722 103996.032 -91223.124 103921.759 -91222.526 103921.188 -90676.54 103920.616 -90130.553 103864.102 -90130.553 103863.336 -90513.254 103863.324 -90519.432 103863.222 -90568.25 103863.121 -90612.777 103863.019 -90653.23 103862.912 -90689.828 103862.799 -90722.788 103862.677 -90752.328 103862.543 -90778.665 103862.395 -90802.019 103862.231 -90822.607 103862.048 -90840.647 103861.844 -90856.356 103861.616 -90869.954 103861.361 -90881.656 103861.078 -90891.683 103860.764 -90900.25 103860.416 -90907.578 103860.031 -90913.882 103859.608 -90919.382 103859.144 -90924.295 103858.637 -90928.839 103857.545 -90937.6 103850.456 -90982.371 103841.315 -91023.155 103830.129 -91059.939 103816.902 -91092.712 103801.639 -91121.46 103784.344 -91146.172 103765.023 -91166.837 103743.713 -91183.971 103717.654 -91199.789 103688.423 -91212.76 103655.894 -91222.928 103619.944 -91230.342 103580.447 -91235.046 103567.48 -91235.929 103553.178 -91236.588 103539.912 -91236.911 103529.42 -91236.836 103509.009 -91236.133 103508.409 -91168.774 103507.808 -91101.414 103539.08 -91101.343 103562.28 -91100.623 103591.776 -91097.378 103617.661 -91091.532 103639.905 -91083.097 103658.48 -91072.087 103673.357 -91058.511 103684.505 -91042.382 103689.229 -91032.197 103695.649 -91013.156 103701.158 -90989.88 103705.731 -90962.5 103709.344 -90931.148 103711.973 -90895.955 103711.994 -90895.573 103712.258 -90888.299 103712.512 -90876.752 103712.753 -90861.178 103712.981 -90841.821 103713.194 -90818.926 103713.391 -90792.737 103713.571 -90763.498 103713.731 -90731.454 103713.871 -90696.849 103713.989 -90659.929 103714.084 -90620.937 103714.155 -90580.118 103714.2 -90537.716 103714.218 -90493.977 103714.25 -90130.553 103507.813 -90130.553 103508.411 -90056.281 103509.009 -89982.008 104489.857 -89980.864 104489.857 -90130.553"/><use xlink:href="#W7wbXtGgmK9A3ecODTO9_pad-12" x="96000" y="-94000"/><use xlink:href="#W7wbXtGgmK9A3ecODTO9_pad-12" x="100000" y="-94000"/><use xlink:href="#W7wbXtGgmK9A3ecODTO9_pad-12" x="104000" y="-94000"/><use xlink:href="#W7wbXtGgmK9A3ecODTO9_pad-12" x="108000" y="-90550"/><use xlink:href="#W7wbXtGgmK9A3ecODTO9_pad-12" x="108000" y="-94000"/><use xlink:href="#W7wbXtGgmK9A3ecODTO9_pad-12" x="112000" y="-94000"/><use xlink:href="#W7wbXtGgmK9A3ecODTO9_pad-12" x="116000" y="-94000"/><use xlink:href="#W7wbXtGgmK9A3ecODTO9_pad-12" x="120000" y="-94000"/><use xlink:href="#W7wbXtGgmK9A3ecODTO9_pad-13" x="141000.014" y="-89100"/><use xlink:href="#W7wbXtGgmK9A3ecODTO9_pad-13" x="122500" y="-89500"/><use xlink:href="#W7wbXtGgmK9A3ecODTO9_pad-13" x="139100" y="-94700"/><use xlink:href="#W7wbXtGgmK9A3ecODTO9_pad-13" x="141081.933" y="-90900.002"/><use xlink:href="#W7wbXtGgmK9A3ecODTO9_pad-13" x="124500" y="-89500"/><use xlink:href="#W7wbXtGgmK9A3ecODTO9_pad-13" x="120500" y="-89500"/><use xlink:href="#W7wbXtGgmK9A3ecODTO9_pad-13" x="135800" y="-90600"/><use xlink:href="#W7wbXtGgmK9A3ecODTO9_pad-13" x="136500" y="-93250"/><use xlink:href="#W7wbXtGgmK9A3ecODTO9_pad-13" x="126500" y="-89500"/><use xlink:href="#W7wbXtGgmK9A3ecODTO9_pad-13" x="128500" y="-89500"/><use xlink:href="#W7wbXtGgmK9A3ecODTO9_pad-13" x="135800.012" y="-92600"/><path d="M 138200 -91200 140300 -89100 M 137064.603 -94550 138200 -93414.603 M 140300 -89100 141000.014 -89100 M 133550 -94550 137064.603 -94550 M 114100 -91900 130900 -91900 M 122000 -90000 122000 -91850 M 130900 -91900 133550 -94550 M 112000 -94000 114100 -91900 M 138200 -93414.603 138200 -91200 M 122500 -89500 122000 -90000" fill="none" stroke-width="508"/><path d="M 120500 -89500 121600 -88400 133600 -88400 M 134650 -89450 135800 -90600 M 133600 -88400 134650 -89450 M 126500 -89500 128000 -91000 131500 -91000 133750 -93250 136500 -93250 M 129500 -90500 131800 -90500 133900 -92600 M 128500 -89500 129500 -90500 M 133900 -92600 135800.012 -92600" fill="none" stroke-width="254"/><path d="M 121317.592 -88070.502 121364.085 -88124.158 121374.189 -88194.432 121344.695 -88259.012 121338.567 -88265.595 120593.965 -89010.196 120531.655 -89044.22 120504.872 -89047.1 120434.88 -89047.1 120309.925 -89083.791 120200.363 -89154.201 120115.079 -89252.625 120115.077 -89252.628 120060.978 -89371.087 120060.977 -89371.091 120042.443 -89500 120056.613 -89598.559 120060.977 -89628.908 120060.978 -89628.912 120115.077 -89747.371 120115.079 -89747.374 120167.356 -89807.706 120200.364 -89845.799 120309.924 -89916.208 120434.883 -89952.9 120434.886 -89952.9 120565.114 -89952.9 120565.117 -89952.9 120690.076 -89916.208 120799.636 -89845.799 120884.921 -89747.374 120939.023 -89628.909 120957.557 -89500 120957.556 -89499.998 120957.557 -89499.996 120957.557 -89490.987 120961.288 -89490.987 120968.877 -89438.196 120994.394 -89401.442 121679.034 -88716.804 121741.346 -88682.779 121768.129 -88679.9 133431.872 -88679.9 133499.993 -88699.902 133520.967 -88716.805 135305.603 -90501.441 135339.629 -90563.753 135340.606 -90590.989 135342.443 -90590.989 135342.443 -90599.997 135342.443 -90600 135360.977 -90728.908 135360.978 -90728.912 135415.077 -90847.371 135415.079 -90847.374 135494.051 -90938.514 135500.364 -90945.799 135609.924 -91016.208 135734.883 -91052.9 135734.886 -91052.9 135865.114 -91052.9 135865.117 -91052.9 135990.076 -91016.208 136099.636 -90945.799 136184.921 -90847.374 136239.023 -90728.909 136257.557 -90600 136239.023 -90471.091 136184.921 -90352.626 136099.636 -90254.201 135990.076 -90183.792 135990.075 -90183.791 135990.074 -90183.791 135865.119 -90147.1 135865.117 -90147.1 135795.128 -90147.1 135727.007 -90127.098 135706.033 -90110.195 134821.862 -89226.024 133861.433 -88265.595 133827.408 -88203.283 133832.473 -88132.467 133875.02 -88075.632 133941.54 -88050.821 133950.529 -88050.5 140983.592 -88050.5 140994.493 -88050.5 141005.474 -88050.979 141050.629 -88054.929 141153.899 -88063.964 141175.525 -88067.777 141314.105 -88104.91 141334.734 -88112.418 141464.765 -88173.053 141483.776 -88184.029 141601.3 -88266.32 141618.124 -88280.438 141719.561 -88381.875 141733.679 -88398.699 141815.967 -88516.218 141826.949 -88535.239 141887.579 -88665.261 141895.091 -88685.9 141932.221 -88824.472 141936.034 -88846.101 141949.02 -88994.524 141949.5 -89005.506 141949.5 -94994.493 141949.02 -95005.475 141936.034 -95153.898 141932.221 -95175.527 141895.091 -95314.099 141887.579 -95334.738 141826.949 -95464.76 141815.967 -95483.781 141733.679 -95601.3 141719.561 -95618.124 141618.124 -95719.561 141601.3 -95733.679 141483.781 -95815.967 141464.76 -95826.949 141334.738 -95887.579 141314.099 -95895.091 141175.527 -95932.221 141153.898 -95936.034 141005.475 -95949.02 140994.493 -95949.5 135516.408 -95949.5 135500 -95949.5 135437.974 -95949.5 135317.031 -95977.105 135317.026 -95977.107 135269.488 -96000 135205.263 -96030.929 135108.275 -96108.275 135030.929 -96205.263 135030.928 -96205.264 135030.928 -96205.265 134977.107 -96317.026 134977.105 -96317.031 134949.5 -96437.976 134949.5 -96491.742 134948.422 -96508.189 134936.349 -96599.89 134927.835 -96631.662 134895.623 -96709.427 134879.178 -96737.911 134827.943 -96804.683 134804.683 -96827.943 134737.911 -96879.178 134709.427 -96895.623 134631.662 -96927.835 134599.89 -96936.349 134520.663 -96946.779 134508.187 -96948.422 134491.742 -96949.5 95005.507 -96949.5 94994.525 -96949.02 94846.101 -96936.034 94824.472 -96932.221 94685.9 -96895.091 94665.261 -96887.579 94535.239 -96826.949 94516.218 -96815.967 94398.699 -96733.679 94381.875 -96719.561 94280.438 -96618.124 94266.32 -96601.3 94195.389 -96500 94184.029 -96483.776 94173.053 -96464.765 94112.418 -96334.734 94104.91 -96314.105 94067.777 -96175.525 94063.964 -96153.897 94050.979 -96005.474 94050.5 -95994.493 94050.5 -94000 94642.463 -94000 94660.979 -94223.45 94716.016 -94440.788 94716.019 -94440.795 94806.08 -94646.112 94806.082 -94646.116 94928.713 -94833.816 95080.565 -94998.772 95161.83 -95062.023 95231.615 -95116.339 95257.498 -95136.484 95454.684 -95243.196 95666.744 -95315.997 95887.895 -95352.9 95887.899 -95352.9 96112.101 -95352.9 96112.105 -95352.9 96333.256 -95315.997 96545.316 -95243.196 96742.502 -95136.484 96919.435 -94998.772 97071.287 -94833.816 97193.918 -94646.116 97283.982 -94440.792 97339.022 -94223.443 97357.537 -94000 98642.463 -94000 98660.979 -94223.45 98716.016 -94440.788 98716.019 -94440.795 98806.08 -94646.112 98806.082 -94646.116 98928.713 -94833.816 99080.565 -94998.772 99161.83 -95062.023 99231.615 -95116.339 99257.498 -95136.484 99454.684 -95243.196 99666.744 -95315.997 99887.895 -95352.9 99887.899 -95352.9 100112.101 -95352.9 100112.105 -95352.9 100333.256 -95315.997 100545.316 -95243.196 100742.502 -95136.484 100919.435 -94998.772 101071.287 -94833.816 101193.918 -94646.116 101283.982 -94440.792 101339.022 -94223.443 101357.537 -94000 102642.463 -94000 102660.979 -94223.45 102716.016 -94440.788 102716.019 -94440.795 102806.08 -94646.112 102806.082 -94646.116 102928.713 -94833.816 103080.565 -94998.772 103161.83 -95062.023 103231.615 -95116.339 103257.498 -95136.484 103454.684 -95243.196 103666.744 -95315.997 103887.895 -95352.9 103887.899 -95352.9 104112.101 -95352.9 104112.105 -95352.9 104333.256 -95315.997 104545.316 -95243.196 104742.502 -95136.484 104919.435 -94998.772 105071.287 -94833.816 105193.918 -94646.116 105283.982 -94440.792 105339.022 -94223.443 105357.537 -94000 106541.017 -94000 106560.917 -94240.148 106620.067 -94473.727 106620.07 -94473.734 106716.862 -94694.398 106807.562 -94833.225 106807.563 -94833.225 107207.255 -94433.532 107300.924 -94573.717 107426.283 -94699.076 107566.466 -94792.743 107165.902 -95193.307 107202.004 -95221.406 107413.937 -95336.099 107641.836 -95414.337 107641.845 -95414.339 107879.522 -95454 108120.478 -95454 108358.154 -95414.339 108358.163 -95414.337 108586.064 -95336.099 108586.066 -95336.098 108797.985 -95221.412 108797.988 -95221.411 108834.097 -95193.306 108433.534 -94792.743 108573.717 -94699.076 108699.076 -94573.717 108792.743 -94433.534 109192.434 -94833.225 109192.435 -94833.225 109283.138 -94694.395 109379.929 -94473.734 109379.932 -94473.727 109439.082 -94240.148 109458.982 -94000 110642.463 -94000 110660.979 -94223.45 110716.016 -94440.788 110716.019 -94440.795 110806.08 -94646.112 110806.082 -94646.116 110928.713 -94833.816 111080.565 -94998.772 111161.83 -95062.023 111231.615 -95116.339 111257.498 -95136.484 111454.684 -95243.196 111666.744 -95315.997 111887.895 -95352.9 111887.899 -95352.9 112112.101 -95352.9 112112.105 -95352.9 112333.256 -95315.997 112545.316 -95243.196 112742.502 -95136.484 112919.435 -94998.772 113071.287 -94833.816 113193.918 -94646.116 113283.982 -94440.792 113339.022 -94223.443 113357.537 -94000 114642.463 -94000 114660.979 -94223.45 114716.016 -94440.788 114716.019 -94440.795 114806.08 -94646.112 114806.082 -94646.116 114928.713 -94833.816 115080.565 -94998.772 115161.83 -95062.023 115231.615 -95116.339 115257.498 -95136.484 115454.684 -95243.196 115666.744 -95315.997 115887.895 -95352.9 115887.899 -95352.9 116112.101 -95352.9 116112.105 -95352.9 116333.256 -95315.997 116545.316 -95243.196 116742.502 -95136.484 116919.435 -94998.772 117071.287 -94833.816 117193.918 -94646.116 117283.982 -94440.792 117339.022 -94223.443 117357.537 -94000 118642.463 -94000 118660.979 -94223.45 118716.016 -94440.788 118716.019 -94440.795 118806.08 -94646.112 118806.082 -94646.116 118928.713 -94833.816 119080.565 -94998.772 119161.83 -95062.023 119231.615 -95116.339 119257.498 -95136.484 119454.684 -95243.196 119666.744 -95315.997 119887.895 -95352.9 119887.899 -95352.9 120112.101 -95352.9 120112.105 -95352.9 120333.256 -95315.997 120545.316 -95243.196 120742.502 -95136.484 120919.435 -94998.772 121071.287 -94833.816 121193.918 -94646.116 121283.982 -94440.792 121339.022 -94223.443 121357.537 -94000 121339.022 -93776.557 121339.02 -93776.549 121283.983 -93559.211 121283.981 -93559.207 121193.918 -93353.884 121071.287 -93166.184 121029.776 -93121.091 120919.437 -93001.23 120919.436 -93001.229 120919.435 -93001.228 120838.166 -92937.974 120742.504 -92863.517 120712.674 -92847.374 120545.316 -92756.804 120545.312 -92756.802 120545.311 -92756.802 120333.26 -92684.004 120333.251 -92684.002 120289.277 -92676.664 120112.105 -92647.1 119887.895 -92647.1 119740.287 -92671.731 119666.748 -92684.002 119666.739 -92684.004 119454.688 -92756.802 119454.684 -92756.803 119454.684 -92756.804 119435.13 -92767.386 119257.495 -92863.517 119080.562 -93001.23 118928.712 -93166.184 118806.08 -93353.887 118716.019 -93559.204 118716.016 -93559.211 118660.979 -93776.549 118642.463 -94000 117357.537 -94000 117339.022 -93776.557 117339.02 -93776.549 117283.983 -93559.211 117283.981 -93559.207 117193.918 -93353.884 117071.287 -93166.184 117029.776 -93121.091 116919.437 -93001.23 116919.436 -93001.229 116919.435 -93001.228 116838.166 -92937.974 116742.504 -92863.517 116712.674 -92847.374 116545.316 -92756.804 116545.312 -92756.802 116545.311 -92756.802 116333.26 -92684.004 116333.251 -92684.002 116289.277 -92676.664 116112.105 -92647.1 115887.895 -92647.1 115740.287 -92671.731 115666.748 -92684.002 115666.739 -92684.004 115454.688 -92756.802 115454.684 -92756.803 115454.684 -92756.804 115435.13 -92767.386 115257.495 -92863.517 115080.562 -93001.23 114928.712 -93166.184 114806.08 -93353.887 114716.019 -93559.204 114716.016 -93559.211 114660.979 -93776.549 114642.463 -94000 113357.537 -94000 113339.022 -93776.557 113283.982 -93559.208 113236.925 -93451.932 113227.879 -93381.515 113258.339 -93317.384 113263.182 -93312.259 114231.64 -92343.802 114293.95 -92309.779 114320.733 -92306.9 122126.099 -92306.9 122194.22 -92326.902 122240.713 -92380.558 122250.817 -92450.832 122221.323 -92515.412 122204.659 -92531.41 122108.277 -92608.272 122077.534 -92646.821 122030.929 -92705.263 122030.928 -92705.264 122030.928 -92705.265 121985.405 -92799.796 121977.105 -92817.031 121949.5 -92937.974 121949.5 -92979.082 121949.5 -94983.592 121949.5 -95000 121949.5 -95062.026 121977.105 -95182.969 122030.929 -95294.737 122108.275 -95391.725 122205.263 -95469.071 122317.031 -95522.895 122437.974 -95550.5 122437.977 -95550.5 129062.023 -95550.5 129062.026 -95550.5 129182.969 -95522.895 129294.737 -95469.071 129391.725 -95391.725 129469.071 -95294.737 129522.895 -95182.969 129550.5 -95062.026 129550.5 -95000 129550.5 -94983.592 129550.5 -92979.082 129550.5 -92937.974 129522.895 -92817.031 129469.071 -92705.263 129391.725 -92608.275 129391.723 -92608.273 129391.722 -92608.272 129295.341 -92531.41 129254.553 -92473.299 129251.658 -92402.362 129287.574 -92341.12 129350.898 -92309.018 129373.901 -92306.9 130679.266 -92306.9 130747.387 -92326.902 130768.361 -92343.805 133300.15 -94875.595 133300.155 -94875.599 133300.157 -94875.601 133300.158 -94875.602 133300.16 -94875.603 133392.939 -94929.169 133392.942 -94929.17 133496.43 -94956.9 137118.173 -94956.9 137221.661 -94929.17 137314.446 -94875.601 138525.601 -93664.446 138579.17 -93571.66 138606.9 -93468.173 138606.9 -93361.033 138606.9 -91420.733 138626.902 -91352.612 138643.805 -91331.638 140431.638 -89543.805 140493.95 -89509.779 140520.733 -89506.9 140762.147 -89506.9 140800.809 -89515.31 140801.292 -89513.669 140809.937 -89516.207 140809.938 -89516.208 140934.897 -89552.9 140934.9 -89552.9 141065.128 -89552.9 141065.131 -89552.9 141190.09 -89516.208 141299.65 -89445.799 141384.935 -89347.374 141439.037 -89228.909 141457.571 -89100 141439.037 -88971.091 141384.935 -88852.626 141299.65 -88754.201 141190.09 -88683.792 141190.089 -88683.791 141190.088 -88683.791 141065.133 -88647.1 141065.131 -88647.1 140934.897 -88647.1 140934.894 -88647.1 140839.022 -88675.252 140809.938 -88683.792 140809.937 -88683.792 140801.292 -88686.331 140800.809 -88684.689 140762.147 -88693.1 140246.427 -88693.1 140142.943 -88720.829 140142.94 -88720.83 140050.161 -88774.396 140050.157 -88774.4 137874.404 -90950.15 137874.396 -90950.16 137820.831 -91042.938 137820.828 -91042.945 137814.354 -91067.114 137814.352 -91067.121 137793.1 -91146.429 137793.1 -93193.869 137773.098 -93261.99 137756.195 -93282.964 136932.964 -94106.195 136870.652 -94140.221 136843.869 -94143.1 133770.734 -94143.1 133702.613 -94123.098 133681.639 -94106.195 131149.849 -91574.404 131149.839 -91574.396 131049.906 -91516.7 131051.101 -91514.629 131005.352 -91477.767 130982.928 -91410.405 131000.481 -91341.613 131052.44 -91293.231 131108.847 -91279.9 131331.872 -91279.9 131399.993 -91299.902 131420.967 -91316.805 133526.024 -93421.862 133578.138 -93473.976 133578.139 -93473.977 133578.141 -93473.978 133618.665 -93497.374 133641.963 -93510.825 133713.15 -93529.9 136085.72 -93529.9 136153.841 -93549.902 136180.944 -93573.388 136200.361 -93595.796 136200.364 -93595.799 136309.924 -93666.208 136434.883 -93702.9 136434.886 -93702.9 136565.114 -93702.9 136565.117 -93702.9 136690.076 -93666.208 136799.636 -93595.799 136884.921 -93497.374 136939.023 -93378.909 136957.557 -93250 136939.023 -93121.091 136884.921 -93002.626 136799.636 -92904.201 136690.076 -92833.792 136690.075 -92833.791 136690.074 -92833.791 136565.119 -92797.1 136565.117 -92797.1 136434.883 -92797.1 136434.881 -92797.1 136434.877 -92797.101 136408.283 -92804.91 136337.286 -92804.91 136277.56 -92766.526 136248.067 -92701.945 136248.068 -92666.082 136257.569 -92600.003 136257.569 -92600.002 136257.569 -92600 136239.035 -92471.091 136184.933 -92352.626 136099.648 -92254.201 135990.088 -92183.792 135990.087 -92183.791 135990.086 -92183.791 135865.131 -92147.1 135865.129 -92147.1 135734.895 -92147.1 135734.892 -92147.1 135609.937 -92183.791 135500.373 -92254.203 135480.956 -92276.612 135421.23 -92314.996 135385.732 -92320.1 134068.129 -92320.1 134000.008 -92300.098 133979.034 -92283.195 131971.868 -90276.029 131971.858 -90276.021 131908.038 -90239.175 131908.036 -90239.174 131836.853 -90220.1 131836.85 -90220.1 129668.128 -90220.1 129600.007 -90200.098 129579.033 -90183.195 128994.397 -89598.559 128960.371 -89536.247 128959.404 -89509.013 128957.557 -89509.013 128957.557 -89500.003 128956.261 -89490.987 128939.023 -89371.091 128884.921 -89252.626 128799.636 -89154.201 128690.076 -89083.792 128690.075 -89083.791 128690.074 -89083.791 128565.119 -89047.1 128565.117 -89047.1 128434.883 -89047.1 128434.88 -89047.1 128309.925 -89083.791 128200.363 -89154.201 128115.079 -89252.625 128115.077 -89252.628 128060.978 -89371.087 128060.977 -89371.091 128042.443 -89500 128056.613 -89598.559 128060.977 -89628.908 128060.978 -89628.912 128115.077 -89747.371 128115.079 -89747.374 128167.356 -89807.706 128200.364 -89845.799 128309.924 -89916.208 128434.883 -89952.9 128504.872 -89952.9 128572.993 -89972.902 128593.967 -89989.805 129109.167 -90505.005 129143.193 -90567.317 129138.128 -90638.132 129095.581 -90694.968 129029.061 -90719.779 129020.072 -90720.1 128168.129 -90720.1 128100.008 -90700.098 128079.034 -90683.195 126994.397 -89598.559 126960.372 -89536.247 126959.404 -89509.013 126957.557 -89509.013 126957.557 -89500.003 126956.261 -89490.987 126939.023 -89371.091 126884.921 -89252.626 126799.636 -89154.201 126690.076 -89083.792 126690.075 -89083.791 126690.074 -89083.791 126565.119 -89047.1 126565.117 -89047.1 126434.883 -89047.1 126434.88 -89047.1 126309.925 -89083.791 126200.363 -89154.201 126115.079 -89252.625 126115.077 -89252.628 126060.978 -89371.087 126060.977 -89371.091 126042.443 -89500 126056.613 -89598.559 126060.977 -89628.908 126060.978 -89628.912 126115.077 -89747.371 126115.079 -89747.374 126167.356 -89807.706 126200.364 -89845.799 126309.924 -89916.208 126434.883 -89952.9 126504.872 -89952.9 126572.993 -89972.902 126593.962 -89989.8 127828.137 -91223.976 127828.138 -91223.977 127828.14 -91223.978 127887.035 -91257.981 127936.028 -91309.363 127949.464 -91379.077 127923.078 -91444.988 127865.246 -91486.17 127824.035 -91493.1 122532.9 -91493.1 122464.779 -91473.098 122418.286 -91419.442 122406.9 -91367.1 122406.9 -90220.734 122426.902 -90152.613 122443.8 -90131.643 122623.676 -89951.766 122677.273 -89919.966 122690.076 -89916.208 122690.079 -89916.205 122690.082 -89916.205 122784.379 -89855.604 122799.636 -89845.799 122884.921 -89747.374 122939.023 -89628.909 122957.557 -89500 122939.023 -89371.091 122884.921 -89252.626 122799.636 -89154.201 122690.076 -89083.792 122690.075 -89083.791 122690.074 -89083.791 122565.119 -89047.1 122565.117 -89047.1 122434.883 -89047.1 122434.88 -89047.1 122309.925 -89083.791 122200.363 -89154.201 122115.079 -89252.625 122115.078 -89252.626 122076.734 -89336.586 122051.217 -89373.337 121674.401 -89750.154 121674.396 -89750.16 121620.832 -89842.936 121620.83 -89842.94 121620.83 -89842.942 121617.437 -89855.606 121604.07 -89905.493 121604.069 -89905.493 121593.1 -89946.427 121593.1 -91367.1 121573.098 -91435.221 121519.442 -91481.714 121467.1 -91493.1 114046.427 -91493.1 113942.943 -91520.829 113942.94 -91520.83 113850.161 -91574.396 113850.157 -91574.4 112691.193 -92733.361 112628.881 -92767.386 112558.065 -92762.321 112550.16 -92758.73 112550.087 -92758.897 112545.312 -92756.802 112333.26 -92684.004 112333.251 -92684.002 112289.277 -92676.664 112112.105 -92647.1 111887.895 -92647.1 111740.287 -92671.731 111666.748 -92684.002 111666.739 -92684.004 111454.688 -92756.802 111454.684 -92756.803 111454.684 -92756.804 111435.13 -92767.386 111257.495 -92863.517 111080.562 -93001.23 110928.712 -93166.184 110806.08 -93353.887 110716.019 -93559.204 110716.016 -93559.211 110660.979 -93776.549 110642.463 -94000 109458.982 -94000 109439.082 -93759.851 109379.932 -93526.272 109379.929 -93526.265 109283.138 -93305.604 109192.435 -93166.773 108792.742 -93566.465 108699.076 -93426.283 108573.717 -93300.924 108433.532 -93207.256 108834.096 -92806.692 108797.985 -92778.586 108586.066 -92663.902 108586.064 -92663.9 108358.163 -92585.662 108358.154 -92585.66 108120.478 -92546 107879.522 -92546 107641.845 -92585.66 107641.836 -92585.662 107413.935 -92663.9 107413.933 -92663.902 107202.01 -92778.588 107165.902 -92806.691 107165.901 -92806.692 107566.465 -93207.256 107426.283 -93300.924 107300.924 -93426.283 107207.256 -93566.465 106807.563 -93166.772 106807.562 -93166.773 106716.867 -93305.592 106716.86 -93305.606 106620.07 -93526.265 106620.067 -93526.272 106560.917 -93759.851 106541.017 -94000 105357.537 -94000 105339.022 -93776.557 105339.02 -93776.549 105283.983 -93559.211 105283.981 -93559.207 105193.918 -93353.884 105071.287 -93166.184 105029.776 -93121.091 104919.437 -93001.23 104919.436 -93001.229 104919.435 -93001.228 104838.166 -92937.974 104742.504 -92863.517 104712.674 -92847.374 104545.316 -92756.804 104545.312 -92756.802 104545.311 -92756.802 104333.26 -92684.004 104333.251 -92684.002 104289.277 -92676.664 104112.105 -92647.1 103887.895 -92647.1 103740.287 -92671.731 103666.748 -92684.002 103666.739 -92684.004 103454.688 -92756.802 103454.684 -92756.803 103454.684 -92756.804 103435.13 -92767.386 103257.495 -92863.517 103080.562 -93001.23 102928.712 -93166.184 102806.08 -93353.887 102716.019 -93559.204 102716.016 -93559.211 102660.979 -93776.549 102642.463 -94000 101357.537 -94000 101339.022 -93776.557 101339.02 -93776.549 101283.983 -93559.211 101283.981 -93559.207 101193.918 -93353.884 101071.287 -93166.184 101029.776 -93121.091 100919.437 -93001.23 100919.436 -93001.229 100919.435 -93001.228 100838.166 -92937.974 100742.504 -92863.517 100712.674 -92847.374 100545.316 -92756.804 100545.312 -92756.802 100545.311 -92756.802 100333.26 -92684.004 100333.251 -92684.002 100289.277 -92676.664 100112.105 -92647.1 99887.895 -92647.1 99740.287 -92671.731 99666.748 -92684.002 99666.739 -92684.004 99454.688 -92756.802 99454.684 -92756.803 99454.684 -92756.804 99435.13 -92767.386 99257.495 -92863.517 99080.562 -93001.23 98928.712 -93166.184 98806.08 -93353.887 98716.019 -93559.204 98716.016 -93559.211 98660.979 -93776.549 98642.463 -94000 97357.537 -94000 97339.022 -93776.557 97339.02 -93776.549 97283.983 -93559.211 97283.981 -93559.207 97193.918 -93353.884 97071.287 -93166.184 97029.776 -93121.091 96919.437 -93001.23 96919.436 -93001.229 96919.435 -93001.228 96838.166 -92937.974 96742.504 -92863.517 96712.674 -92847.374 96545.316 -92756.804 96545.312 -92756.802 96545.311 -92756.802 96333.26 -92684.004 96333.251 -92684.002 96289.277 -92676.664 96112.105 -92647.1 95887.895 -92647.1 95740.287 -92671.731 95666.748 -92684.002 95666.739 -92684.004 95454.688 -92756.802 95454.684 -92756.803 95454.684 -92756.804 95435.13 -92767.386 95257.495 -92863.517 95080.562 -93001.23 94928.712 -93166.184 94806.08 -93353.887 94716.019 -93559.204 94716.016 -93559.211 94660.979 -93776.549 94642.463 -94000 94050.5 -94000 94050.5 -90600 102767.41 -90600 102786.136 -90814.04 102841.743 -91021.569 102841.745 -91021.573 102932.547 -91216.298 103055.776 -91392.289 103055.785 -91392.299 103207.7 -91544.214 103207.71 -91544.223 103383.701 -91667.452 103383.7 -91667.452 103452.926 -91699.733 103578.429 -91758.256 103785.963 -91813.864 104000 -91832.59 104214.037 -91813.864 104421.571 -91758.256 104616.295 -91667.454 104616.298 -91667.452 104792.289 -91544.223 104792.291 -91544.22 104792.294 -91544.219 104944.219 -91392.294 104950.57 -91383.225 105067.452 -91216.298 105067.452 -91216.297 105067.454 -91216.295 105158.256 -91021.571 105213.864 -90814.037 105232.59 -90600 105228.216 -90550 106541.017 -90550 106560.917 -90790.148 106620.067 -91023.727 106620.07 -91023.734 106716.862 -91244.398 106807.562 -91383.225 106807.563 -91383.225 107207.255 -90983.532 107300.924 -91123.717 107426.283 -91249.076 107566.466 -91342.743 107165.902 -91743.307 107202.004 -91771.406 107413.937 -91886.099 107641.836 -91964.337 107641.845 -91964.339 107879.522 -92004 108120.478 -92004 108358.154 -91964.339 108358.163 -91964.337 108586.064 -91886.099 108586.066 -91886.098 108797.985 -91771.412 108797.988 -91771.411 108834.097 -91743.306 108433.534 -91342.743 108573.717 -91249.076 108699.076 -91123.717 108792.743 -90983.534 109192.434 -91383.225 109192.435 -91383.225 109283.138 -91244.395 109379.929 -91023.734 109379.932 -91023.727 109439.082 -90790.148 109458.982 -90550 109439.082 -90309.851 109379.932 -90076.272 109379.929 -90076.265 109283.138 -89855.604 109192.435 -89716.773 108792.742 -90116.465 108699.076 -89976.283 108573.717 -89850.924 108433.532 -89757.256 108834.096 -89356.692 108797.985 -89328.586 108586.066 -89213.902 108586.064 -89213.9 108358.163 -89135.662 108358.154 -89135.66 108120.478 -89096 107879.522 -89096 107641.845 -89135.66 107641.836 -89135.662 107413.935 -89213.9 107413.933 -89213.902 107202.01 -89328.588 107165.902 -89356.691 107165.901 -89356.692 107566.465 -89757.256 107426.283 -89850.924 107300.924 -89976.283 107207.256 -90116.465 106807.563 -89716.772 106807.562 -89716.773 106716.867 -89855.592 106716.86 -89855.606 106620.07 -90076.265 106620.067 -90076.272 106560.917 -90309.851 106541.017 -90550 105228.216 -90550 105213.864 -90385.963 105158.256 -90178.429 105067.454 -89983.705 105067.453 -89983.704 105067.452 -89983.701 104944.223 -89807.71 104944.214 -89807.7 104792.299 -89655.785 104792.289 -89655.776 104616.298 -89532.547 104616.299 -89532.547 104421.573 -89441.745 104421.569 -89441.743 104214.04 -89386.136 104000 -89367.41 103785.959 -89386.136 103578.43 -89441.743 103578.426 -89441.745 103383.701 -89532.547 103207.71 -89655.776 103207.7 -89655.785 103055.785 -89807.7 103055.776 -89807.71 102932.547 -89983.701 102841.745 -90178.426 102841.743 -90178.43 102786.136 -90385.959 102767.41 -90600 94050.5 -90600 94050.5 -89005.506 94050.979 -88994.525 94063.393 -88852.628 94063.964 -88846.098 94067.778 -88824.472 94081.196 -88774.396 94104.911 -88685.891 94112.416 -88665.269 94173.055 -88535.229 94184.026 -88516.228 94266.325 -88398.692 94280.432 -88381.881 94381.881 -88280.432 94398.692 -88266.325 94516.228 -88184.026 94535.229 -88173.055 94665.269 -88112.416 94685.891 -88104.911 94824.476 -88067.777 94846.098 -88063.964 94959.811 -88054.016 94994.526 -88050.979 95005.507 -88050.5 95016.408 -88050.5 121249.471 -88050.5 121317.592 -88070.502"/></g><g id="yPwO2dKz5yVDQrWpvcHE_bottom_soldermask"><use xlink:href="#uYXiqB8VEyPs3qRBpfNx_pad-10" x="96000" y="-94000"/><use xlink:href="#uYXiqB8VEyPs3qRBpfNx_pad-10" x="100000" y="-94000"/><use xlink:href="#uYXiqB8VEyPs3qRBpfNx_pad-10" x="104000" y="-94000"/><use xlink:href="#uYXiqB8VEyPs3qRBpfNx_pad-10" x="108000" y="-90550"/><use xlink:href="#uYXiqB8VEyPs3qRBpfNx_pad-10" x="108000" y="-94000"/><use xlink:href="#uYXiqB8VEyPs3qRBpfNx_pad-10" x="112000" y="-94000"/><use xlink:href="#uYXiqB8VEyPs3qRBpfNx_pad-10" x="116000" y="-94000"/><use xlink:href="#uYXiqB8VEyPs3qRBpfNx_pad-10" x="120000" y="-94000"/></g><g id="yPwO2dKz5yVDQrWpvcHE_bottom_drill1" transform="scale(25.4,25.4)"><use xlink:href="#q_8dlcolL_lWhzn0we_A_pad-1" x="4744.1" y="-3523.6"/><use xlink:href="#q_8dlcolL_lWhzn0we_A_pad-1" x="4822.8" y="-3523.6"/><use xlink:href="#q_8dlcolL_lWhzn0we_A_pad-1" x="4901.6" y="-3523.6"/><use xlink:href="#q_8dlcolL_lWhzn0we_A_pad-1" x="4980.3" y="-3523.6"/><use xlink:href="#q_8dlcolL_lWhzn0we_A_pad-1" x="5059.1" y="-3523.6"/><use xlink:href="#q_8dlcolL_lWhzn0we_A_pad-1" x="5346.5" y="-3566.9"/><use xlink:href="#q_8dlcolL_lWhzn0we_A_pad-1" x="5346.5" y="-3645.7"/><use xlink:href="#q_8dlcolL_lWhzn0we_A_pad-1" x="5374" y="-3671.3"/><use xlink:href="#q_8dlcolL_lWhzn0we_A_pad-1" x="5476.4" y="-3728.3"/><use xlink:href="#q_8dlcolL_lWhzn0we_A_pad-1" x="5551.2" y="-3507.9"/><use xlink:href="#q_8dlcolL_lWhzn0we_A_pad-1" x="5554.4" y="-3578.7"/><use xlink:href="#q_8dlcolL_lWhzn0we_A_pad-2" x="3779.5" y="-3700.8"/><use xlink:href="#q_8dlcolL_lWhzn0we_A_pad-2" x="3937" y="-3700.8"/><use xlink:href="#q_8dlcolL_lWhzn0we_A_pad-2" x="4094.5" y="-3700.8"/><use xlink:href="#q_8dlcolL_lWhzn0we_A_pad-2" x="4252" y="-3565"/><use xlink:href="#q_8dlcolL_lWhzn0we_A_pad-2" x="4252" y="-3700.8"/><use xlink:href="#q_8dlcolL_lWhzn0we_A_pad-2" x="4409.4" y="-3700.8"/><use xlink:href="#q_8dlcolL_lWhzn0we_A_pad-2" x="4566.9" y="-3700.8"/><use xlink:href="#q_8dlcolL_lWhzn0we_A_pad-2" x="4724.4" y="-3700.8"/></g><clipPath id="yPwO2dKz5yVDQrWpvcHE_bottom_outline"><path d="M 94000 -89000 94000 -96000 A 1000 1000 0 0 1 95000 -97000 L 134500 -97000 A 500 500 0 0 1 135000 -96500 500 500 0 0 0 135500 -96000 L 141000 -96000 A 1000 1000 0 0 1 142000 -95000 L 142000 -89000 A 1000 1000 0 0 1 141000 -88000 L 95000 -88000 A 1000 1000 0 0 1 94000 -89000 M 122000 -93000 122000 -95000 A 500 500 0 0 1 122500 -95500 L 129000 -95500 A 500 500 0 0 1 129500 -95000 L 129500 -93000 A 500 500 0 0 1 129000 -92500 L 122500 -92500 A 500 500 0 0 1 122000 -93000" fill="none" stroke-width="100"/></clipPath><mask id="yPwO2dKz5yVDQrWpvcHE_bottom_mech-mask"><g fill="#000" stroke="#000"><rect x="94000" y="-97000" width="48000" height="9000" fill="#fff"/><use xlink:href="#yPwO2dKz5yVDQrWpvcHE_bottom_drill1"/></g></mask><mask id="yPwO2dKz5yVDQrWpvcHE_bottom_cf-mask"><g fill="#fff" stroke="#fff"><use xlink:href="#yPwO2dKz5yVDQrWpvcHE_bottom_soldermask"/></g></mask><mask id="yPwO2dKz5yVDQrWpvcHE_bottom_sm-mask"><g fill="#000" stroke="#000"><rect x="94000" y="-97000" width="48000" height="9000" fill="#fff"/><use xlink:href="#yPwO2dKz5yVDQrWpvcHE_bottom_soldermask"/></g></mask></defs><g transform="translate(0,-185000) scale(1,-1)"><g mask="url(#yPwO2dKz5yVDQrWpvcHE_bottom_mech-mask)" clip-path="url(#yPwO2dKz5yVDQrWpvcHE_bottom_outline)" transform="translate(236000,0) scale(-1,1)"><rect x="94000" y="-97000" width="48000" height="9000" fill="currentColor" class="yPwO2dKz5yVDQrWpvcHE_fr4"/><use xlink:href="#yPwO2dKz5yVDQrWpvcHE_bottom_copper" fill="currentColor" stroke="currentColor" class="yPwO2dKz5yVDQrWpvcHE_cu"/><use xlink:href="#yPwO2dKz5yVDQrWpvcHE_bottom_copper" fill="currentColor" stroke="currentColor" class="yPwO2dKz5yVDQrWpvcHE_cf" mask="url(#yPwO2dKz5yVDQrWpvcHE_bottom_cf-mask)"/><g mask="url(#yPwO2dKz5yVDQrWpvcHE_bottom_sm-mask)"><rect x="94000" y="-97000" width="48000" height="9000" fill="currentColor" class="yPwO2dKz5yVDQrWpvcHE_sm"/><use xlink:href="#yPwO2dKz5yVDQrWpvcHE_bottom_silkscreen" fill="currentColor" stroke="currentColor" class="yPwO2dKz5yVDQrWpvcHE_ss"/></g></g></g></svg>