<svg version="1.1" xmlns="http://www.w3.org/2000/svg" xmlns:xlink="http://www.w3.org/1999/xlink" stroke-linecap="round" stroke-linejoin="round" stroke-width="0" fill-rule="evenodd" clip-rule="evenodd" id="l5hOAyLajr8HwcWnrPjs_top" viewBox="104000 -96000 17500 11000" width="17.5mm" height="11mm" class="w-100 h-100"><defs><style>.l5hOAyLajr8HwcWnrPjs_fr4 {color: #666666;}
.l5hOAyLajr8HwcWnrPjs_cu {color: #cccccc;}
.l5hOAyLajr8HwcWnrPjs_cf {color: #cc9933;}
.l5hOAyLajr8HwcWnrPjs_sm {color: #004200; opacity: 0.75;}
.l5hOAyLajr8HwcWnrPjs_ss {color: #ffffff;}
.l5hOAyLajr8HwcWnrPjs_sp {color: #999999;}
.l5hOAyLajr8HwcWnrPjs_out {color: #000000;}</style><rect x="-400" y="-450" width="800" height="900" id="LUC7N_Htw2an8dM_moyD_pad-10"/><g id="LUC7N_Htw2an8dM_moyD_pad-11"><polygon points="185.616,291.682 -291.682,-185.616 -185.616,-291.682 291.682,185.616"/><circle cx="185.616" cy="291.682" r="75"/><circle cx="-291.682" cy="-185.616" r="75"/><circle cx="-185.616" cy="-291.682" r="75"/><circle cx="291.682" cy="185.616" r="75"/><polygon points="238.64901,238.64899 -238.64899,-238.64901 -344.71501,-132.58299 132.58299,344.71501"/><polygon points="-344.71501,-238.64901 -238.64901,-344.71501 -132.58299,-238.64899 -238.64899,-132.58299"/><polygon points="-132.58299,-344.71501 344.71501,132.58299 238.64899,238.64901 -238.64901,-238.64899"/><polygon points="238.64899,132.58299 132.58299,238.64899 238.64901,344.71501 344.71501,238.64901"/></g><g id="LUC7N_Htw2an8dM_moyD_pad-12"><polygon points="-185.616,291.682 -291.682,185.616 185.616,-291.682 291.682,-185.616"/><circle cx="-185.616" cy="291.682" r="75"/><circle cx="-291.682" cy="185.616" r="75"/><circle cx="185.616" cy="-291.682" r="75"/><circle cx="291.682" cy="-185.616" r="75"/><polygon points="-132.58299,238.64899 -238.64899,132.58299 -344.71501,238.64901 -238.64901,344.71501"/><polygon points="-344.71501,132.58299 132.58299,-344.71501 238.64901,-238.64899 -238.64899,238.64901"/><polygon points="238.64901,-344.71501 344.71501,-238.64901 238.64899,-132.58299 132.58299,-238.64899"/><polygon points="238.64899,-238.64901 -238.64901,238.64899 -132.58299,344.71501 344.71501,-132.58299"/></g><polygon points="1838.47764,0 0,-1838.47764 -1838.47764,0 0,1838.47764" id="LUC7N_Htw2an8dM_moyD_pad-13"/><circle cx="0" cy="0" r="500" id="LUC7N_Htw2an8dM_moyD_pad-14"/><circle cx="0" cy="0" r="600" id="LUC7N_Htw2an8dM_moyD_pad-15"/><rect x="-700" y="-900" width="1400" height="1800" rx="700" ry="700" id="LUC7N_Htw2an8dM_moyD_pad-16"/><g id="LUC7N_Htw2an8dM_moyD_pad-17"><polygon points="1150,-900 1150,900 -1150,900 -1150,-900"/><circle cx="1150" cy="-900" r="100"/><circle cx="1150" cy="900" r="100"/><circle cx="-1150" cy="900" r="100"/><circle cx="-1150" cy="-900" r="100"/><polygon points="1250,-900 1250,900 1050,900 1050,-900"/><polygon points="1150,800 -1150,800 -1150,1000 1150,1000"/><polygon points="-1050,900 -1050,-900 -1250,-900 -1250,900"/><polygon points="-1150,-1000 1150,-1000 1150,-800 -1150,-800"/></g><rect x="-400" y="-450" width="800" height="900" id="TpzcI0GJIknc88_9cT79_pad-15"/><g id="TpzcI0GJIknc88_9cT79_pad-16"><polygon points="185.616,291.682 -291.682,-185.616 -185.616,-291.682 291.682,185.616"/><circle cx="185.616" cy="291.682" r="75"/><circle cx="-291.682" cy="-185.616" r="75"/><circle cx="-185.616" cy="-291.682" r="75"/><circle cx="291.682" cy="185.616" r="75"/><polygon points="238.64901,238.64899 -238.64899,-238.64901 -344.71501,-132.58299 132.58299,344.71501"/><polygon points="-344.71501,-238.64901 -238.64901,-344.71501 -132.58299,-238.64899 -238.64899,-132.58299"/><polygon points="-132.58299,-344.71501 344.71501,132.58299 238.64899,238.64901 -238.64901,-238.64899"/><polygon points="238.64899,132.58299 132.58299,238.64899 238.64901,344.71501 344.71501,238.64901"/></g><g id="TpzcI0GJIknc88_9cT79_pad-17"><polygon points="-185.616,291.682 -291.682,185.616 185.616,-291.682 291.682,-185.616"/><circle cx="-185.616" cy="291.682" r="75"/><circle cx="-291.682" cy="185.616" r="75"/><circle cx="185.616" cy="-291.682" r="75"/><circle cx="291.682" cy="-185.616" r="75"/><polygon points="-132.58299,238.64899 -238.64899,132.58299 -344.71501,238.64901 -238.64901,344.71501"/><polygon points="-344.71501,132.58299 132.58299,-344.71501 238.64901,-238.64899 -238.64899,238.64901"/><polygon points="238.64901,-344.71501 344.71501,-238.64901 238.64899,-132.58299 132.58299,-238.64899"/><polygon points="238.64899,-238.64901 -238.64901,238.64899 -132.58299,344.71501 344.71501,-132.58299"/></g><polygon points="1838.47764,0 0,-1838.47764 -1838.47764,0 0,1838.47764" id="TpzcI0GJIknc88_9cT79_pad-18"/><circle cx="0" cy="0" r="500" id="TpzcI0GJIknc88_9cT79_pad-19"/><rect x="-700" y="-900" width="1400" height="1800" rx="700" ry="700" id="TpzcI0GJIknc88_9cT79_pad-20"/><g id="TpzcI0GJIknc88_9cT79_pad-21"><polygon points="1150,-900 1150,900 -1150,900 -1150,-900"/><circle cx="1150" cy="-900" r="100"/><circle cx="1150" cy="900" r="100"/><circle cx="-1150" cy="900" r="100"/><circle cx="-1150" cy="-900" r="100"/><polygon points="1250,-900 1250,900 1050,900 1050,-900"/><polygon points="1150,800 -1150,800 -1150,1000 1150,1000"/><polygon points="-1050,900 -1050,-900 -1250,-900 -1250,900"/><polygon points="-1150,-1000 1150,-1000 1150,-800 -1150,-800"/></g><circle cx="0" cy="0" r="300" id="TpzcI0GJIknc88_9cT79_pad-22"/><rect x="-400" y="-450" width="800" height="900" id="bnBe_9SdgdDch13JmCCF_pad-10"/><g id="bnBe_9SdgdDch13JmCCF_pad-11"><polygon points="0,388.909 -388.909,0 0,-388.909 388.909,0"/><circle cx="0" cy="388.909" r="250"/><circle cx="-388.909" cy="0" r="250"/><circle cx="0" cy="-388.909" r="250"/><circle cx="388.909" cy="0" r="250"/><polygon points="176.7767,212.1323 -212.1323,-176.7767 -565.6857,176.7767 -176.7767,565.6857"/><polygon points="-565.6857,-176.7767 -176.7767,-565.6857 176.7767,-212.1323 -212.1323,176.7767"/><polygon points="176.7767,-565.6857 565.6857,-176.7767 212.1323,176.7767 -176.7767,-212.1323"/><polygon points="212.1323,-176.7767 -176.7767,212.1323 176.7767,565.6857 565.6857,176.7767"/></g><g id="bnBe_9SdgdDch13JmCCF_pad-12"><polygon points="185.616,291.682 -291.682,-185.616 -185.616,-291.682 291.682,185.616"/><circle cx="185.616" cy="291.682" r="75"/><circle cx="-291.682" cy="-185.616" r="75"/><circle cx="-185.616" cy="-291.682" r="75"/><circle cx="291.682" cy="185.616" r="75"/><polygon points="238.64901,238.64899 -238.64899,-238.64901 -344.71501,-132.58299 132.58299,344.71501"/><polygon points="-344.71501,-238.64901 -238.64901,-344.71501 -132.58299,-238.64899 -238.64899,-132.58299"/><polygon points="-132.58299,-344.71501 344.71501,132.58299 238.64899,238.64901 -238.64901,-238.64899"/><polygon points="238.64899,132.58299 132.58299,238.64899 238.64901,344.71501 344.71501,238.64901"/></g><g id="bnBe_9SdgdDch13JmCCF_pad-13"><polygon points="-185.616,291.682 -291.682,185.616 185.616,-291.682 291.682,-185.616"/><circle cx="-185.616" cy="291.682" r="75"/><circle cx="-291.682" cy="185.616" r="75"/><circle cx="185.616" cy="-291.682" r="75"/><circle cx="291.682" cy="-185.616" r="75"/><polygon points="-132.58299,238.64899 -238.64899,132.58299 -344.71501,238.64901 -238.64901,344.71501"/><polygon points="-344.71501,132.58299 132.58299,-344.71501 238.64901,-238.64899 -238.64899,238.64901"/><polygon points="238.64901,-344.71501 344.71501,-238.64901 238.64899,-132.58299 132.58299,-238.64899"/><polygon points="238.64899,-238.64901 -238.64901,238.64899 -132.58299,344.71501 344.71501,-132.58299"/></g><g id="bnBe_9SdgdDch13JmCCF_pad-14"><polygon points="1150,-900 1150,900 -1150,900 -1150,-900"/><circle cx="1150" cy="-900" r="100"/><circle cx="1150" cy="900" r="100"/><circle cx="-1150" cy="900" r="100"/><circle cx="-1150" cy="-900" r="100"/><polygon points="1250,-900 1250,900 1050,900 1050,-900"/><polygon points="1150,800 -1150,800 -1150,1000 1150,1000"/><polygon points="-1050,900 -1050,-900 -1250,-900 -1250,900"/><polygon points="-1150,-1000 1150,-1000 1150,-800 -1150,-800"/></g><rect x="-400" y="-450" width="800" height="900" id="w4YB6PNhSLvAaR2dYU6H_pad-13"/><g id="w4YB6PNhSLvAaR2dYU6H_pad-14"><polygon points="185.616,291.682 -291.682,-185.616 -185.616,-291.682 291.682,185.616"/><circle cx="185.616" cy="291.682" r="75"/><circle cx="-291.682" cy="-185.616" r="75"/><circle cx="-185.616" cy="-291.682" r="75"/><circle cx="291.682" cy="185.616" r="75"/><polygon points="238.64901,238.64899 -238.64899,-238.64901 -344.71501,-132.58299 132.58299,344.71501"/><polygon points="-344.71501,-238.64901 -238.64901,-344.71501 -132.58299,-238.64899 -238.64899,-132.58299"/><polygon points="-132.58299,-344.71501 344.71501,132.58299 238.64899,238.64901 -238.64901,-238.64899"/><polygon points="238.64899,132.58299 132.58299,238.64899 238.64901,344.71501 344.71501,238.64901"/></g><g id="w4YB6PNhSLvAaR2dYU6H_pad-15"><polygon points="-185.616,291.682 -291.682,185.616 185.616,-291.682 291.682,-185.616"/><circle cx="-185.616" cy="291.682" r="75"/><circle cx="-291.682" cy="185.616" r="75"/><circle cx="185.616" cy="-291.682" r="75"/><circle cx="291.682" cy="-185.616" r="75"/><polygon points="-132.58299,238.64899 -238.64899,132.58299 -344.71501,238.64901 -238.64901,344.71501"/><polygon points="-344.71501,132.58299 132.58299,-344.71501 238.64901,-238.64899 -238.64899,238.64901"/><polygon points="238.64901,-344.71501 344.71501,-238.64901 238.64899,-132.58299 132.58299,-238.64899"/><polygon points="238.64899,-238.64901 -238.64901,238.64899 -132.58299,344.71501 344.71501,-132.58299"/></g><polygon points="1838.47764,0 0,-1838.47764 -1838.47764,0 0,1838.47764" id="w4YB6PNhSLvAaR2dYU6H_pad-16"/><circle cx="0" cy="0" r="500" id="w4YB6PNhSLvAaR2dYU6H_pad-17"/><circle cx="0" cy="0" r="600" id="w4YB6PNhSLvAaR2dYU6H_pad-18"/><rect x="-700" y="-900" width="1400" height="1800" rx="700" ry="700" id="w4YB6PNhSLvAaR2dYU6H_pad-19"/><g id="w4YB6PNhSLvAaR2dYU6H_pad-20"><polygon points="1150,-900 1150,900 -1150,900 -1150,-900"/><circle cx="1150" cy="-900" r="100"/><circle cx="1150" cy="900" r="100"/><circle cx="-1150" cy="900" r="100"/><circle cx="-1150" cy="-900" r="100"/><polygon points="1250,-900 1250,900 1050,900 1050,-900"/><polygon points="1150,800 -1150,800 -1150,1000 1150,1000"/><polygon points="-1050,900 -1050,-900 -1250,-900 -1250,900"/><polygon points="-1150,-1000 1150,-1000 1150,-800 -1150,-800"/></g><mask id="w4YB6PNhSLvAaR2dYU6H_clear-1" fill="#000" stroke="#000"><g><rect x="104830.074" y="-95560.001" width="16616.967" height="9820.613" fill="#fff"/><use xlink:href="#w4YB6PNhSLvAaR2dYU6H_pad-13" x="118900" y="-94900"/><use xlink:href="#w4YB6PNhSLvAaR2dYU6H_pad-13" x="117100" y="-94900"/><use xlink:href="#w4YB6PNhSLvAaR2dYU6H_pad-14" x="120059.449" y="-89819.41"/><use xlink:href="#w4YB6PNhSLvAaR2dYU6H_pad-14" x="119599.829" y="-89359.79"/><use xlink:href="#w4YB6PNhSLvAaR2dYU6H_pad-14" x="119140.21" y="-88900.171"/><use xlink:href="#w4YB6PNhSLvAaR2dYU6H_pad-14" x="118680.59" y="-88440.551"/><use xlink:href="#w4YB6PNhSLvAaR2dYU6H_pad-15" x="117319.41" y="-88440.551"/><use xlink:href="#w4YB6PNhSLvAaR2dYU6H_pad-15" x="116859.79" y="-88900.171"/><use xlink:href="#w4YB6PNhSLvAaR2dYU6H_pad-15" x="116400.171" y="-89359.79"/><use xlink:href="#w4YB6PNhSLvAaR2dYU6H_pad-15" x="115940.551" y="-89819.41"/><use xlink:href="#w4YB6PNhSLvAaR2dYU6H_pad-14" x="115940.551" y="-91180.59"/><use xlink:href="#w4YB6PNhSLvAaR2dYU6H_pad-14" x="116400.171" y="-91640.21"/><use xlink:href="#w4YB6PNhSLvAaR2dYU6H_pad-14" x="116859.79" y="-92099.829"/><use xlink:href="#w4YB6PNhSLvAaR2dYU6H_pad-14" x="117319.41" y="-92559.449"/><use xlink:href="#w4YB6PNhSLvAaR2dYU6H_pad-15" x="118680.59" y="-92559.449"/><use xlink:href="#w4YB6PNhSLvAaR2dYU6H_pad-15" x="119140.21" y="-92099.829"/><use xlink:href="#w4YB6PNhSLvAaR2dYU6H_pad-15" x="119599.829" y="-91640.21"/><use xlink:href="#w4YB6PNhSLvAaR2dYU6H_pad-15" x="120059.449" y="-91180.59"/><use xlink:href="#w4YB6PNhSLvAaR2dYU6H_pad-16" x="118000" y="-90500"/><use xlink:href="#w4YB6PNhSLvAaR2dYU6H_pad-17" x="113000" y="-95000"/><use xlink:href="#w4YB6PNhSLvAaR2dYU6H_pad-17" x="111000" y="-95000"/><use xlink:href="#w4YB6PNhSLvAaR2dYU6H_pad-17" x="109000" y="-95000"/><use xlink:href="#w4YB6PNhSLvAaR2dYU6H_pad-17" x="107000" y="-95000"/><use xlink:href="#w4YB6PNhSLvAaR2dYU6H_pad-18" x="111500" y="-90000"/><use xlink:href="#w4YB6PNhSLvAaR2dYU6H_pad-18" x="112500" y="-92500"/><use xlink:href="#w4YB6PNhSLvAaR2dYU6H_pad-18" x="113500" y="-90000"/><use xlink:href="#w4YB6PNhSLvAaR2dYU6H_pad-18" x="114500" y="-92500"/><use xlink:href="#w4YB6PNhSLvAaR2dYU6H_pad-19" x="109500" y="-89750"/><use xlink:href="#w4YB6PNhSLvAaR2dYU6H_pad-19" x="107500" y="-89750"/><use xlink:href="#w4YB6PNhSLvAaR2dYU6H_pad-19" x="108500" y="-92250"/><use xlink:href="#w4YB6PNhSLvAaR2dYU6H_pad-19" x="106500" y="-92250"/><use xlink:href="#w4YB6PNhSLvAaR2dYU6H_pad-19" x="110500" y="-92250"/><use xlink:href="#w4YB6PNhSLvAaR2dYU6H_pad-19" x="105500" y="-89750"/><use xlink:href="#w4YB6PNhSLvAaR2dYU6H_pad-17" x="105000" y="-95000"/><use xlink:href="#w4YB6PNhSLvAaR2dYU6H_pad-20" x="119800" y="-86400"/></g></mask><circle cx="0" cy="0" r="23.6" id="J1hogTXUkUEuuF5KyNFY_pad-1"/><circle cx="0" cy="0" r="5.9" id="nqqBZqwVYYLBm3Podk4x_pad-1"/><circle cx="0" cy="0" r="23.6" id="nqqBZqwVYYLBm3Podk4x_pad-2"/><g id="l5hOAyLajr8HwcWnrPjs_top_soldermask"><use xlink:href="#LUC7N_Htw2an8dM_moyD_pad-10" x="118900" y="-94900"/><use xlink:href="#LUC7N_Htw2an8dM_moyD_pad-10" x="117100" y="-94900"/><use xlink:href="#LUC7N_Htw2an8dM_moyD_pad-11" x="120059.449" y="-89819.41"/><use xlink:href="#LUC7N_Htw2an8dM_moyD_pad-11" x="119599.829" y="-89359.79"/><use xlink:href="#LUC7N_Htw2an8dM_moyD_pad-11" x="119140.21" y="-88900.171"/><use xlink:href="#LUC7N_Htw2an8dM_moyD_pad-11" x="118680.59" y="-88440.551"/><use xlink:href="#LUC7N_Htw2an8dM_moyD_pad-12" x="117319.41" y="-88440.551"/><use xlink:href="#LUC7N_Htw2an8dM_moyD_pad-12" x="116859.79" y="-88900.171"/><use xlink:href="#LUC7N_Htw2an8dM_moyD_pad-12" x="116400.171" y="-89359.79"/><use xlink:href="#LUC7N_Htw2an8dM_moyD_pad-12" x="115940.551" y="-89819.41"/><use xlink:href="#LUC7N_Htw2an8dM_moyD_pad-11" x="115940.551" y="-91180.59"/><use xlink:href="#LUC7N_Htw2an8dM_moyD_pad-11" x="116400.171" y="-91640.21"/><use xlink:href="#LUC7N_Htw2an8dM_moyD_pad-11" x="116859.79" y="-92099.829"/><use xlink:href="#LUC7N_Htw2an8dM_moyD_pad-11" x="117319.41" y="-92559.449"/><use xlink:href="#LUC7N_Htw2an8dM_moyD_pad-12" x="118680.59" y="-92559.449"/><use xlink:href="#LUC7N_Htw2an8dM_moyD_pad-12" x="119140.21" y="-92099.829"/><use xlink:href="#LUC7N_Htw2an8dM_moyD_pad-12" x="119599.829" y="-91640.21"/><use xlink:href="#LUC7N_Htw2an8dM_moyD_pad-12" x="120059.449" y="-91180.59"/><use xlink:href="#LUC7N_Htw2an8dM_moyD_pad-13" x="118000" y="-90500"/><use xlink:href="#LUC7N_Htw2an8dM_moyD_pad-14" x="113000" y="-95000"/><use xlink:href="#LUC7N_Htw2an8dM_moyD_pad-14" x="111000" y="-95000"/><use xlink:href="#LUC7N_Htw2an8dM_moyD_pad-14" x="109000" y="-95000"/><use xlink:href="#LUC7N_Htw2an8dM_moyD_pad-14" x="107000" y="-95000"/><use xlink:href="#LUC7N_Htw2an8dM_moyD_pad-15" x="111500" y="-90000"/><use xlink:href="#LUC7N_Htw2an8dM_moyD_pad-15" x="112500" y="-92500"/><use xlink:href="#LUC7N_Htw2an8dM_moyD_pad-15" x="113500" y="-90000"/><use xlink:href="#LUC7N_Htw2an8dM_moyD_pad-15" x="114500" y="-92500"/><use xlink:href="#LUC7N_Htw2an8dM_moyD_pad-16" x="109500" y="-89750"/><use xlink:href="#LUC7N_Htw2an8dM_moyD_pad-16" x="107500" y="-89750"/><use xlink:href="#LUC7N_Htw2an8dM_moyD_pad-16" x="108500" y="-92250"/><use xlink:href="#LUC7N_Htw2an8dM_moyD_pad-16" x="106500" y="-92250"/><use xlink:href="#LUC7N_Htw2an8dM_moyD_pad-16" x="110500" y="-92250"/><use xlink:href="#LUC7N_Htw2an8dM_moyD_pad-16" x="105500" y="-89750"/><use xlink:href="#LUC7N_Htw2an8dM_moyD_pad-14" x="105000" y="-95000"/><use xlink:href="#LUC7N_Htw2an8dM_moyD_pad-17" x="119800" y="-86400"/></g><g id="l5hOAyLajr8HwcWnrPjs_top_copper"><path d="M 104200 -95000 104200 -94500 M 105000 -95800 A 800 800 0 0 0 104200 -95000 M 105000 -95800 114000 -95800" fill="none" stroke-width="100"/><path d="M 104272.931 -94202.978 104272.931 -93752.978 M 104744.36 -94160.121 104722.932 -94181.55 104658.646 -94202.978 104615.789 -94202.978 104551.503 -94181.55 104508.646 -94138.692 104487.217 -94095.835 104465.789 -94010.121 104465.789 -93945.835 104487.217 -93860.121 104508.646 -93817.264 104551.503 -93774.407 104615.789 -93752.978 104658.646 -93752.978 104722.932 -93774.407 104744.36 -93795.835 M 104915.789 -94181.55 104980.075 -94202.978 105087.217 -94202.978 105130.075 -94181.55 105151.503 -94160.121 105172.932 -94117.264 105172.932 -94074.407 105151.503 -94031.55 105130.075 -94010.121 105087.217 -93988.692 105001.503 -93967.264 104958.646 -93945.835 104937.217 -93924.407 104915.789 -93881.55 104915.789 -93838.692 104937.217 -93795.835 104958.646 -93774.407 105001.503 -93752.978 105108.646 -93752.978 105172.932 -93774.407 M 105365.788 -94202.978 105365.788 -93752.978 105537.217 -93752.978 105580.074 -93774.407 105601.503 -93795.835 105622.931 -93838.692 105622.931 -93902.978 105601.503 -93945.835 105580.074 -93967.264 105537.217 -93988.692 105365.788 -93988.692" fill="none" stroke-width="100"/><path d="M 113663.054 -95333.333 113913.054 -95250 113663.054 -95166.666 M 113913.054 -95083.333 113663.054 -95083.333 113663.054 -94988.095 113674.959 -94964.285 113686.864 -94952.38 113710.673 -94940.476 113746.388 -94940.476 113770.197 -94952.38 113782.102 -94964.285 113794.007 -94988.095 113794.007 -95083.333 M 113913.054 -94833.333 113663.054 -94833.333 113663.054 -94738.095 113674.959 -94714.285 113686.864 -94702.38 113710.673 -94690.476 113746.388 -94690.476 113770.197 -94702.38 113782.102 -94714.285 113794.007 -94738.095 113794.007 -94833.333" fill="none" stroke-width="50"/><path d="M 111663.054 -95333.333 111913.054 -95250 111663.054 -95166.666 M 111913.054 -95083.333 111663.054 -95083.333 111663.054 -95023.809 111674.959 -94988.095 111698.769 -94964.285 111722.578 -94952.38 111770.197 -94940.476 111805.911 -94940.476 111853.53 -94952.38 111877.34 -94964.285 111901.15 -94988.095 111913.054 -95023.809 111913.054 -95083.333 M 111913.054 -94833.333 111663.054 -94833.333 111663.054 -94773.809 111674.959 -94738.095 111698.769 -94714.285 111722.578 -94702.38 111770.197 -94690.476 111805.911 -94690.476 111853.53 -94702.38 111877.34 -94714.285 111901.15 -94738.095 111913.054 -94773.809 111913.054 -94833.333" fill="none" stroke-width="50"/><path d="M 109663.054 -95321.428 109913.054 -95238.095 109663.054 -95154.761 M 109901.15 -95083.332 109913.054 -95047.618 109913.054 -94988.094 109901.15 -94964.285 109889.245 -94952.38 109865.435 -94940.475 109841.626 -94940.475 109817.816 -94952.38 109805.911 -94964.285 109794.007 -94988.094 109782.102 -95035.713 109770.197 -95059.523 109758.292 -95071.428 109734.483 -95083.332 109710.673 -95083.332 109686.864 -95071.428 109674.959 -95059.523 109663.054 -95035.713 109663.054 -94976.19 109674.959 -94940.475 M 109901.15 -94845.237 109913.054 -94809.523 109913.054 -94749.999 109901.15 -94726.19 109889.245 -94714.285 109865.435 -94702.38 109841.626 -94702.38 109817.816 -94714.285 109805.911 -94726.19 109794.007 -94749.999 109782.102 -94797.618 109770.197 -94821.428 109758.292 -94833.333 109734.483 -94845.237 109710.673 -94845.237 109686.864 -94833.333 109674.959 -94821.428 109663.054 -94797.618 109663.054 -94738.095 109674.959 -94702.38" fill="none" stroke-width="50"/><path d="M 107913.054 -95267.857 107663.054 -95267.857 107663.054 -95208.333 107674.959 -95172.619 107698.769 -95148.809 107722.578 -95136.904 107770.197 -95125 107805.911 -95125 107853.53 -95136.904 107877.34 -95148.809 107901.15 -95172.619 107913.054 -95208.333 107913.054 -95267.857 M 107841.626 -95029.761 107841.626 -94910.714 M 107913.054 -95053.571 107663.054 -94970.238 107913.054 -94886.904 M 107663.054 -94839.285 107663.054 -94696.428 M 107913.054 -94767.856 107663.054 -94767.856" fill="none" stroke-width="50"/><path d="M 105892.245 -95148.809 105904.15 -95160.713 105916.054 -95196.428 105916.054 -95220.237 105904.15 -95255.951 105880.34 -95279.761 105856.53 -95291.666 105808.911 -95303.57 105773.197 -95303.57 105725.578 -95291.666 105701.769 -95279.761 105677.959 -95255.951 105666.054 -95220.237 105666.054 -95196.428 105677.959 -95160.713 105689.864 -95148.809 M 105916.054 -94922.618 105916.054 -95041.666 105666.054 -95041.666 M 105916.054 -94839.285 105666.054 -94839.285 M 105916.054 -94696.428 105773.197 -94803.57 M 105666.054 -94696.428 105808.911 -94839.285" fill="none" stroke-width="50"/><path d="M 120992.125 -94320.839 120840.178 -94320.839 120840.178 -94173.428 120992.125 -94173.428 120992.125 -94320.839" fill="none" stroke-width="10"/><path d="M 120992.125 -94320.839 120840.178 -94320.839 120840.178 -94173.428 120992.125 -94173.428 120992.125 -94320.839"/><path d="M 120990.991 -93882.008 120991.589 -93956.281 120992.187 -94030.553 120785.75 -94030.553 120785.782 -94393.977 120785.8 -94437.716 120785.845 -94480.118 120785.916 -94520.937 120786.011 -94559.929 120786.129 -94596.849 120786.269 -94631.454 120786.429 -94663.498 120786.609 -94692.737 120786.806 -94718.926 120787.019 -94741.821 120787.247 -94761.178 120787.488 -94776.752 120787.742 -94788.299 120788.006 -94795.573 120788.027 -94795.955 120790.656 -94831.148 120794.269 -94862.5 120798.842 -94889.88 120804.351 -94913.156 120810.771 -94932.197 120815.495 -94942.382 120826.643 -94958.511 120841.52 -94972.087 120860.095 -94983.097 120882.339 -94991.532 120908.224 -94997.378 120937.72 -95000.623 120960.92 -95001.343 120992.192 -95001.414 120991.591 -95068.774 120990.991 -95136.133 120970.58 -95136.836 120960.088 -95136.911 120946.822 -95136.588 120932.52 -95135.929 120919.553 -95135.046 120880.056 -95130.342 120844.106 -95122.928 120811.577 -95112.76 120782.346 -95099.789 120756.287 -95083.971 120734.977 -95066.837 120715.656 -95046.172 120698.361 -95021.46 120683.098 -94992.712 120669.871 -94959.939 120658.685 -94923.155 120649.544 -94882.371 120642.455 -94837.6 120641.363 -94828.839 120640.856 -94824.295 120640.392 -94819.382 120639.969 -94813.882 120639.584 -94807.578 120639.236 -94800.25 120638.922 -94791.683 120638.639 -94781.656 120638.384 -94769.954 120638.156 -94756.356 120637.952 -94740.647 120637.769 -94722.607 120637.605 -94702.019 120637.457 -94678.665 120637.323 -94652.328 120637.201 -94622.788 120637.088 -94589.828 120636.981 -94553.23 120636.879 -94512.777 120636.778 -94468.25 120636.676 -94419.432 120636.664 -94413.254 120635.898 -94030.553 120579.384 -94030.553 120578.812 -94576.54 120578.241 -95122.526 120503.968 -95123.124 120429.696 -95123.722 120429.696 -94030.553 120366.369 -94030.553 120365.603 -94413.254 120365.503 -94463.703 120365.41 -94509.844 120365.315 -94551.904 120365.213 -94590.109 120365.095 -94624.688 120364.954 -94655.867 120364.784 -94683.874 120364.577 -94708.935 120364.325 -94731.279 120364.022 -94751.132 120363.661 -94768.721 120363.233 -94784.274 120362.732 -94798.019 120362.151 -94810.181 120361.482 -94820.988 120360.719 -94830.669 120359.853 -94839.449 120358.878 -94847.556 120357.787 -94855.217 120356.571 -94862.66 120355.225 -94870.111 120353.741 -94877.799 120352.111 -94885.949 120350.329 -94894.79 120350.279 -94895.035 120341.189 -94933.468 120330.128 -94967.93 120317.028 -94998.568 120301.818 -95025.528 120284.428 -95048.959 120269.83 -95064.384 120248.038 -95082.665 120223.999 -95098.13 120197.44 -95110.868 120168.086 -95120.974 120135.662 -95128.537 120099.894 -95133.651 120060.507 -95136.406 120053.799 -95136.636 120010.143 -95137.93 120010.143 -95001.164 120025.451 -95002.541 120037.915 -95002.953 120053.324 -95002.394 120070.222 -95001.003 120087.156 -94998.918 120102.671 -94996.278 120111.255 -94994.343 120132.363 -94987.802 120150.159 -94979.6 120164.996 -94969.32 120177.232 -94956.541 120187.219 -94940.844 120195.315 -94921.808 120201.874 -94899.013 120205.237 -94883.267 120206.43 -94876.999 120207.522 -94871.032 120208.517 -94865.148 120209.42 -94859.13 120210.237 -94852.759 120210.972 -94845.815 120211.63 -94838.081 120212.217 -94829.337 120212.737 -94819.367 120213.196 -94807.95 120213.598 -94794.868 120213.948 -94779.904 120214.252 -94762.838 120214.515 -94743.451 120214.741 -94721.526 120214.936 -94696.844 120215.104 -94669.186 120215.251 -94638.334 120215.381 -94604.07 120215.501 -94566.174 120215.614 -94524.428 120215.725 -94478.614 120215.84 -94428.513 120215.857 -94421.191 120216.743 -94030.553 120010.143 -94030.553 120010.143 -93880.864 120990.991 -93882.008" fill="none" stroke-width="10"/><path d="M 120990.991 -93882.008 120991.589 -93956.281 120992.187 -94030.553 120785.75 -94030.553 120785.782 -94393.977 120785.8 -94437.716 120785.845 -94480.118 120785.916 -94520.937 120786.011 -94559.929 120786.129 -94596.849 120786.269 -94631.454 120786.429 -94663.498 120786.609 -94692.737 120786.806 -94718.926 120787.019 -94741.821 120787.247 -94761.178 120787.488 -94776.752 120787.742 -94788.299 120788.006 -94795.573 120788.027 -94795.955 120790.656 -94831.148 120794.269 -94862.5 120798.842 -94889.88 120804.351 -94913.156 120810.771 -94932.197 120815.495 -94942.382 120826.643 -94958.511 120841.52 -94972.087 120860.095 -94983.097 120882.339 -94991.532 120908.224 -94997.378 120937.72 -95000.623 120960.92 -95001.343 120992.192 -95001.414 120991.591 -95068.774 120990.991 -95136.133 120970.58 -95136.836 120960.088 -95136.911 120946.822 -95136.588 120932.52 -95135.929 120919.553 -95135.046 120880.056 -95130.342 120844.106 -95122.928 120811.577 -95112.76 120782.346 -95099.789 120756.287 -95083.971 120734.977 -95066.837 120715.656 -95046.172 120698.361 -95021.46 120683.098 -94992.712 120669.871 -94959.939 120658.685 -94923.155 120649.544 -94882.371 120642.455 -94837.6 120641.363 -94828.839 120640.856 -94824.295 120640.392 -94819.382 120639.969 -94813.882 120639.584 -94807.578 120639.236 -94800.25 120638.922 -94791.683 120638.639 -94781.656 120638.384 -94769.954 120638.156 -94756.356 120637.952 -94740.647 120637.769 -94722.607 120637.605 -94702.019 120637.457 -94678.665 120637.323 -94652.328 120637.201 -94622.788 120637.088 -94589.828 120636.981 -94553.23 120636.879 -94512.777 120636.778 -94468.25 120636.676 -94419.432 120636.664 -94413.254 120635.898 -94030.553 120579.384 -94030.553 120578.812 -94576.54 120578.241 -95122.526 120503.968 -95123.124 120429.696 -95123.722 120429.696 -94030.553 120366.369 -94030.553 120365.603 -94413.254 120365.503 -94463.703 120365.41 -94509.844 120365.315 -94551.904 120365.213 -94590.109 120365.095 -94624.688 120364.954 -94655.867 120364.784 -94683.874 120364.577 -94708.935 120364.325 -94731.279 120364.022 -94751.132 120363.661 -94768.721 120363.233 -94784.274 120362.732 -94798.019 120362.151 -94810.181 120361.482 -94820.988 120360.719 -94830.669 120359.853 -94839.449 120358.878 -94847.556 120357.787 -94855.217 120356.571 -94862.66 120355.225 -94870.111 120353.741 -94877.799 120352.111 -94885.949 120350.329 -94894.79 120350.279 -94895.035 120341.189 -94933.468 120330.128 -94967.93 120317.028 -94998.568 120301.818 -95025.528 120284.428 -95048.959 120269.83 -95064.384 120248.038 -95082.665 120223.999 -95098.13 120197.44 -95110.868 120168.086 -95120.974 120135.662 -95128.537 120099.894 -95133.651 120060.507 -95136.406 120053.799 -95136.636 120010.143 -95137.93 120010.143 -95001.164 120025.451 -95002.541 120037.915 -95002.953 120053.324 -95002.394 120070.222 -95001.003 120087.156 -94998.918 120102.671 -94996.278 120111.255 -94994.343 120132.363 -94987.802 120150.159 -94979.6 120164.996 -94969.32 120177.232 -94956.541 120187.219 -94940.844 120195.315 -94921.808 120201.874 -94899.013 120205.237 -94883.267 120206.43 -94876.999 120207.522 -94871.032 120208.517 -94865.148 120209.42 -94859.13 120210.237 -94852.759 120210.972 -94845.815 120211.63 -94838.081 120212.217 -94829.337 120212.737 -94819.367 120213.196 -94807.95 120213.598 -94794.868 120213.948 -94779.904 120214.252 -94762.838 120214.515 -94743.451 120214.741 -94721.526 120214.936 -94696.844 120215.104 -94669.186 120215.251 -94638.334 120215.381 -94604.07 120215.501 -94566.174 120215.614 -94524.428 120215.725 -94478.614 120215.84 -94428.513 120215.857 -94421.191 120216.743 -94030.553 120010.143 -94030.553 120010.143 -93880.864 120990.991 -93882.008"/><path d="M 115307.886 -85387.761 115309.827 -85388.176 115313.918 -85389.028 115319.821 -85390.246 115327.196 -85391.761 115335.705 -85393.503 115345.01 -85395.403 115347.575 -85395.926 115381.098 -85402.996 115416.775 -85410.974 115454.409 -85419.807 115493.802 -85429.442 115534.758 -85439.825 115577.079 -85450.903 115620.568 -85462.623 115665.028 -85474.931 115710.262 -85487.774 115756.073 -85501.099 115802.263 -85514.852 115848.636 -85528.98 115894.994 -85543.43 115908.28 -85547.632 115940.872 -85558.067 115971.201 -85567.974 115999.47 -85577.433 116025.883 -85586.522 116050.643 -85595.318 116073.955 -85603.901 116096.02 -85612.348 116117.043 -85620.738 116137.228 -85629.149 116156.778 -85637.661 116175.896 -85646.35 116194.786 -85655.295 116213.651 -85664.575 116218.795 -85667.162 116235.578 -85675.747 116250.551 -85683.652 116264.245 -85691.183 116277.188 -85698.647 116289.913 -85706.351 116302.948 -85714.6 116316.825 -85723.701 116317.855 -85724.386 116350.33 -85747.302 116380.503 -85771.254 116408.42 -85796.302 116434.124 -85822.511 116457.661 -85849.942 116479.076 -85878.659 116498.412 -85908.723 116515.716 -85940.197 116531.031 -85973.144 116544.403 -86007.626 116555.876 -86043.706 116561.504 -86064.695 116567.178 -86088.657 116572.12 -86112.553 116576.374 -86136.735 116579.983 -86161.553 116582.992 -86187.36 116585.446 -86214.506 116587.388 -86243.343 116588.863 -86274.221 116589.248 -86284.723 116589.982 -86326.709 116589.236 -86366.715 116586.996 -86404.836 116583.252 -86441.162 116577.991 -86475.789 116571.201 -86508.807 116562.87 -86540.311 116552.986 -86570.393 116551.911 -86573.33 116549.261 -86580.079 116545.77 -86588.363 116541.755 -86597.457 116537.537 -86606.638 116533.719 -86614.605 116524.682 -86632.27 116515.826 -86647.963 116506.793 -86662.192 116497.224 -86675.466 116486.761 -86688.295 116475.046 -86701.189 116467.125 -86709.31 116449.749 -86725.703 116432.423 -86739.901 116414.699 -86752.199 116396.128 -86762.891 116376.263 -86772.274 116364.21 -86777.142 116342.807 -86784.383 116320.867 -86789.909 116298.005 -86793.786 116273.838 -86796.078 116247.981 -86796.849 116247.37 -86796.85 116222.017 -86796.119 116196.804 -86793.886 116171.479 -86790.09 116145.791 -86784.669 116119.49 -86777.563 116092.324 -86768.709 116064.044 -86758.048 116034.398 -86745.517 116031.179 -86744.083 116020.093 -86739.121 116019.684 -86337.773 116019.646 -86299.429 116019.612 -86263.538 116019.579 -86230.014 116019.548 -86198.771 116019.515 -86169.721 116019.481 -86142.778 116019.442 -86117.855 116019.399 -86094.866 116019.349 -86073.724 116019.291 -86054.343 116019.224 -86036.636 116019.146 -86020.516 116019.056 -86005.896 116018.952 -85992.691 116018.833 -85980.813 116018.697 -85970.176 116018.543 -85960.694 116018.37 -85952.279 116018.176 -85944.845 116017.959 -85938.306 116017.719 -85932.574 116017.454 -85927.564 116017.161 -85923.189 116016.841 -85919.361 116016.491 -85915.995 116016.11 -85913.004 116015.697 -85910.301 116015.25 -85907.799 116014.767 -85905.413 116014.248 -85903.055 116013.691 -85900.638 116013.094 -85898.077 116012.455 -85895.285 116012.317 -85894.663 116006.828 -85874.425 115999.801 -85856.2 115991.223 -85839.972 115981.082 -85825.721 115969.363 -85813.431 115956.055 -85803.083 115941.143 -85794.661 115938.125 -85793.276 115922.86 -85787.498 115908.495 -85784.088 115895.04 -85783.043 115882.508 -85784.358 115870.91 -85788.03 115860.258 -85794.055 115850.564 -85802.43 115841.84 -85813.149 115834.098 -85826.21 115833.576 -85827.245 115828.082 -85840.106 115823.522 -85854.547 115820.172 -85869.698 115820.163 -85869.75 115819.172 -85875.333 115818.219 -85880.508 115817.477 -85884.344 115817.344 -85884.99 115817.295 -85886.479 115817.244 -85890.446 115817.192 -85896.828 115817.14 -85905.564 115817.086 -85916.592 115817.031 -85929.848 115816.976 -85945.272 115816.92 -85962.8 115816.864 -85982.371 115816.807 -86003.922 115816.75 -86027.391 115816.692 -86052.716 115816.635 -86079.836 115816.577 -86108.686 115816.52 -86139.207 115816.463 -86171.334 115816.406 -86205.007 115816.349 -86240.163 115816.294 -86276.739 115816.238 -86314.674 115816.184 -86353.906 115816.131 -86394.372 115816.078 -86436.01 115816.027 -86478.757 115815.976 -86522.553 115815.927 -86567.333 115815.88 -86613.038 115815.834 -86659.603 115815.789 -86706.967 115815.747 -86755.069 115815.706 -86803.844 115815.669 -86850.83 115814.935 -87812.225 115560.3 -87731.418 115305.665 -87650.61 115305.346 -86518.856 115305.028 -85387.102 115307.886 -85387.761" fill="none" stroke-width="10"/><path d="M 115307.886 -85387.761 115309.827 -85388.176 115313.918 -85389.028 115319.821 -85390.246 115327.196 -85391.761 115335.705 -85393.503 115345.01 -85395.403 115347.575 -85395.926 115381.098 -85402.996 115416.775 -85410.974 115454.409 -85419.807 115493.802 -85429.442 115534.758 -85439.825 115577.079 -85450.903 115620.568 -85462.623 115665.028 -85474.931 115710.262 -85487.774 115756.073 -85501.099 115802.263 -85514.852 115848.636 -85528.98 115894.994 -85543.43 115908.28 -85547.632 115940.872 -85558.067 115971.201 -85567.974 115999.47 -85577.433 116025.883 -85586.522 116050.643 -85595.318 116073.955 -85603.901 116096.02 -85612.348 116117.043 -85620.738 116137.228 -85629.149 116156.778 -85637.661 116175.896 -85646.35 116194.786 -85655.295 116213.651 -85664.575 116218.795 -85667.162 116235.578 -85675.747 116250.551 -85683.652 116264.245 -85691.183 116277.188 -85698.647 116289.913 -85706.351 116302.948 -85714.6 116316.825 -85723.701 116317.855 -85724.386 116350.33 -85747.302 116380.503 -85771.254 116408.42 -85796.302 116434.124 -85822.511 116457.661 -85849.942 116479.076 -85878.659 116498.412 -85908.723 116515.716 -85940.197 116531.031 -85973.144 116544.403 -86007.626 116555.876 -86043.706 116561.504 -86064.695 116567.178 -86088.657 116572.12 -86112.553 116576.374 -86136.735 116579.983 -86161.553 116582.992 -86187.36 116585.446 -86214.506 116587.388 -86243.343 116588.863 -86274.221 116589.248 -86284.723 116589.982 -86326.709 116589.236 -86366.715 116586.996 -86404.836 116583.252 -86441.162 116577.991 -86475.789 116571.201 -86508.807 116562.87 -86540.311 116552.986 -86570.393 116551.911 -86573.33 116549.261 -86580.079 116545.77 -86588.363 116541.755 -86597.457 116537.537 -86606.638 116533.719 -86614.605 116524.682 -86632.27 116515.826 -86647.963 116506.793 -86662.192 116497.224 -86675.466 116486.761 -86688.295 116475.046 -86701.189 116467.125 -86709.31 116449.749 -86725.703 116432.423 -86739.901 116414.699 -86752.199 116396.128 -86762.891 116376.263 -86772.274 116364.21 -86777.142 116342.807 -86784.383 116320.867 -86789.909 116298.005 -86793.786 116273.838 -86796.078 116247.981 -86796.849 116247.37 -86796.85 116222.017 -86796.119 116196.804 -86793.886 116171.479 -86790.09 116145.791 -86784.669 116119.49 -86777.563 116092.324 -86768.709 116064.044 -86758.048 116034.398 -86745.517 116031.179 -86744.083 116020.093 -86739.121 116019.684 -86337.773 116019.646 -86299.429 116019.612 -86263.538 116019.579 -86230.014 116019.548 -86198.771 116019.515 -86169.721 116019.481 -86142.778 116019.442 -86117.855 116019.399 -86094.866 116019.349 -86073.724 116019.291 -86054.343 116019.224 -86036.636 116019.146 -86020.516 116019.056 -86005.896 116018.952 -85992.691 116018.833 -85980.813 116018.697 -85970.176 116018.543 -85960.694 116018.37 -85952.279 116018.176 -85944.845 116017.959 -85938.306 116017.719 -85932.574 116017.454 -85927.564 116017.161 -85923.189 116016.841 -85919.361 116016.491 -85915.995 116016.11 -85913.004 116015.697 -85910.301 116015.25 -85907.799 116014.767 -85905.413 116014.248 -85903.055 116013.691 -85900.638 116013.094 -85898.077 116012.455 -85895.285 116012.317 -85894.663 116006.828 -85874.425 115999.801 -85856.2 115991.223 -85839.972 115981.082 -85825.721 115969.363 -85813.431 115956.055 -85803.083 115941.143 -85794.661 115938.125 -85793.276 115922.86 -85787.498 115908.495 -85784.088 115895.04 -85783.043 115882.508 -85784.358 115870.91 -85788.03 115860.258 -85794.055 115850.564 -85802.43 115841.84 -85813.149 115834.098 -85826.21 115833.576 -85827.245 115828.082 -85840.106 115823.522 -85854.547 115820.172 -85869.698 115820.163 -85869.75 115819.172 -85875.333 115818.219 -85880.508 115817.477 -85884.344 115817.344 -85884.99 115817.295 -85886.479 115817.244 -85890.446 115817.192 -85896.828 115817.14 -85905.564 115817.086 -85916.592 115817.031 -85929.848 115816.976 -85945.272 115816.92 -85962.8 115816.864 -85982.371 115816.807 -86003.922 115816.75 -86027.391 115816.692 -86052.716 115816.635 -86079.836 115816.577 -86108.686 115816.52 -86139.207 115816.463 -86171.334 115816.406 -86205.007 115816.349 -86240.163 115816.294 -86276.739 115816.238 -86314.674 115816.184 -86353.906 115816.131 -86394.372 115816.078 -86436.01 115816.027 -86478.757 115815.976 -86522.553 115815.927 -86567.333 115815.88 -86613.038 115815.834 -86659.603 115815.789 -86706.967 115815.747 -86755.069 115815.706 -86803.844 115815.669 -86850.83 115814.935 -87812.225 115560.3 -87731.418 115305.665 -87650.61 115305.346 -86518.856 115305.028 -85387.102 115307.886 -85387.761"/><path d="M 115203.766 -86757.453 115203.899 -86761.08 115204.026 -86766.931 115204.146 -86774.851 115204.257 -86784.681 115204.358 -86796.265 115204.449 -86809.444 115204.527 -86824.062 115204.592 -86839.96 115204.643 -86856.983 115204.678 -86874.972 115204.697 -86893.77 115204.7 -86904.485 115204.7 -87052.761 115136.437 -87077.152 115125.613 -87081.02 115112.669 -87085.648 115097.875 -87090.938 115081.502 -87096.793 115063.82 -87103.118 115045.1 -87109.814 115025.613 -87116.785 115005.63 -87123.935 114985.421 -87131.166 114965.257 -87138.382 114945.409 -87145.485 114932.92 -87149.956 114913.603 -87156.869 114893.924 -87163.912 114874.138 -87170.993 114854.503 -87178.018 114835.276 -87184.897 114816.714 -87191.538 114799.073 -87197.848 114782.612 -87203.735 114767.587 -87209.108 114754.256 -87213.875 114742.875 -87217.943 114736.07 -87220.375 114723.778 -87224.774 114711.915 -87229.034 114700.753 -87233.058 114690.566 -87236.744 114681.627 -87239.995 114674.21 -87242.71 114668.588 -87244.791 114665.035 -87246.138 114664.622 -87246.301 114649.15 -87253.039 114635.436 -87260.206 114623.594 -87267.703 114613.736 -87275.433 114605.976 -87283.299 114600.427 -87291.202 114597.201 -87299.045 114596.37 -87305.333 114597.612 -87313.268 114601.302 -87320.747 114607.383 -87327.74 114615.799 -87334.219 114626.493 -87340.152 114639.409 -87345.512 114654.49 -87350.268 114671.681 -87354.391 114690.924 -87357.852 114699.24 -87359.052 114708.041 -87359.971 114718.919 -87360.677 114731.421 -87361.172 114745.092 -87361.458 114759.48 -87361.537 114774.13 -87361.413 114788.589 -87361.087 114802.402 -87360.561 114815.117 -87359.838 114826.279 -87358.921 114831.224 -87358.379 114863.073 -87353.842 114892.712 -87348.233 114920.243 -87341.532 114931.15 -87338.402 114934.327 -87337.372 114939.705 -87335.537 114947.102 -87332.963 114956.332 -87329.715 114967.212 -87325.859 114979.559 -87321.46 114993.186 -87316.585 115007.912 -87311.299 115023.551 -87305.667 115039.92 -87299.756 115056.834 -87293.63 115066.405 -87290.156 115083.405 -87283.983 115099.864 -87278.009 115115.608 -87272.298 115130.463 -87266.911 115144.255 -87261.914 115156.81 -87257.367 115167.954 -87253.335 115177.513 -87249.88 115185.314 -87247.065 115191.182 -87244.954 115194.943 -87243.608 115196.133 -87243.189 115204.711 -87240.227 115204.388 -87373.139 115204.065 -87506.052 115179.3 -87510.21 115129.195 -87518.036 115080.707 -87524.389 115033.403 -87529.299 114986.851 -87532.797 114940.621 -87534.913 114894.28 -87535.676 114847.396 -87535.117 114830.05 -87534.589 114768.36 -87531.2 114706.272 -87525.384 114644.012 -87517.173 114581.807 -87506.603 114519.885 -87493.706 114466.195 -87480.561 114449.751 -87476.146 114432.456 -87471.311 114414.644 -87466.163 114396.649 -87460.805 114378.802 -87455.343 114361.439 -87449.881 114344.893 -87444.524 114329.496 -87439.377 114315.583 -87434.544 114303.487 -87430.131 114294.11 -87426.475 114269.158 -87415.528 114246.091 -87403.807 114224.956 -87391.377 114205.799 -87378.303 114188.669 -87364.648 114173.612 -87350.477 114160.675 -87335.856 114149.906 -87320.847 114141.352 -87305.517 114135.06 -87289.929 114131.078 -87274.148 114129.452 -87258.238 114130.231 -87242.264 114133.46 -87226.291 114138 -87213.166 114143.362 -87202.04 114150.238 -87191.108 114158.723 -87180.293 114168.916 -87169.518 114180.915 -87158.704 114194.817 -87147.775 114210.719 -87136.653 114228.72 -87125.261 114248.916 -87113.522 114271.406 -87101.358 114292.84 -87090.406 114317.73 -87078.286 114342.675 -87066.767 114368.116 -87055.668 114394.49 -87044.805 114422.236 -87033.995 114451.793 -87023.055 114470.005 -87016.555 114474.287 -87015.042 114480.856 -87012.716 114489.602 -87009.615 114500.418 -87005.778 114513.197 -87001.242 114527.831 -86996.047 114544.211 -86990.231 114562.231 -86983.831 114581.783 -86976.886 114602.759 -86969.435 114625.051 -86961.515 114648.551 -86953.164 114673.153 -86944.422 114698.748 -86935.326 114725.229 -86925.914 114752.487 -86916.226 114780.416 -86906.298 114808.907 -86896.169 114837.853 -86885.878 114854.695 -86879.891 114883.398 -86869.686 114911.483 -86859.705 114938.855 -86849.979 114965.418 -86840.543 114991.08 -86831.43 115015.745 -86822.673 115039.319 -86814.306 115061.708 -86806.363 115082.818 -86798.876 115102.553 -86791.879 115120.821 -86785.406 115137.526 -86779.489 115152.575 -86774.164 115165.872 -86769.462 115177.324 -86765.418 115186.836 -86762.064 115194.314 -86759.434 115199.663 -86757.563 115202.789 -86756.482 115203.627 -86756.21 115203.766 -86757.453" fill="none" stroke-width="10"/><path d="M 115203.766 -86757.453 115203.899 -86761.08 115204.026 -86766.931 115204.146 -86774.851 115204.257 -86784.681 115204.358 -86796.265 115204.449 -86809.444 115204.527 -86824.062 115204.592 -86839.96 115204.643 -86856.983 115204.678 -86874.972 115204.697 -86893.77 115204.7 -86904.485 115204.7 -87052.761 115136.437 -87077.152 115125.613 -87081.02 115112.669 -87085.648 115097.875 -87090.938 115081.502 -87096.793 115063.82 -87103.118 115045.1 -87109.814 115025.613 -87116.785 115005.63 -87123.935 114985.421 -87131.166 114965.257 -87138.382 114945.409 -87145.485 114932.92 -87149.956 114913.603 -87156.869 114893.924 -87163.912 114874.138 -87170.993 114854.503 -87178.018 114835.276 -87184.897 114816.714 -87191.538 114799.073 -87197.848 114782.612 -87203.735 114767.587 -87209.108 114754.256 -87213.875 114742.875 -87217.943 114736.07 -87220.375 114723.778 -87224.774 114711.915 -87229.034 114700.753 -87233.058 114690.566 -87236.744 114681.627 -87239.995 114674.21 -87242.71 114668.588 -87244.791 114665.035 -87246.138 114664.622 -87246.301 114649.15 -87253.039 114635.436 -87260.206 114623.594 -87267.703 114613.736 -87275.433 114605.976 -87283.299 114600.427 -87291.202 114597.201 -87299.045 114596.37 -87305.333 114597.612 -87313.268 114601.302 -87320.747 114607.383 -87327.74 114615.799 -87334.219 114626.493 -87340.152 114639.409 -87345.512 114654.49 -87350.268 114671.681 -87354.391 114690.924 -87357.852 114699.24 -87359.052 114708.041 -87359.971 114718.919 -87360.677 114731.421 -87361.172 114745.092 -87361.458 114759.48 -87361.537 114774.13 -87361.413 114788.589 -87361.087 114802.402 -87360.561 114815.117 -87359.838 114826.279 -87358.921 114831.224 -87358.379 114863.073 -87353.842 114892.712 -87348.233 114920.243 -87341.532 114931.15 -87338.402 114934.327 -87337.372 114939.705 -87335.537 114947.102 -87332.963 114956.332 -87329.715 114967.212 -87325.859 114979.559 -87321.46 114993.186 -87316.585 115007.912 -87311.299 115023.551 -87305.667 115039.92 -87299.756 115056.834 -87293.63 115066.405 -87290.156 115083.405 -87283.983 115099.864 -87278.009 115115.608 -87272.298 115130.463 -87266.911 115144.255 -87261.914 115156.81 -87257.367 115167.954 -87253.335 115177.513 -87249.88 115185.314 -87247.065 115191.182 -87244.954 115194.943 -87243.608 115196.133 -87243.189 115204.711 -87240.227 115204.388 -87373.139 115204.065 -87506.052 115179.3 -87510.21 115129.195 -87518.036 115080.707 -87524.389 115033.403 -87529.299 114986.851 -87532.797 114940.621 -87534.913 114894.28 -87535.676 114847.396 -87535.117 114830.05 -87534.589 114768.36 -87531.2 114706.272 -87525.384 114644.012 -87517.173 114581.807 -87506.603 114519.885 -87493.706 114466.195 -87480.561 114449.751 -87476.146 114432.456 -87471.311 114414.644 -87466.163 114396.649 -87460.805 114378.802 -87455.343 114361.439 -87449.881 114344.893 -87444.524 114329.496 -87439.377 114315.583 -87434.544 114303.487 -87430.131 114294.11 -87426.475 114269.158 -87415.528 114246.091 -87403.807 114224.956 -87391.377 114205.799 -87378.303 114188.669 -87364.648 114173.612 -87350.477 114160.675 -87335.856 114149.906 -87320.847 114141.352 -87305.517 114135.06 -87289.929 114131.078 -87274.148 114129.452 -87258.238 114130.231 -87242.264 114133.46 -87226.291 114138 -87213.166 114143.362 -87202.04 114150.238 -87191.108 114158.723 -87180.293 114168.916 -87169.518 114180.915 -87158.704 114194.817 -87147.775 114210.719 -87136.653 114228.72 -87125.261 114248.916 -87113.522 114271.406 -87101.358 114292.84 -87090.406 114317.73 -87078.286 114342.675 -87066.767 114368.116 -87055.668 114394.49 -87044.805 114422.236 -87033.995 114451.793 -87023.055 114470.005 -87016.555 114474.287 -87015.042 114480.856 -87012.716 114489.602 -87009.615 114500.418 -87005.778 114513.197 -87001.242 114527.831 -86996.047 114544.211 -86990.231 114562.231 -86983.831 114581.783 -86976.886 114602.759 -86969.435 114625.051 -86961.515 114648.551 -86953.164 114673.153 -86944.422 114698.748 -86935.326 114725.229 -86925.914 114752.487 -86916.226 114780.416 -86906.298 114808.907 -86896.169 114837.853 -86885.878 114854.695 -86879.891 114883.398 -86869.686 114911.483 -86859.705 114938.855 -86849.979 114965.418 -86840.543 114991.08 -86831.43 115015.745 -86822.673 115039.319 -86814.306 115061.708 -86806.363 115082.818 -86798.876 115102.553 -86791.879 115120.821 -86785.406 115137.526 -86779.489 115152.575 -86774.164 115165.872 -86769.462 115177.324 -86765.418 115186.836 -86762.064 115194.314 -86759.434 115199.663 -86757.563 115202.789 -86756.482 115203.627 -86756.21 115203.766 -86757.453"/><path d="M 116505.443 -86884.768 116521.695 -86884.894 116536.706 -86885.144 116550.003 -86885.523 116552.805 -86885.63 116607.289 -86888.648 116661.272 -86893.258 116714.535 -86899.422 116766.859 -86907.102 116818.028 -86916.261 116867.824 -86926.86 116916.027 -86938.861 116962.421 -86952.226 116994.13 -86962.519 117013.56 -86969.157 117030.794 -86975.085 117046.051 -86980.389 117059.548 -86985.15 117071.501 -86989.455 117082.13 -86993.384 117091.65 -86997.024 117100.281 -87000.457 117108.24 -87003.766 117115.744 -87007.036 117123.011 -87010.35 117130.258 -87013.793 117137.703 -87017.447 117140.18 -87018.682 117158.56 -87028.255 117174.823 -87037.549 117189.334 -87046.812 117202.459 -87056.294 117214.565 -87066.243 117226.017 -87076.91 117226.632 -87077.52 117235.929 -87087.09 117243.497 -87095.676 117249.692 -87103.743 117254.872 -87111.754 117259.279 -87119.94 117264.176 -87130.741 117267.65 -87140.665 117269.999 -87150.698 117271.284 -87159.592 117271.943 -87166.55 117272.092 -87172.234 117271.7 -87177.861 117270.735 -87184.648 117270.64 -87185.23 117267.282 -87199.844 117262.028 -87214.068 117254.807 -87227.984 117245.545 -87241.673 117234.17 -87255.217 117220.609 -87268.698 117204.79 -87282.199 117186.639 -87295.8 117166.084 -87309.583 117152.575 -87317.97 117143.334 -87323.348 117132.273 -87329.443 117119.916 -87335.993 117106.786 -87342.735 117093.408 -87349.406 117080.304 -87355.744 117067.998 -87361.486 117057.014 -87366.37 117051.28 -87368.778 117049.124 -87369.6 117044.701 -87371.235 117038.1 -87373.65 117029.411 -87376.815 117018.724 -87380.695 117006.128 -87385.26 116991.713 -87390.477 116975.569 -87396.314 116957.786 -87402.737 116938.454 -87409.716 116917.661 -87417.218 116895.499 -87425.211 116872.056 -87433.661 116847.422 -87442.538 116821.688 -87451.809 116794.942 -87461.442 116767.275 -87471.403 116738.776 -87481.662 116709.535 -87492.186 116679.642 -87502.942 116649.187 -87513.899 116618.259 -87525.023 116586.948 -87536.284 116555.344 -87547.648 116523.536 -87559.083 116491.614 -87570.558 116459.669 -87582.039 116427.789 -87593.495 116396.065 -87604.893 116364.586 -87616.201 116333.442 -87627.387 116302.722 -87638.419 116272.517 -87649.264 116242.916 -87659.89 116214.01 -87670.265 116185.886 -87680.356 116158.636 -87690.131 116132.35 -87699.559 116107.116 -87708.606 116083.025 -87717.241 116060.166 -87725.432 116038.629 -87733.145 116018.504 -87740.349 115999.881 -87747.011 115982.849 -87753.1 115967.498 -87758.583 115953.917 -87763.427 115942.198 -87767.601 115932.428 -87771.072 115924.699 -87773.809 115919.099 -87775.778 115915.719 -87776.947 115914.65 -87777.29 115914.423 -87776.07 115914.219 -87772.405 115914.037 -87766.284 115913.877 -87757.699 115913.74 -87746.64 115913.624 -87733.097 115913.53 -87717.061 115913.458 -87698.523 115913.408 -87677.472 115913.38 -87653.9 115913.373 -87629.652 115913.386 -87482.015 116325.17 -87335.388 116356.533 -87324.218 116387.335 -87313.247 116417.487 -87302.504 116446.898 -87292.022 116475.48 -87281.833 116503.143 -87271.97 116529.799 -87262.463 116555.356 -87253.344 116579.727 -87244.647 116602.821 -87236.402 116624.55 -87228.642 116644.823 -87221.398 116663.552 -87214.702 116680.647 -87208.587 116696.019 -87203.085 116709.578 -87198.226 116721.235 -87194.043 116730.9 -87190.569 116738.485 -87187.835 116743.899 -87185.872 116747.054 -87184.714 116747.75 -87184.448 116763.858 -87177.445 116777.988 -87170.123 116790.073 -87162.554 116800.047 -87154.805 116807.845 -87146.947 116813.4 -87139.05 116816.646 -87131.182 116817.518 -87123.414 116815.95 -87115.815 116814.96 -87113.509 116810.411 -87106.78 116803.514 -87100.34 116794.451 -87094.276 116783.405 -87088.674 116770.559 -87083.62 116756.098 -87079.201 116740.203 -87075.503 116730.999 -87073.823 116719.721 -87072.064 116709.254 -87070.701 116699.004 -87069.69 116688.373 -87068.991 116676.766 -87068.558 116663.589 -87068.35 116654.405 -87068.315 116631.027 -87068.622 116609.289 -87069.608 116588.365 -87071.347 116567.43 -87073.911 116545.656 -87077.371 116540.74 -87078.247 116534.697 -87079.361 116528.941 -87080.472 116523.323 -87081.627 116517.699 -87082.873 116511.922 -87084.256 116505.846 -87085.822 116499.324 -87087.618 116492.212 -87089.69 116484.362 -87092.086 116475.629 -87094.851 116465.866 -87098.031 116454.927 -87101.675 116442.667 -87105.827 116428.939 -87110.534 116413.597 -87115.844 116396.495 -87121.802 116377.487 -87128.455 116356.427 -87135.85 116333.168 -87144.032 116324.84 -87146.964 116287.513 -87160.109 116252.508 -87172.436 116219.752 -87183.971 116189.172 -87194.74 116160.693 -87204.769 116134.243 -87214.084 116109.748 -87222.711 116087.133 -87230.676 116066.327 -87238.005 116047.255 -87244.723 116029.844 -87250.856 116014.02 -87256.431 115999.71 -87261.473 115986.841 -87266.009 115975.338 -87270.063 115965.129 -87273.662 115956.139 -87276.833 115948.296 -87279.6 115941.526 -87281.99 115935.755 -87284.028 115930.909 -87285.741 115926.916 -87287.154 115923.702 -87288.294 115921.194 -87289.185 115919.317 -87289.855 115917.998 -87290.329 115917.165 -87290.633 115916.847 -87290.752 115913.349 -87292.09 115913.672 -87138.236 115913.995 -86984.381 115941.79 -86975.002 115979.039 -86963.082 116018.392 -86951.712 116059.456 -86940.967 116101.839 -86930.924 116145.15 -86921.659 116188.995 -86913.248 116232.984 -86905.765 116276.723 -86899.288 116319.822 -86893.891 116361.887 -86889.652 116396.595 -86887.011 116408.309 -86886.385 116422.09 -86885.854 116437.464 -86885.422 116453.959 -86885.093 116471.102 -86884.871 116488.421 -86884.762 116505.443 -86884.768" fill="none" stroke-width="10"/><path d="M 116505.443 -86884.768 116521.695 -86884.894 116536.706 -86885.144 116550.003 -86885.523 116552.805 -86885.63 116607.289 -86888.648 116661.272 -86893.258 116714.535 -86899.422 116766.859 -86907.102 116818.028 -86916.261 116867.824 -86926.86 116916.027 -86938.861 116962.421 -86952.226 116994.13 -86962.519 117013.56 -86969.157 117030.794 -86975.085 117046.051 -86980.389 117059.548 -86985.15 117071.501 -86989.455 117082.13 -86993.384 117091.65 -86997.024 117100.281 -87000.457 117108.24 -87003.766 117115.744 -87007.036 117123.011 -87010.35 117130.258 -87013.793 117137.703 -87017.447 117140.18 -87018.682 117158.56 -87028.255 117174.823 -87037.549 117189.334 -87046.812 117202.459 -87056.294 117214.565 -87066.243 117226.017 -87076.91 117226.632 -87077.52 117235.929 -87087.09 117243.497 -87095.676 117249.692 -87103.743 117254.872 -87111.754 117259.279 -87119.94 117264.176 -87130.741 117267.65 -87140.665 117269.999 -87150.698 117271.284 -87159.592 117271.943 -87166.55 117272.092 -87172.234 117271.7 -87177.861 117270.735 -87184.648 117270.64 -87185.23 117267.282 -87199.844 117262.028 -87214.068 117254.807 -87227.984 117245.545 -87241.673 117234.17 -87255.217 117220.609 -87268.698 117204.79 -87282.199 117186.639 -87295.8 117166.084 -87309.583 117152.575 -87317.97 117143.334 -87323.348 117132.273 -87329.443 117119.916 -87335.993 117106.786 -87342.735 117093.408 -87349.406 117080.304 -87355.744 117067.998 -87361.486 117057.014 -87366.37 117051.28 -87368.778 117049.124 -87369.6 117044.701 -87371.235 117038.1 -87373.65 117029.411 -87376.815 117018.724 -87380.695 117006.128 -87385.26 116991.713 -87390.477 116975.569 -87396.314 116957.786 -87402.737 116938.454 -87409.716 116917.661 -87417.218 116895.499 -87425.211 116872.056 -87433.661 116847.422 -87442.538 116821.688 -87451.809 116794.942 -87461.442 116767.275 -87471.403 116738.776 -87481.662 116709.535 -87492.186 116679.642 -87502.942 116649.187 -87513.899 116618.259 -87525.023 116586.948 -87536.284 116555.344 -87547.648 116523.536 -87559.083 116491.614 -87570.558 116459.669 -87582.039 116427.789 -87593.495 116396.065 -87604.893 116364.586 -87616.201 116333.442 -87627.387 116302.722 -87638.419 116272.517 -87649.264 116242.916 -87659.89 116214.01 -87670.265 116185.886 -87680.356 116158.636 -87690.131 116132.35 -87699.559 116107.116 -87708.606 116083.025 -87717.241 116060.166 -87725.432 116038.629 -87733.145 116018.504 -87740.349 115999.881 -87747.011 115982.849 -87753.1 115967.498 -87758.583 115953.917 -87763.427 115942.198 -87767.601 115932.428 -87771.072 115924.699 -87773.809 115919.099 -87775.778 115915.719 -87776.947 115914.65 -87777.29 115914.423 -87776.07 115914.219 -87772.405 115914.037 -87766.284 115913.877 -87757.699 115913.74 -87746.64 115913.624 -87733.097 115913.53 -87717.061 115913.458 -87698.523 115913.408 -87677.472 115913.38 -87653.9 115913.373 -87629.652 115913.386 -87482.015 116325.17 -87335.388 116356.533 -87324.218 116387.335 -87313.247 116417.487 -87302.504 116446.898 -87292.022 116475.48 -87281.833 116503.143 -87271.97 116529.799 -87262.463 116555.356 -87253.344 116579.727 -87244.647 116602.821 -87236.402 116624.55 -87228.642 116644.823 -87221.398 116663.552 -87214.702 116680.647 -87208.587 116696.019 -87203.085 116709.578 -87198.226 116721.235 -87194.043 116730.9 -87190.569 116738.485 -87187.835 116743.899 -87185.872 116747.054 -87184.714 116747.75 -87184.448 116763.858 -87177.445 116777.988 -87170.123 116790.073 -87162.554 116800.047 -87154.805 116807.845 -87146.947 116813.4 -87139.05 116816.646 -87131.182 116817.518 -87123.414 116815.95 -87115.815 116814.96 -87113.509 116810.411 -87106.78 116803.514 -87100.34 116794.451 -87094.276 116783.405 -87088.674 116770.559 -87083.62 116756.098 -87079.201 116740.203 -87075.503 116730.999 -87073.823 116719.721 -87072.064 116709.254 -87070.701 116699.004 -87069.69 116688.373 -87068.991 116676.766 -87068.558 116663.589 -87068.35 116654.405 -87068.315 116631.027 -87068.622 116609.289 -87069.608 116588.365 -87071.347 116567.43 -87073.911 116545.656 -87077.371 116540.74 -87078.247 116534.697 -87079.361 116528.941 -87080.472 116523.323 -87081.627 116517.699 -87082.873 116511.922 -87084.256 116505.846 -87085.822 116499.324 -87087.618 116492.212 -87089.69 116484.362 -87092.086 116475.629 -87094.851 116465.866 -87098.031 116454.927 -87101.675 116442.667 -87105.827 116428.939 -87110.534 116413.597 -87115.844 116396.495 -87121.802 116377.487 -87128.455 116356.427 -87135.85 116333.168 -87144.032 116324.84 -87146.964 116287.513 -87160.109 116252.508 -87172.436 116219.752 -87183.971 116189.172 -87194.74 116160.693 -87204.769 116134.243 -87214.084 116109.748 -87222.711 116087.133 -87230.676 116066.327 -87238.005 116047.255 -87244.723 116029.844 -87250.856 116014.02 -87256.431 115999.71 -87261.473 115986.841 -87266.009 115975.338 -87270.063 115965.129 -87273.662 115956.139 -87276.833 115948.296 -87279.6 115941.526 -87281.99 115935.755 -87284.028 115930.909 -87285.741 115926.916 -87287.154 115923.702 -87288.294 115921.194 -87289.185 115919.317 -87289.855 115917.998 -87290.329 115917.165 -87290.633 115916.847 -87290.752 115913.349 -87292.09 115913.672 -87138.236 115913.995 -86984.381 115941.79 -86975.002 115979.039 -86963.082 116018.392 -86951.712 116059.456 -86940.967 116101.839 -86930.924 116145.15 -86921.659 116188.995 -86913.248 116232.984 -86905.765 116276.723 -86899.288 116319.822 -86893.891 116361.887 -86889.652 116396.595 -86887.011 116408.309 -86886.385 116422.09 -86885.854 116437.464 -86885.422 116453.959 -86885.093 116471.102 -86884.871 116488.421 -86884.762 116505.443 -86884.768"/><use xlink:href="#TpzcI0GJIknc88_9cT79_pad-15" x="118900" y="-94900"/><use xlink:href="#TpzcI0GJIknc88_9cT79_pad-15" x="117100" y="-94900"/><use xlink:href="#TpzcI0GJIknc88_9cT79_pad-16" x="120059.449" y="-89819.41"/><use xlink:href="#TpzcI0GJIknc88_9cT79_pad-16" x="119599.829" y="-89359.79"/><use xlink:href="#TpzcI0GJIknc88_9cT79_pad-16" x="119140.21" y="-88900.171"/><use xlink:href="#TpzcI0GJIknc88_9cT79_pad-16" x="118680.59" y="-88440.551"/><use xlink:href="#TpzcI0GJIknc88_9cT79_pad-17" x="117319.41" y="-88440.551"/><use xlink:href="#TpzcI0GJIknc88_9cT79_pad-17" x="116859.79" y="-88900.171"/><use xlink:href="#TpzcI0GJIknc88_9cT79_pad-17" x="116400.171" y="-89359.79"/><use xlink:href="#TpzcI0GJIknc88_9cT79_pad-17" x="115940.551" y="-89819.41"/><use xlink:href="#TpzcI0GJIknc88_9cT79_pad-16" x="115940.551" y="-91180.59"/><use xlink:href="#TpzcI0GJIknc88_9cT79_pad-16" x="116400.171" y="-91640.21"/><use xlink:href="#TpzcI0GJIknc88_9cT79_pad-16" x="116859.79" y="-92099.829"/><use xlink:href="#TpzcI0GJIknc88_9cT79_pad-16" x="117319.41" y="-92559.449"/><use xlink:href="#TpzcI0GJIknc88_9cT79_pad-17" x="118680.59" y="-92559.449"/><use xlink:href="#TpzcI0GJIknc88_9cT79_pad-17" x="119140.21" y="-92099.829"/><use xlink:href="#TpzcI0GJIknc88_9cT79_pad-17" x="119599.829" y="-91640.21"/><use xlink:href="#TpzcI0GJIknc88_9cT79_pad-17" x="120059.449" y="-91180.59"/><use xlink:href="#TpzcI0GJIknc88_9cT79_pad-18" x="118000" y="-90500"/><use xlink:href="#TpzcI0GJIknc88_9cT79_pad-19" x="113000" y="-95000"/><use xlink:href="#TpzcI0GJIknc88_9cT79_pad-19" x="111000" y="-95000"/><use xlink:href="#TpzcI0GJIknc88_9cT79_pad-19" x="109000" y="-95000"/><use xlink:href="#TpzcI0GJIknc88_9cT79_pad-19" x="107000" y="-95000"/><use xlink:href="#TpzcI0GJIknc88_9cT79_pad-20" x="109500" y="-89750"/><use xlink:href="#TpzcI0GJIknc88_9cT79_pad-20" x="107500" y="-89750"/><use xlink:href="#TpzcI0GJIknc88_9cT79_pad-20" x="108500" y="-92250"/><use xlink:href="#TpzcI0GJIknc88_9cT79_pad-20" x="106500" y="-92250"/><use xlink:href="#TpzcI0GJIknc88_9cT79_pad-20" x="110500" y="-92250"/><use xlink:href="#TpzcI0GJIknc88_9cT79_pad-20" x="105500" y="-89750"/><use xlink:href="#TpzcI0GJIknc88_9cT79_pad-19" x="105000" y="-95000"/><use xlink:href="#TpzcI0GJIknc88_9cT79_pad-21" x="119800" y="-86400"/><use xlink:href="#TpzcI0GJIknc88_9cT79_pad-22" x="111000" y="-95000"/><use xlink:href="#TpzcI0GJIknc88_9cT79_pad-22" x="118000" y="-94300"/><use xlink:href="#TpzcI0GJIknc88_9cT79_pad-22" x="117000" y="-90500"/><use xlink:href="#TpzcI0GJIknc88_9cT79_pad-22" x="118000" y="-90500"/><use xlink:href="#TpzcI0GJIknc88_9cT79_pad-22" x="117500" y="-90000"/><use xlink:href="#TpzcI0GJIknc88_9cT79_pad-22" x="109000" y="-95000"/><use xlink:href="#TpzcI0GJIknc88_9cT79_pad-22" x="116200" y="-95000"/><use xlink:href="#TpzcI0GJIknc88_9cT79_pad-22" x="118000" y="-91500"/><use xlink:href="#TpzcI0GJIknc88_9cT79_pad-22" x="118000" y="-89500"/><use xlink:href="#TpzcI0GJIknc88_9cT79_pad-22" x="119000" y="-90500"/><use xlink:href="#TpzcI0GJIknc88_9cT79_pad-22" x="118500" y="-91000"/><use xlink:href="#TpzcI0GJIknc88_9cT79_pad-22" x="117500" y="-91000"/><use xlink:href="#TpzcI0GJIknc88_9cT79_pad-22" x="118500" y="-90000"/><use xlink:href="#TpzcI0GJIknc88_9cT79_pad-22" x="120000" y="-88500"/><use xlink:href="#TpzcI0GJIknc88_9cT79_pad-22" x="113000" y="-94999.996"/><use xlink:href="#TpzcI0GJIknc88_9cT79_pad-22" x="107000" y="-95000"/><use xlink:href="#TpzcI0GJIknc88_9cT79_pad-22" x="105000" y="-95000"/><path d="M 118000 -94600 118300 -94900 M 118000 -94300 118000 -94600 M 118300 -94900 118900 -94900 M 118900 -93800 120600 -92100 M 120600 -91721.141 120059.449 -91180.59 M 120600 -92100 120600 -91721.141 M 118900 -94900 118900 -93800 M 117000 -95000 117100 -94900 M 116200 -95000 117000 -95000 M 117100 -94140.039 117870.019 -93370.02 117870.019 -93370.019 M 117100 -94900 117100 -94140.039 M 117870.019 -93370.019 117870.02 -93370.019 118680.59 -92559.449" fill="none" stroke-width="381"/><path d="M 119540.381 -88500 120000 -88500 M 113000 -94969.032 113000 -94999.996 M 119184.404 -88855.977 119540.381 -88500 M 107000 -95000 108000 -94000 M 115878.859 -94000 117275.216 -92603.643 M 108000 -94000 115878.859 -94000 M 107000 -95000 107000 -95000 M 105000 -95000 106400 -93600 115359.619 -93600 116815.596 -92144.023 M 105000 -95000 105000 -95000 M 115721.573 -91050 115896.357 -91224.784 M 105500 -90000 106550 -91050 115721.573 -91050 M 115121.141 -89000 110500 -89000 M 115896.357 -89775.216 115121.141 -89000 M 110500 -89000 109777.01 -89722.99 M 109000 -88500 107777.01 -89722.99 M 115540.381 -88500 109000 -88500 M 116355.977 -89315.596 115540.381 -88500 M 115500 -92000 114950 -91450 111327.492 -91450 M 116040.381 -92000 115500 -92000 M 116355.977 -91684.404 116040.381 -92000 M 110777.493 -91999.999 110777.493 -92777.492 M 111327.492 -91450 110777.493 -91999.999" fill="none" stroke-width="254"/><path d="M 119700 -87421.141 119700 -86200 M 118724.784 -88396.357 119700 -87421.141" fill="none" stroke-width="381"/></g><g id="l5hOAyLajr8HwcWnrPjs_top_solderpaste"><use xlink:href="#bnBe_9SdgdDch13JmCCF_pad-10" x="118900" y="-94900"/><use xlink:href="#bnBe_9SdgdDch13JmCCF_pad-10" x="117100" y="-94900"/><use xlink:href="#bnBe_9SdgdDch13JmCCF_pad-11" x="118919.239" y="-90500"/><use xlink:href="#bnBe_9SdgdDch13JmCCF_pad-11" x="118000" y="-89580.761"/><use xlink:href="#bnBe_9SdgdDch13JmCCF_pad-11" x="118000" y="-91419.239"/><use xlink:href="#bnBe_9SdgdDch13JmCCF_pad-11" x="117080.761" y="-90500"/><use xlink:href="#bnBe_9SdgdDch13JmCCF_pad-12" x="120059.449" y="-89819.41"/><use xlink:href="#bnBe_9SdgdDch13JmCCF_pad-12" x="119599.829" y="-89359.79"/><use xlink:href="#bnBe_9SdgdDch13JmCCF_pad-12" x="119140.21" y="-88900.171"/><use xlink:href="#bnBe_9SdgdDch13JmCCF_pad-12" x="118680.59" y="-88440.551"/><use xlink:href="#bnBe_9SdgdDch13JmCCF_pad-13" x="117319.41" y="-88440.551"/><use xlink:href="#bnBe_9SdgdDch13JmCCF_pad-13" x="116859.79" y="-88900.171"/><use xlink:href="#bnBe_9SdgdDch13JmCCF_pad-13" x="116400.171" y="-89359.79"/><use xlink:href="#bnBe_9SdgdDch13JmCCF_pad-13" x="115940.551" y="-89819.41"/><use xlink:href="#bnBe_9SdgdDch13JmCCF_pad-12" x="115940.551" y="-91180.59"/><use xlink:href="#bnBe_9SdgdDch13JmCCF_pad-12" x="116400.171" y="-91640.21"/><use xlink:href="#bnBe_9SdgdDch13JmCCF_pad-12" x="116859.79" y="-92099.829"/><use xlink:href="#bnBe_9SdgdDch13JmCCF_pad-12" x="117319.41" y="-92559.449"/><use xlink:href="#bnBe_9SdgdDch13JmCCF_pad-13" x="118680.59" y="-92559.449"/><use xlink:href="#bnBe_9SdgdDch13JmCCF_pad-13" x="119140.21" y="-92099.829"/><use xlink:href="#bnBe_9SdgdDch13JmCCF_pad-13" x="119599.829" y="-91640.21"/><use xlink:href="#bnBe_9SdgdDch13JmCCF_pad-13" x="120059.449" y="-91180.59"/><use xlink:href="#bnBe_9SdgdDch13JmCCF_pad-14" x="119800" y="-86400"/></g><g id="l5hOAyLajr8HwcWnrPjs_top_silkscreen"><g mask="url(#w4YB6PNhSLvAaR2dYU6H_clear-1)"><path d="M 104908.646 -86389.388 104908.646 -85789.388 105137.217 -85789.388 105194.36 -85817.959 105222.931 -85846.531 105251.503 -85903.674 105251.503 -85989.388 105222.931 -86046.531 105194.36 -86075.102 105137.217 -86103.674 104908.646 -86103.674 M 105480.074 -86360.817 105565.789 -86389.388 105708.646 -86389.388 105765.789 -86360.817 105794.36 -86332.245 105822.931 -86275.102 105822.931 -86217.959 105794.36 -86160.817 105765.789 -86132.245 105708.646 -86103.674 105594.36 -86075.102 105537.217 -86046.531 105508.646 -86017.959 105480.074 -85960.817 105480.074 -85903.674 105508.646 -85846.531 105537.217 -85817.959 105594.36 -85789.388 105737.217 -85789.388 105822.931 -85817.959 M 106394.36 -86389.388 106051.503 -86389.388 M 106222.932 -86389.388 106222.932 -85789.388 106165.789 -85875.102 106108.646 -85932.245 106051.503 -85960.817 M 107108.647 -86389.388 107108.647 -85789.388 M 107394.361 -86389.388 107394.361 -85789.388 107737.218 -86389.388 107737.218 -85789.388 M 108022.932 -86160.817 108480.075 -86160.817 M 109080.074 -85817.959 109022.932 -85789.388 108937.217 -85789.388 108851.503 -85817.959 108794.36 -85875.102 108765.789 -85932.245 108737.217 -86046.531 108737.217 -86132.245 108765.789 -86246.531 108794.36 -86303.674 108851.503 -86360.817 108937.217 -86389.388 108994.36 -86389.388 109080.074 -86360.817 109108.646 -86332.245 109108.646 -86132.245 108994.36 -86132.245 M 109337.217 -86217.959 109622.932 -86217.959 M 109280.074 -86389.388 109480.074 -85789.388 109680.074 -86389.388 M 109880.075 -86389.388 109880.075 -85789.388 110080.075 -86217.959 110280.075 -85789.388 110280.075 -86389.388 M 110565.789 -86075.102 110765.789 -86075.102 M 110851.503 -86389.388 110565.789 -86389.388 110565.789 -85789.388 110851.503 -85789.388 M 111908.646 -86389.388 111708.646 -86103.674 M 111565.789 -86389.388 111565.789 -85789.388 111794.36 -85789.388 111851.503 -85817.959 111880.074 -85846.531 111908.646 -85903.674 111908.646 -85989.388 111880.074 -86046.531 111851.503 -86075.102 111794.36 -86103.674 111565.789 -86103.674 M 112165.789 -86075.102 112365.789 -86075.102 M 112451.503 -86389.388 112165.789 -86389.388 112165.789 -85789.388 112451.503 -85789.388 M 112680.074 -86360.817 112765.789 -86389.388 112908.646 -86389.388 112965.789 -86360.817 112994.36 -86332.245 113022.931 -86275.102 113022.931 -86217.959 112994.36 -86160.817 112965.789 -86132.245 112908.646 -86103.674 112794.36 -86075.102 112737.217 -86046.531 112708.646 -86017.959 112680.074 -85960.817 112680.074 -85903.674 112708.646 -85846.531 112737.217 -85817.959 112794.36 -85789.388 112937.217 -85789.388 113022.931 -85817.959 M 113280.075 -86075.102 113480.075 -86075.102 M 113565.789 -86389.388 113280.075 -86389.388 113280.075 -85789.388 113565.789 -85789.388 M 113737.217 -85789.388 114080.075 -85789.388 M 113908.646 -86389.388 113908.646 -85789.388 M 105165.789 -86955.354 105165.789 -87441.068 105137.217 -87498.211 105108.646 -87526.783 105051.503 -87555.354 104965.789 -87555.354 104908.646 -87526.783 M 105165.789 -87326.783 105108.646 -87355.354 104994.36 -87355.354 104937.217 -87326.783 104908.646 -87298.211 104880.074 -87241.068 104880.074 -87069.64 104908.646 -87012.497 104937.217 -86983.925 104994.36 -86955.354 105108.646 -86955.354 105165.789 -86983.925 M 105451.503 -87355.354 105451.503 -86955.354 M 105451.503 -86755.354 105422.931 -86783.925 105451.503 -86812.497 105480.074 -86783.925 105451.503 -86755.354 105451.503 -86812.497 M 105651.502 -86955.354 105880.074 -86955.354 M 105737.217 -86755.354 105737.217 -87269.64 105765.788 -87326.783 105822.931 -87355.354 105880.074 -87355.354 M 106080.074 -87355.354 106080.074 -86755.354 M 106337.217 -87355.354 106337.217 -87041.068 106308.645 -86983.925 106251.502 -86955.354 106165.788 -86955.354 106108.645 -86983.925 106080.074 -87012.497 M 106880.074 -86955.354 106880.074 -87355.354 M 106622.931 -86955.354 106622.931 -87269.64 106651.502 -87326.783 106708.645 -87355.354 106794.359 -87355.354 106851.502 -87326.783 106880.074 -87298.211 M 107165.788 -87355.354 107165.788 -86755.354 M 107165.788 -86983.925 107222.931 -86955.354 107337.216 -86955.354 107394.359 -86983.925 107422.931 -87012.497 107451.502 -87069.64 107451.502 -87241.068 107422.931 -87298.211 107394.359 -87326.783 107337.216 -87355.354 107222.931 -87355.354 107165.788 -87326.783 M 107708.645 -87298.211 107737.216 -87326.783 107708.645 -87355.354 107680.073 -87326.783 107708.645 -87298.211 107708.645 -87355.354 M 108251.502 -87326.783 108194.359 -87355.354 108080.073 -87355.354 108022.93 -87326.783 107994.359 -87298.211 107965.787 -87241.068 107965.787 -87069.64 107994.359 -87012.497 108022.93 -86983.925 108080.073 -86955.354 108194.359 -86955.354 108251.502 -86983.925 M 108594.359 -87355.354 108537.216 -87326.783 108508.645 -87298.211 108480.073 -87241.068 108480.073 -87069.64 108508.645 -87012.497 108537.216 -86983.925 108594.359 -86955.354 108680.073 -86955.354 108737.216 -86983.925 108765.788 -87012.497 108794.359 -87069.64 108794.359 -87241.068 108765.788 -87298.211 108737.216 -87326.783 108680.073 -87355.354 108594.359 -87355.354 M 109051.502 -87355.354 109051.502 -86955.354 M 109051.502 -87012.497 109080.073 -86983.925 109137.216 -86955.354 109222.93 -86955.354 109280.073 -86983.925 109308.645 -87041.068 109308.645 -87355.354 M 109308.645 -87041.068 109337.216 -86983.925 109394.359 -86955.354 109480.073 -86955.354 109537.216 -86983.925 109565.787 -87041.068 109565.787 -87355.354 M 110280.073 -86726.783 109765.787 -87498.211 M 110480.073 -86955.354 110480.073 -87555.354 M 110480.073 -86983.925 110537.216 -86955.354 110651.501 -86955.354 110708.644 -86983.925 110737.216 -87012.497 110765.787 -87069.64 110765.787 -87241.068 110737.216 -87298.211 110708.644 -87326.783 110651.501 -87355.354 110537.216 -87355.354 110480.073 -87326.783 M 110965.787 -86955.354 111108.644 -87355.354 M 111251.501 -86955.354 111108.644 -87355.354 111051.501 -87498.211 111022.93 -87526.783 110965.787 -87555.354 M 111480.073 -87355.354 111480.073 -86955.354 M 111480.073 -87069.64 111508.644 -87012.497 111537.216 -86983.925 111594.358 -86955.354 111651.501 -86955.354 M 111937.216 -87355.354 111880.073 -87326.783 111851.502 -87298.211 111822.93 -87241.068 111822.93 -87069.64 111851.502 -87012.497 111880.073 -86983.925 111937.216 -86955.354 112022.93 -86955.354 112080.073 -86983.925 112108.645 -87012.497 112137.216 -87069.64 112137.216 -87241.068 112108.645 -87298.211 112080.073 -87326.783 112022.93 -87355.354 111937.216 -87355.354 M 112622.93 -87326.783 112565.787 -87355.354 112451.502 -87355.354 112394.359 -87326.783 112365.787 -87269.64 112365.787 -87041.068 112394.359 -86983.925 112451.502 -86955.354 112565.787 -86955.354 112622.93 -86983.925 112651.502 -87041.068 112651.502 -87098.211 112365.787 -87155.354 M 112880.073 -87326.783 112937.216 -87355.354 113051.502 -87355.354 113108.645 -87326.783 113137.216 -87269.64 113137.216 -87241.068 113108.645 -87183.925 113051.502 -87155.354 112965.788 -87155.354 112908.645 -87126.783 112880.073 -87069.64 112880.073 -87041.068 112908.645 -86983.925 112965.788 -86955.354 113051.502 -86955.354 113108.645 -86983.925 M 113394.359 -86955.354 113394.359 -87555.354 M 113394.359 -86983.925 113451.502 -86955.354 113565.787 -86955.354 113622.93 -86983.925 113651.502 -87012.497 113680.073 -87069.64 113680.073 -87241.068 113651.502 -87298.211 113622.93 -87326.783 113565.787 -87355.354 113451.502 -87355.354 113394.359 -87326.783" fill="none" stroke-width="100"/><path d="M 117526.19 -86956.119 117359.524 -86479.928 M 117240.476 -86956.119 117240.476 -85956.119 117430.952 -85956.119 117478.571 -86003.738 117502.381 -86051.357 117526.19 -86146.595 117526.19 -86289.452 117502.381 -86384.69 117478.571 -86432.309 117430.952 -86479.928 117240.476 -86479.928 M 117716.667 -86908.5 117788.095 -86956.119 117907.143 -86956.119 117954.762 -86908.5 117978.571 -86860.88 118002.381 -86765.642 118002.381 -86670.404 117978.571 -86575.166 117954.762 -86527.547 117907.143 -86479.928 117811.905 -86432.309 117764.286 -86384.69 117740.476 -86337.071 117716.667 -86241.833 117716.667 -86146.595 117740.476 -86051.357 117764.286 -86003.738 117811.905 -85956.119 117930.952 -85956.119 118002.381 -86003.738 M 118145.238 -85956.119 118430.952 -85956.119 M 118288.095 -86956.119 118288.095 -85956.119" fill="none" stroke-width="125"/><path d="M 116600 -95500.001 116600 -94299.999 M 117500.001 -94300 116600 -94299.999 M 117500.001 -95500 116600 -95500.001 M 119400 -94299.999 118499.999 -94300 M 119400 -95500.001 118499.999 -95500 M 119400 -95500.001 119400 -94299.999 M 115016.009 -90500 115528.662 -91012.652 M 115528.662 -89987.348 115016.009 -90500 M 117487.348 -88028.662 118000 -87516.009 118512.652 -88028.662 M 118000 -93483.991 117487.348 -92971.338 M 118512.652 -92971.338 118000 -93483.991 M 120471.338 -89987.348 120814.285 -90330.294 M 120471.338 -91012.652 120771.859 -90712.132 M 121387.041 -90563.64 121047.63 -90903.051 120983.991 -90500 121387.041 -90563.64" fill="none" stroke-width="120"/><path d="M 121387.041 -90563.64 121047.63 -90903.051 120983.991 -90500 121387.041 -90563.64"/></g></g><g id="l5hOAyLajr8HwcWnrPjs_top_drill1" transform="scale(25.4,25.4)"><use xlink:href="#J1hogTXUkUEuuF5KyNFY_pad-1" x="4389.8" y="-3543.3"/><use xlink:href="#J1hogTXUkUEuuF5KyNFY_pad-1" x="4429.1" y="-3641.7"/><use xlink:href="#J1hogTXUkUEuuF5KyNFY_pad-1" x="4468.5" y="-3543.3"/><use xlink:href="#J1hogTXUkUEuuF5KyNFY_pad-1" x="4507.9" y="-3641.7"/></g><g id="l5hOAyLajr8HwcWnrPjs_top_drill2" transform="scale(25.4,25.4)"><use xlink:href="#nqqBZqwVYYLBm3Podk4x_pad-1" x="4133.9" y="-3740.2"/><use xlink:href="#nqqBZqwVYYLBm3Podk4x_pad-1" x="4212.6" y="-3740.2"/><use xlink:href="#nqqBZqwVYYLBm3Podk4x_pad-1" x="4291.3" y="-3740.2"/><use xlink:href="#nqqBZqwVYYLBm3Podk4x_pad-1" x="4370.1" y="-3740.2"/><use xlink:href="#nqqBZqwVYYLBm3Podk4x_pad-1" x="4448.8" y="-3740.2"/><use xlink:href="#nqqBZqwVYYLBm3Podk4x_pad-1" x="4574.8" y="-3740.2"/><use xlink:href="#nqqBZqwVYYLBm3Podk4x_pad-1" x="4606.3" y="-3563"/><use xlink:href="#nqqBZqwVYYLBm3Podk4x_pad-1" x="4626" y="-3543.3"/><use xlink:href="#nqqBZqwVYYLBm3Podk4x_pad-1" x="4626" y="-3582.7"/><use xlink:href="#nqqBZqwVYYLBm3Podk4x_pad-1" x="4645.7" y="-3523.6"/><use xlink:href="#nqqBZqwVYYLBm3Podk4x_pad-1" x="4645.7" y="-3563"/><use xlink:href="#nqqBZqwVYYLBm3Podk4x_pad-1" x="4645.7" y="-3602.4"/><use xlink:href="#nqqBZqwVYYLBm3Podk4x_pad-1" x="4645.7" y="-3712.6"/><use xlink:href="#nqqBZqwVYYLBm3Podk4x_pad-1" x="4665.4" y="-3543.3"/><use xlink:href="#nqqBZqwVYYLBm3Podk4x_pad-1" x="4665.4" y="-3582.7"/><use xlink:href="#nqqBZqwVYYLBm3Podk4x_pad-1" x="4685" y="-3563"/><use xlink:href="#nqqBZqwVYYLBm3Podk4x_pad-1" x="4724.4" y="-3484.3"/><use xlink:href="#nqqBZqwVYYLBm3Podk4x_pad-2" x="4153.5" y="-3543.3"/><use xlink:href="#nqqBZqwVYYLBm3Podk4x_pad-2" x="4192.9" y="-3641.7"/><use xlink:href="#nqqBZqwVYYLBm3Podk4x_pad-2" x="4232.3" y="-3543.3"/><use xlink:href="#nqqBZqwVYYLBm3Podk4x_pad-2" x="4271.7" y="-3641.7"/><use xlink:href="#nqqBZqwVYYLBm3Podk4x_pad-2" x="4311" y="-3543.3"/><use xlink:href="#nqqBZqwVYYLBm3Podk4x_pad-2" x="4350.4" y="-3641.7"/></g><clipPath id="l5hOAyLajr8HwcWnrPjs_top_outline"><path d="M 104000 -86000 104000 -95000 A 1000 1000 0 0 1 105000 -96000 L 120500 -96000 A 1000 1000 0 0 1 121500 -95000 L 121500 -86000 A 1000 1000 0 0 1 120500 -85000 L 105000 -85000 A 1000 1000 0 0 1 104000 -86000" fill="none" stroke-width="100"/></clipPath><mask id="l5hOAyLajr8HwcWnrPjs_top_mech-mask"><g fill="#000" stroke="#000"><rect x="104000" y="-96000" width="17500" height="11000" fill="#fff"/><use xlink:href="#l5hOAyLajr8HwcWnrPjs_top_drill1"/><use xlink:href="#l5hOAyLajr8HwcWnrPjs_top_drill2"/></g></mask><mask id="l5hOAyLajr8HwcWnrPjs_top_cf-mask"><g fill="#fff" stroke="#fff"><use xlink:href="#l5hOAyLajr8HwcWnrPjs_top_soldermask"/></g></mask><mask id="l5hOAyLajr8HwcWnrPjs_top_sm-mask"><g fill="#000" stroke="#000"><rect x="104000" y="-96000" width="17500" height="11000" fill="#fff"/><use xlink:href="#l5hOAyLajr8HwcWnrPjs_top_soldermask"/></g></mask></defs><g transform="translate(0,-181000) scale(1,-1)"><g mask="url(#l5hOAyLajr8HwcWnrPjs_top_mech-mask)" clip-path="url(#l5hOAyLajr8HwcWnrPjs_top_outline)"><rect x="104000" y="-96000" width="17500" height="11000" fill="currentColor" class="l5hOAyLajr8HwcWnrPjs_fr4"/><use xlink:href="#l5hOAyLajr8HwcWnrPjs_top_copper" fill="currentColor" stroke="currentColor" class="l5hOAyLajr8HwcWnrPjs_cu"/><use xlink:href="#l5hOAyLajr8HwcWnrPjs_top_copper" fill="currentColor" stroke="currentColor" class="l5hOAyLajr8HwcWnrPjs_cf" mask="url(#l5hOAyLajr8HwcWnrPjs_top_cf-mask)"/><g mask="url(#l5hOAyLajr8HwcWnrPjs_top_sm-mask)"><rect x="104000" y="-96000" width="17500" height="11000" fill="currentColor" class="l5hOAyLajr8HwcWnrPjs_sm"/><use xlink:href="#l5hOAyLajr8HwcWnrPjs_top_silkscreen" fill="currentColor" stroke="currentColor" class="l5hOAyLajr8HwcWnrPjs_ss"/></g><use xlink:href="#l5hOAyLajr8HwcWnrPjs_top_solderpaste" fill="currentColor" stroke="currentColor" class="l5hOAyLajr8HwcWnrPjs_sp"/></g></g></svg>